<svg width="195" height="165" viewBox="0 0 195 165" fill="none" xmlns="http://www.w3.org/2000/svg">
<path d="M49.6037 95.6171C47.662 96.3729 44.6905 97.3091 41.3342 97.5865C41.1019 97.6073 40.8696 97.6142 40.6407 97.6142C35.6825 97.6142 30.759 93.2281 27.3506 85.7111C26.144 83.0517 25.7904 80.1149 25.9915 77.1989C25.5026 77.2475 24.9549 77.3515 24.4417 77.5734C24.1123 77.7571 21.9972 79.6572 13.9288 98.6336C9.50805 109.029 5.08389 120.443 3.87728 124.184C0.420403 134.887 2.24762 140.463 3.92231 143.729C5.7669 147.328 8.47826 150.404 11.7618 152.623C15.1008 154.88 18.9563 156.19 22.909 156.412C31.605 156.905 40.8695 154.096 47.707 148.909L45.8902 119.649C43.1268 128.355 40.079 137.263 38.6123 141.423C38.4736 141.812 38.1096 142.058 37.7178 142.058C37.6137 142.058 37.5064 142.04 37.4023 142.002C36.91 141.829 36.65 141.288 36.8233 140.796C38.401 136.306 41.8543 126.212 44.7806 116.861C50.1861 99.5732 50.0717 96.7162 49.9087 96.2516C49.8186 96.0401 49.7146 95.8321 49.6037 95.624V95.6171Z" fill="#55C3E9"/>
<path d="M142.413 95.4992C142.503 95.2877 142.603 95.0762 142.711 94.8681C142.551 94.7919 142.42 94.7295 142.323 94.6809C140.471 94.6705 138.935 94.0776 137.753 92.9161C135.405 90.6138 135.378 86.9142 135.378 86.7582C135.378 86.7166 135.381 86.6715 135.388 86.6299C135.059 86.0925 133.141 82.757 134.306 79.4214C134.435 79.0539 134.643 78.7384 134.927 78.4679C134.861 78.3882 134.806 78.298 134.767 78.194C134.743 78.1281 134.514 77.4832 134.389 76.554C126.227 74.328 112.216 72.5008 109.716 72.1852C105.344 75.5762 101.038 76.6372 97.3589 76.6372C95.3722 76.6372 93.5657 76.3286 92.0366 75.9091C88.0908 74.8308 85.272 72.8856 84.3394 72.1852C81.8949 72.4869 68.3101 74.2136 59.6662 76.5575C59.5413 77.4867 59.3126 78.1316 59.2883 78.1975C59.2501 78.3015 59.1945 78.3917 59.1286 78.4714C59.4164 78.7419 59.6245 79.0609 59.7493 79.4249C60.9143 82.7604 58.997 86.0959 58.6676 86.6334C58.6746 86.675 58.678 86.7166 58.678 86.7616C58.678 86.9177 58.6537 90.6173 56.3028 92.9195C55.1205 94.0776 53.5846 94.6705 51.7331 94.6844C51.636 94.7329 51.5042 94.7988 51.3447 94.8716C51.4522 95.0796 51.5527 95.2877 51.6428 95.5027C51.9376 96.1857 52.6103 97.7425 47.4648 114.569L50.5471 164.269H143.494L146.577 114.569C141.432 97.7391 142.104 96.1857 142.399 95.5027L142.413 95.4992Z" fill="#55C3E9"/>
<path d="M159.326 93.1241C161.459 91.2379 163.414 88.4017 164.992 84.9309C166.136 82.4068 166.417 79.5775 166.15 76.769C166.053 76.6303 165.99 76.4638 165.98 76.2835C165.973 76.1414 165.997 76.0096 166.046 75.8848C165.585 72.5042 164.364 69.2068 162.939 66.5717C161.708 64.2972 160.89 61.8424 160.509 59.2696C160.457 58.9298 160.415 58.5797 160.373 58.2399C160.082 55.8301 159.805 54.3357 157.815 54.0063C156.282 53.7497 154.812 54.724 154.462 56.2184C154.025 58.0942 153.761 61.3118 154.975 65.9753C156.247 66.5544 157.451 67.1854 158.564 67.8546C159.011 68.1251 159.156 68.7076 158.886 69.1548C158.616 69.6021 158.033 69.7477 157.586 69.4773C154.892 67.8581 151.632 66.4816 148.158 65.5003C143.321 64.1307 141.359 65.2715 140.561 66.4712C139.878 67.4975 139.365 68.7353 139.123 69.8968C139.993 69.8275 140.998 69.8552 142.132 69.9904C144.375 70.2539 146.338 70.8191 146.421 70.8434C146.924 70.989 147.212 71.5161 147.066 72.0188C146.92 72.5216 146.393 72.8093 145.891 72.6637C142.912 71.8004 138.224 71.1936 137.118 72.5458C135.492 74.536 136.539 77.5214 136.55 77.5526C136.56 77.5768 136.567 77.6011 136.571 77.6254C137.524 77.3619 138.769 77.2613 140.308 77.3202C142.604 77.4104 144.746 77.823 144.837 77.8403C145.35 77.9409 145.686 78.4367 145.585 78.9534C145.485 79.4665 144.986 79.8028 144.472 79.7023C144.452 79.6988 142.368 79.2966 140.215 79.2134C137.424 79.1059 136.252 79.5983 136.092 80.0525C135.315 82.2785 136.439 84.6431 136.865 85.4163C137.625 85.2083 138.679 85.139 140.107 85.1875C141.74 85.243 143.242 85.4441 143.304 85.451C143.824 85.5204 144.185 85.9988 144.115 86.5155C144.046 87.0356 143.567 87.3961 143.051 87.3268C140.651 87.0009 138.169 86.9801 137.299 87.2505C137.385 88.1832 137.732 90.2566 139.081 91.5742C139.948 92.4202 141.075 92.819 142.52 92.7878C142.68 92.7843 142.839 92.8225 142.985 92.8987C143.03 92.923 147.496 95.253 152.881 95.7003C154.992 95.8771 157.218 94.986 159.319 93.1241H159.326Z" fill="white"/>
<path d="M171.157 156.409C175.11 156.187 178.965 154.876 182.304 152.619C185.588 150.4 188.299 147.325 190.144 143.726C191.818 140.463 193.642 134.884 190.189 124.18C188.982 120.439 184.554 109.025 180.137 98.6302C172.069 79.6538 169.954 77.7537 169.61 77.563C169.101 77.3445 168.556 77.2405 168.071 77.1954C168.276 80.1114 167.918 83.0517 166.712 85.7111C163.303 93.2281 158.377 97.6142 153.418 97.6142C153.186 97.6142 152.954 97.6038 152.725 97.5865C149.369 97.3057 146.4 96.3729 144.459 95.6171C144.348 95.8251 144.24 96.0366 144.15 96.2516C143.991 96.7092 143.876 99.5698 149.278 116.858C152.201 126.209 155.655 136.302 157.236 140.792C157.409 141.285 157.149 141.825 156.657 141.999C156.553 142.037 156.445 142.054 156.341 142.054C155.949 142.054 155.585 141.812 155.447 141.42C153.983 137.259 150.932 128.352 148.172 119.645L146.355 148.906C153.193 154.096 162.458 156.901 171.153 156.409H171.157Z" fill="#55C3E9"/>
<path d="M135.398 47.0093C137.007 38.778 137.277 30.7929 136.164 24.524C135.284 19.5554 133.047 13.1098 127.402 10.6203C121.924 8.2001 117.805 9.47261 115.822 10.4608C120.277 12.9746 123.779 16.74 126.068 21.5145C128.654 26.913 129.608 33.5528 128.748 40.2135C128.723 40.4146 128.633 40.5914 128.508 40.7301C129.76 41.9333 130.565 43.5178 130.794 45.2618C131.064 47.3006 130.523 49.322 129.271 50.9516C128.02 52.5847 126.21 53.6284 124.171 53.8988C123.828 53.9439 123.488 53.9682 123.148 53.9682C122.309 53.9682 121.48 53.8295 120.676 53.5556C120.631 53.5417 120.589 53.5209 120.548 53.5001C119.906 54.7622 119.168 55.9584 118.349 57.0783C118.072 58.1705 116.626 64.3041 117.046 71.1451C117.046 71.1971 117.046 71.2456 117.042 71.2941C120.978 71.8836 125.87 72.688 130.204 73.6103C130.665 67.1473 131.376 64.318 132.524 59.7758C133.279 56.7836 134.219 53.0563 135.402 47.0093H135.398Z" fill="black"/>
<path d="M53.844 79.2099C51.6942 79.2931 49.607 79.6953 49.5862 79.6988C49.0731 79.7993 48.5736 79.463 48.4731 78.9499C48.3725 78.4367 48.7089 77.9374 49.222 77.8369C49.3122 77.8195 51.455 77.4035 53.7503 77.3168C55.2898 77.2578 56.5345 77.3584 57.488 77.6219C57.4949 77.5976 57.502 77.5699 57.5124 77.5456C57.5228 77.5179 58.5698 74.5326 56.9437 72.5424C55.8376 71.1867 51.1465 71.7969 48.1715 72.6602C47.6688 72.8059 47.1417 72.5181 46.9961 72.0153C46.8505 71.5126 47.1382 70.9855 47.6409 70.8399C47.7242 70.8156 49.6832 70.2505 51.93 69.9869C53.0673 69.8517 54.0694 69.824 54.9397 69.8934C54.7004 68.7318 54.1837 67.494 53.5006 66.4677C52.7066 65.2715 50.7408 64.1307 45.9039 65.4968C42.4297 66.4815 39.1705 67.8546 36.4764 69.4738C36.0291 69.7442 35.4466 69.5986 35.1762 69.1514C34.9057 68.7041 35.0513 68.1216 35.4985 67.8511C36.6115 67.1819 37.8182 66.5509 39.0872 65.9719C40.3007 61.3084 40.0372 58.0942 39.6004 56.2149C39.2502 54.7205 37.7801 53.7462 36.2475 54.0028C34.2573 54.3357 33.98 55.8266 33.6887 58.2364C33.6471 58.5762 33.6055 58.9229 33.5534 59.2662C33.172 61.8389 32.3538 64.2937 31.123 66.5682C29.6979 69.2033 28.4773 72.5007 28.0161 75.8813C28.0647 76.0027 28.0891 76.1379 28.0822 76.2801C28.0718 76.4604 28.0093 76.6303 27.9122 76.769C27.6417 79.574 27.9225 82.4033 29.0702 84.9275C30.6443 88.3982 32.6035 91.231 34.7358 93.1206C36.837 94.9826 39.0629 95.8736 41.1745 95.6968C46.5592 95.2495 51.0251 92.9161 51.0701 92.8953C51.2123 92.819 51.3683 92.7808 51.5313 92.7843C52.9806 92.812 54.104 92.4168 54.9708 91.5707C56.3196 90.2532 56.6664 88.1832 56.753 87.2471C55.8828 86.9766 53.4001 87.0009 51.0007 87.3233C50.4806 87.3927 50.0057 87.0286 49.9363 86.512C49.867 85.9919 50.231 85.5169 50.7476 85.4476C50.81 85.4406 52.3114 85.236 53.9445 85.184C55.373 85.1355 56.4271 85.2083 57.1865 85.4129C57.6129 84.6362 58.7328 82.2611 57.963 80.049C57.8035 79.5948 56.6316 79.1024 53.8404 79.2099H53.844Z" fill="white"/>
<path d="M67.9495 39.2704C68.9446 38.8127 70.0262 38.57 71.1323 38.57C71.4756 37.3668 72.2904 34.8947 73.8333 32.0446C75.8131 28.3901 79.4156 23.4111 85.3481 20.4431C85.5839 20.3252 85.8543 20.3113 86.1005 20.4015C86.3467 20.4916 86.5444 20.6823 86.645 20.925C87.1304 22.0553 89.0409 24.8604 92.8063 27.3499C97.1855 30.2416 105.358 33.5667 119.421 32.9807C119.785 32.9669 120.125 33.1611 120.295 33.4801L123.013 38.5735C124.383 38.5457 125.725 38.8855 126.914 39.5513C127.635 33.3934 126.73 27.2944 124.355 22.3362C121.696 16.7886 117.265 12.7111 111.543 10.5544C104.224 7.79101 96.9288 7.97474 92.0954 8.61619C86.8286 9.31658 83.2574 10.6966 83.2227 10.7104C83.1534 10.7382 83.0771 10.7555 83.0043 10.7659C76.8014 11.5946 72.3077 14.143 69.6518 18.335C66.7774 22.8736 66.5416 28.6016 66.8502 32.6063C67.0721 35.4911 67.6026 37.9251 67.9459 39.2739L67.9495 39.2704Z" fill="black"/>
<path d="M93.6556 67.6327C90.802 67.2548 88.0802 66.4191 85.5664 65.1917V70.7324C86.4679 71.3947 89.0753 73.1491 92.6085 74.1026C98.2775 75.6317 103.621 74.5013 108.499 70.7394V65.2576C104.997 66.9427 101.11 67.8615 97.102 67.8615C95.9613 67.8615 94.8103 67.7887 93.6522 67.6362L93.6556 67.6327Z" fill="#FFE2DE"/>
<path d="M120.915 50.3345C121.4 50.5321 121.629 51.0869 121.432 51.5723C121.404 51.6416 121.373 51.7075 121.345 51.7769C122.177 52.0543 123.044 52.134 123.925 52.0196C127.097 51.6 129.337 48.6806 128.918 45.508C128.505 42.3701 125.714 40.1684 122.569 40.4943C122.184 40.5325 121.817 40.3383 121.636 39.9985L118.911 34.8947C112.687 35.1097 107.063 34.5965 102.188 33.3622C98.1317 32.3359 94.5742 30.8137 91.6201 28.8339C87.9899 26.4033 86.1592 23.8826 85.379 22.5685C75.5389 28.0295 72.8031 39.6414 72.7788 39.7593C72.6713 40.2274 72.2346 40.5429 71.7561 40.4943C70.383 40.3522 69.0759 40.692 68.0079 41.3819C67.9386 41.4478 67.8589 41.5033 67.7687 41.5449C66.517 42.4464 65.6293 43.8437 65.4109 45.508C64.9913 48.6806 67.2312 51.6 70.4037 52.0196C71.2428 52.1305 72.0716 52.0577 72.8691 51.8115C72.7893 51.6208 72.7061 51.4301 72.6298 51.2394C72.4357 50.754 72.6748 50.2027 73.1603 50.0085C73.6457 49.8144 74.1969 50.0536 74.3911 50.539C77.6573 58.7669 85.1362 64.5954 93.9014 65.7534C102.812 66.9288 111.477 63.1079 116.671 56.156C116.699 56.1144 116.727 56.0728 116.758 56.0347C117.919 54.457 118.908 52.7234 119.677 50.8511C119.875 50.3657 120.43 50.1368 120.915 50.3345ZM120.606 46.0766C122.929 44.8388 125.443 44.8354 125.547 44.8354C126.071 44.8354 126.494 45.2653 126.49 45.7889C126.49 46.3124 126.064 46.732 125.54 46.732C125.513 46.732 123.384 46.7424 121.498 47.7479C121.355 47.8242 121.203 47.8588 121.054 47.8588C120.714 47.8588 120.388 47.6786 120.218 47.3561C119.972 46.8949 120.145 46.3194 120.606 46.0732V46.0766ZM74.1068 47.3596C73.9369 47.6786 73.6075 47.8623 73.2712 47.8623C73.1221 47.8623 72.9696 47.8276 72.8274 47.7514C70.9239 46.7355 68.8054 46.7354 68.7881 46.7354H68.7845C68.2644 46.7354 67.8414 46.3159 67.838 45.7923C67.838 45.2688 68.2576 44.8423 68.7811 44.8388C68.8852 44.8388 71.4024 44.8388 73.722 46.0801C74.1832 46.3263 74.3566 46.9018 74.1104 47.363L74.1068 47.3596ZM94.8827 43.6946C95.6247 43.0358 97.4728 42.176 99.1648 43.6288C99.5636 43.9686 99.6087 44.5684 99.2654 44.9637C98.9256 45.3624 98.3257 45.4075 97.9305 45.0642C97.1261 44.3742 96.3494 44.929 96.131 45.1162C95.9507 45.2757 95.7288 45.3555 95.5069 45.3555C95.2469 45.3555 94.9833 45.248 94.796 45.0365C94.4493 44.6447 94.4875 44.0448 94.8793 43.6946H94.8827ZM87.1369 41.5761C86.9496 41.8119 86.6722 41.9333 86.3948 41.9333C86.1868 41.9333 85.9789 41.8674 85.8055 41.7287C85.3964 41.4027 85.3269 40.8064 85.6528 40.3972C86.27 39.6206 87.4108 39.1352 88.6313 39.1317C89.8414 39.1213 90.9022 39.5894 91.5472 40.3903C91.8731 40.7994 91.8107 41.3958 91.4016 41.7218C90.9924 42.0477 90.3961 41.9853 90.0702 41.5761C89.7928 41.2294 89.2554 41.0248 88.6382 41.0248C88.0107 41.0248 87.3968 41.2537 87.1403 41.5727L87.1369 41.5761ZM102.538 54.5091C101.211 55.9549 99.3833 56.69 97.1053 56.6969H97.0775C95.0214 56.6969 93.3086 56.0243 91.9911 54.6998C89.2554 51.9467 89.2728 47.3561 89.2728 47.1619C89.2762 46.6418 89.6992 46.2258 90.2158 46.2223L103.815 46.1842C104.307 46.1842 104.719 46.5621 104.758 47.0544C104.775 47.2417 105.108 51.7006 102.528 54.5091H102.538ZM106.127 42.8937C104.91 42.8937 103.922 41.9055 103.922 40.6885C103.922 39.4715 104.91 38.4833 106.127 38.4833C107.344 38.4833 108.332 39.4715 108.332 40.6885C108.332 41.9055 107.344 42.8937 106.127 42.8937Z" fill="white"/>
<path d="M93.3436 53.3718C94.304 54.3357 95.5245 54.8038 97.0778 54.8038H97.0986C98.8219 54.8003 100.181 54.2698 101.135 53.2331C102.56 51.6867 102.841 49.3428 102.882 48.0807L91.2251 48.1154C91.3603 49.433 91.8146 51.8358 93.3402 53.3683L93.3436 53.3718Z" fill="#FA9B9E"/>
<path d="M106.128 38.4868C104.911 38.4868 103.923 39.4749 103.923 40.6919C103.923 41.909 104.911 42.8972 106.128 42.8972C107.345 42.8972 108.333 41.909 108.333 40.6919C108.333 39.4749 107.345 38.4868 106.128 38.4868Z" fill="black"/>
<path d="M169.197 158.361C169.887 158.361 170.577 158.34 171.264 158.302C175.56 158.059 179.745 156.638 183.365 154.19C186.912 151.794 189.838 148.476 191.832 144.592C193.458 141.427 194.179 137.98 194.04 134.059C193.929 130.945 193.26 127.526 191.995 123.601C190.76 119.774 186.263 108.183 181.787 97.6697C172.963 76.9389 171.08 76.1345 170.369 75.8294C169.513 75.4618 168.625 75.3196 167.862 75.2815C167.332 71.7691 166.073 68.3851 164.603 65.6668C163.476 63.5864 162.731 61.3396 162.381 58.9888C162.332 58.6733 162.294 58.3508 162.253 58.011C161.982 55.7746 161.614 52.7165 158.123 52.134C155.609 51.7144 153.189 53.3198 152.613 55.785C151.989 58.4618 152.055 61.5754 152.804 65.0565C151.473 64.5364 150.089 64.0718 148.671 63.6696C142.735 61.988 140.124 63.6904 138.98 65.4137C137.999 66.8907 137.33 68.6729 137.132 70.3094C136.508 70.5556 136.009 70.8954 135.651 71.3357C134.816 72.3586 134.462 73.5132 134.351 74.5777C133.627 74.387 132.86 74.1997 132.066 74.016C132.514 67.5148 133.214 64.7375 134.355 60.2301C135.118 57.2136 136.064 53.4585 137.253 47.363C138.904 38.9063 139.178 30.675 138.027 24.1843C136.647 16.4072 133.235 11.1161 128.166 8.87623C120.673 5.56845 115.399 8.3631 113.801 9.42409C113.284 9.18831 112.757 8.96987 112.216 8.7653C104.508 5.85625 96.8562 6.05389 91.794 6.73001C86.7734 7.40266 83.3095 8.637 82.6472 8.88664C75.9137 9.80894 71.0042 12.6452 68.0501 17.3121C65.5502 21.2648 64.4857 26.6148 64.9677 32.7866C65.2416 36.2851 65.9316 39.097 66.2679 40.314C64.7596 41.5553 63.7853 43.2993 63.5288 45.2445C63.2583 47.2832 63.7991 49.3047 65.0508 50.9343C66.3025 52.5674 68.1124 53.611 70.1511 53.8815C71.3439 54.0375 72.5193 53.9231 73.6462 53.5348C73.6566 53.5348 73.6636 53.5278 73.6705 53.5243C75.9589 57.9798 79.447 61.6447 83.6632 64.1516V70.3441C80.3658 70.7567 68.0396 72.3829 59.7043 74.5707C59.5933 73.5028 59.2397 72.3482 58.404 71.3254C58.0434 70.885 57.5477 70.5452 56.9201 70.299C56.726 68.659 56.0567 66.8803 55.072 65.4032C52.9986 62.2827 48.6575 62.73 45.3809 63.6592C43.9628 64.0614 42.5794 64.526 41.248 65.0461C42.0004 61.565 42.0629 58.4513 41.4388 55.7746C40.8632 53.3094 38.443 51.7041 35.9292 52.1236C32.4377 52.7061 32.0701 55.7642 31.7996 58.0006C31.758 58.3404 31.7199 58.6628 31.6713 58.9784C31.3211 61.3292 30.5723 63.576 29.4489 65.6563C27.9788 68.3747 26.7166 71.7588 26.1895 75.2711C25.4267 75.3093 24.5356 75.4549 23.6827 75.8189C22.9719 76.1241 21.0893 76.9285 12.2651 97.6593C7.78881 108.172 3.29524 119.763 2.05742 123.591C0.299514 129.038 -1.59718 137.141 2.22029 144.582C4.21051 148.465 7.14033 151.783 10.6874 154.179C14.3107 156.627 18.4958 158.049 22.7883 158.292C23.4748 158.33 24.1648 158.351 24.8548 158.351C32.9474 158.351 41.3174 155.729 47.8324 151.139L48.6471 164.259H50.5471L47.4649 114.559C52.6103 97.7287 51.9376 96.1753 51.6428 95.4923C51.5527 95.2808 51.4522 95.0693 51.3447 94.8612C51.5042 94.785 51.636 94.7225 51.7331 94.674C53.5846 94.6601 55.1205 94.0707 56.3028 92.9092C58.6502 90.6069 58.678 86.9073 58.678 86.7513C58.678 86.7097 58.6746 86.6646 58.6676 86.623C58.997 86.0856 60.9143 82.75 59.7493 79.4145C59.621 79.047 59.413 78.7315 59.1286 78.461C59.1945 78.3813 59.2502 78.2911 59.2883 78.1871C59.3126 78.1212 59.5414 77.4798 59.6662 76.5471C68.3066 74.2032 81.8915 72.4765 84.3394 72.1748C85.2721 72.8752 88.0909 74.8204 92.0366 75.8987C93.5692 76.3182 95.3722 76.6268 97.3589 76.6268C101.038 76.6268 105.344 75.5658 109.716 72.1748C112.216 72.4904 126.227 74.3176 134.389 76.5436C134.514 77.4728 134.743 78.1177 134.767 78.1836C134.806 78.2876 134.861 78.3778 134.927 78.4575C134.639 78.728 134.431 79.047 134.306 79.411C133.141 82.7466 135.059 86.0821 135.388 86.6195C135.381 86.6611 135.378 86.7027 135.378 86.7478C135.378 86.9038 135.402 90.6034 137.753 92.9057C138.935 94.0638 140.471 94.6567 142.323 94.6705C142.42 94.7191 142.551 94.785 142.711 94.8578C142.603 95.0658 142.503 95.2738 142.413 95.4888C142.118 96.1719 141.445 97.7287 146.591 114.555L143.508 164.255H145.408L146.223 151.135C152.738 155.726 161.112 158.347 169.201 158.347L169.197 158.361ZM44.7847 116.858C41.8617 126.209 38.4083 136.302 36.8272 140.792C36.6538 141.285 36.9138 141.825 37.4062 141.999C37.5102 142.037 37.6178 142.054 37.7218 142.054C38.1136 142.054 38.4777 141.812 38.6164 141.42C40.0795 137.259 43.1307 128.352 45.8941 119.645L47.711 148.906C40.8735 154.096 31.6055 156.901 22.9131 156.409C18.9604 156.187 15.1048 154.876 11.7658 152.619C8.48228 150.4 5.77075 147.325 3.92616 143.726C2.25147 140.463 0.424254 134.884 3.88113 124.181C5.08774 120.439 9.51553 109.025 13.9328 98.6302C22.0012 79.6538 24.1162 77.7537 24.4456 77.5699C24.9587 77.348 25.5101 77.244 25.9955 77.1954C25.7909 80.1114 26.148 83.0482 27.3547 85.7076C30.763 93.2247 35.69 97.6108 40.6447 97.6108C40.8771 97.6108 41.1094 97.6004 41.3382 97.583C44.6945 97.3022 47.6658 96.3695 49.6075 95.6136C49.7185 95.8217 49.8226 96.0332 49.9128 96.2412C50.0757 96.7058 50.1901 99.5663 44.7847 116.851V116.858ZM57.194 85.4129C56.4347 85.2049 55.3841 85.1355 53.9521 85.1841C52.319 85.2395 50.8176 85.4406 50.7552 85.4476C50.2351 85.5169 49.8746 85.9954 49.9439 86.512C50.0133 87.0321 50.4917 87.3927 51.0083 87.3233C53.4077 86.9974 55.8904 86.9766 56.7606 87.2471C56.674 88.1832 56.3272 90.2532 54.9784 91.5708C54.1116 92.4168 52.9848 92.812 51.5389 92.7843C51.3759 92.7808 51.2199 92.819 51.0777 92.8953C51.0326 92.9195 46.5668 95.2495 41.1821 95.6968C39.0705 95.8737 36.8446 94.9826 34.7434 93.1207C32.6111 91.2345 30.6554 88.3982 29.0778 84.9275C27.9336 82.4033 27.6528 79.574 27.9198 76.769C28.0169 76.6303 28.0794 76.4638 28.0898 76.2801C28.0967 76.1379 28.0723 76.0062 28.0237 75.8813C28.4849 72.5007 29.7053 69.2034 31.1304 66.5682C32.3613 64.2937 33.1796 61.8389 33.561 59.2662C33.6131 58.9264 33.6547 58.5762 33.6963 58.2364C33.9876 55.8266 34.2649 54.3322 36.2551 54.0028C37.7877 53.7497 39.2578 54.7206 39.608 56.215C40.0448 58.0908 40.3083 61.3084 39.0948 65.9719C37.8223 66.5509 36.6191 67.182 35.5061 67.8512C35.0589 68.1216 34.9133 68.7041 35.1838 69.1514C35.4542 69.5987 36.0367 69.7443 36.484 69.4738C39.1781 67.8546 42.4373 66.4781 45.9115 65.4969C50.7484 64.1273 52.7142 65.268 53.5082 66.4677C54.1913 67.494 54.7045 68.7318 54.9473 69.8934C54.077 69.824 53.0714 69.8517 51.9376 69.987C49.6943 70.2505 47.7318 70.8157 47.6485 70.8399C47.1458 70.9856 46.8581 71.5126 47.0037 72.0154C47.1493 72.5181 47.6764 72.8059 48.1791 72.6603C51.1541 71.7969 55.8452 71.1867 56.9513 72.5424C58.5774 74.5326 57.5304 77.5179 57.52 77.5456C57.5095 77.5699 57.5025 77.5976 57.4956 77.6219C56.5421 77.3584 55.2974 77.2579 53.7579 77.3168C51.4626 77.4069 49.3198 77.8195 49.2296 77.8369C48.7165 77.9374 48.3801 78.4333 48.4807 78.9499C48.5812 79.4631 49.077 79.7994 49.5936 79.6988C49.6144 79.6953 51.6984 79.2932 53.8515 79.21C56.6427 79.1025 57.8147 79.5948 57.9742 80.049C58.7439 82.2577 57.6239 84.6328 57.1974 85.4129H57.194ZM69.6554 18.3315C72.3113 14.1361 76.8049 11.5911 83.0078 10.7624C83.0841 10.752 83.1569 10.7347 83.2262 10.707C83.2609 10.6931 86.8323 9.31315 92.0991 8.61276C96.929 7.97131 104.228 7.78753 111.547 10.551C117.268 12.7111 121.699 16.7851 124.359 22.3327C126.737 27.291 127.639 33.3899 126.917 39.5478C125.728 38.8786 124.39 38.5388 123.017 38.57L120.298 33.4766C120.129 33.1541 119.789 32.9634 119.425 32.9773C105.361 33.5632 97.189 30.2416 92.8098 27.3464C89.0443 24.8604 87.1304 22.0554 86.6485 20.9216C86.5479 20.6789 86.3503 20.4916 86.1041 20.398C85.858 20.3079 85.5841 20.3217 85.3518 20.4396C79.4193 23.4041 75.8168 28.3866 73.837 32.0411C72.294 34.8912 71.4792 37.3634 71.1359 38.5665C70.0299 38.5665 68.948 38.8092 67.9529 39.2669C67.6097 37.9181 67.0791 35.4841 66.8572 32.5993C66.5486 28.5946 66.781 22.8667 69.6588 18.328L69.6554 18.3315ZM108.499 70.7394C103.621 74.5014 98.2777 75.6317 92.6087 74.1027C89.0755 73.1492 86.4646 71.3947 85.5666 70.7324V65.1917C88.0804 66.4192 90.8022 67.2582 93.6558 67.6327C94.8104 67.7853 95.9616 67.8581 97.1058 67.8581C101.114 67.8581 105.001 66.9393 108.503 65.2542V70.7359L108.499 70.7394ZM115.139 71.0133C113.027 70.7082 111.342 70.4863 110.396 70.3649V64.2833C110.396 64.2833 110.396 64.2625 110.396 64.2486C112.362 63.0975 114.182 61.6932 115.798 60.0636C115.344 62.7716 114.9 66.7139 115.139 71.0098V71.0133ZM116.672 56.156C111.478 63.1079 102.813 66.9288 93.902 65.7534C85.1332 64.5954 77.6578 58.7669 74.3916 50.539C74.1974 50.0536 73.6462 49.8144 73.1608 50.0085C72.6754 50.2027 72.4362 50.754 72.6304 51.2394C72.7066 51.4336 72.7898 51.6208 72.8696 51.8115C72.0721 52.0577 71.2433 52.1305 70.4042 52.0196C67.2317 51.6 64.9919 48.6806 65.4114 45.508C65.6298 43.8437 66.5175 42.4464 67.7692 41.5449C67.8594 41.5033 67.9391 41.4478 68.0085 41.3819C69.0764 40.692 70.3836 40.3522 71.7566 40.4943C72.2316 40.5429 72.6719 40.2274 72.7794 39.7593C72.8071 39.6379 75.5429 28.0295 85.3795 22.5685C86.1597 23.8792 87.9904 26.3999 91.6206 28.8339C94.5748 30.8137 98.1287 32.3359 102.189 33.3622C107.064 34.5931 112.688 35.1097 118.912 34.8947L121.637 39.9985C121.817 40.3383 122.188 40.5325 122.569 40.4943C125.714 40.1684 128.502 42.3701 128.918 45.508C129.338 48.6806 127.098 51.6 123.925 52.0196C123.048 52.134 122.181 52.0542 121.346 51.7769C121.373 51.7075 121.405 51.6416 121.432 51.5723C121.63 51.0868 121.401 50.5356 120.916 50.3345C120.43 50.1368 119.879 50.3657 119.678 50.8511C118.908 52.7234 117.92 54.4605 116.758 56.0347C116.727 56.0728 116.696 56.111 116.672 56.156ZM117.039 71.2907C117.043 71.2421 117.046 71.1901 117.043 71.1416C116.623 64.3007 118.072 58.1705 118.346 57.0748C119.168 55.9549 119.903 54.7587 120.545 53.4966C120.586 53.5174 120.628 53.5382 120.673 53.5521C121.477 53.826 122.306 53.9647 123.145 53.9647C123.485 53.9647 123.825 53.9404 124.168 53.8954C126.207 53.6249 128.016 52.5813 129.268 50.9482C130.52 49.3151 131.061 47.2971 130.79 45.2584C130.562 43.5143 129.757 41.9333 128.505 40.7267C128.63 40.588 128.72 40.4111 128.745 40.21C129.605 33.5494 128.651 26.9096 126.065 21.511C123.776 16.7366 120.271 12.9746 115.819 10.4573C117.802 9.46915 121.918 8.19665 127.399 10.6168C133.044 13.1063 135.281 19.552 136.161 24.5206C137.274 30.786 137 38.7711 135.395 47.0059C134.216 53.0528 133.273 56.7767 132.517 59.7724C131.369 64.318 130.655 67.1438 130.197 73.6068C125.863 72.6845 120.971 71.8801 117.036 71.2907H117.039ZM142.527 92.7878C141.081 92.819 139.954 92.4202 139.088 91.5742C137.739 90.2567 137.392 88.1832 137.305 87.2505C138.176 86.9801 140.658 87.0044 143.058 87.3268C143.574 87.3962 144.053 87.0321 144.122 86.5155C144.191 85.9954 143.827 85.5204 143.311 85.451C143.248 85.4441 141.747 85.2395 140.114 85.1875C138.682 85.139 137.628 85.2118 136.872 85.4163C136.446 84.6431 135.322 82.2819 136.099 80.0525C136.258 79.5983 137.43 79.1059 140.221 79.2134C142.375 79.2966 144.458 79.6988 144.479 79.7023C144.992 79.8028 145.492 79.4665 145.592 78.9534C145.693 78.4402 145.356 77.9409 144.843 77.8404C144.753 77.823 142.61 77.4069 140.315 77.3203C138.776 77.2613 137.531 77.3619 136.577 77.6254C136.57 77.6011 136.563 77.5769 136.556 77.5526C136.546 77.5214 135.499 74.536 137.125 72.5458C138.231 71.1936 142.919 71.8004 145.897 72.6637C146.4 72.8094 146.927 72.5216 147.073 72.0188C147.218 71.5161 146.931 70.9925 146.428 70.8434C146.345 70.8191 144.386 70.2539 142.139 69.9904C141.001 69.8552 140 69.8275 139.129 69.8969C139.369 68.7353 139.885 67.4975 140.568 66.4712C141.362 65.275 143.328 64.1342 148.165 65.5003C151.639 66.485 154.898 67.8581 157.593 69.4773C158.04 69.7477 158.622 69.6021 158.893 69.1549C159.163 68.7076 159.018 68.1251 158.57 67.8546C157.457 67.1854 156.251 66.5544 154.982 65.9753C153.768 61.3119 154.032 58.0977 154.468 56.2184C154.819 54.724 156.289 53.7497 157.821 54.0063C159.811 54.3392 160.089 55.8301 160.38 58.2399C160.422 58.5797 160.463 58.9264 160.515 59.2696C160.897 61.8424 161.715 64.2972 162.946 66.5717C164.371 69.2068 165.591 72.5042 166.053 75.8848C166.004 76.0062 165.98 76.1414 165.987 76.2835C165.997 76.4639 166.059 76.6303 166.157 76.769C166.427 79.574 166.146 82.4033 164.999 84.931C163.424 88.4017 161.465 91.2345 159.333 93.1241C157.232 94.9861 155.006 95.8771 152.894 95.7003C147.51 95.253 143.044 92.9196 142.999 92.8988C142.856 92.8225 142.697 92.7843 142.534 92.7878H142.527ZM148.175 119.645C150.939 128.352 153.986 137.259 155.45 141.42C155.588 141.808 155.952 142.054 156.344 142.054C156.448 142.054 156.556 142.037 156.66 141.999C157.152 141.825 157.412 141.285 157.239 140.792C155.661 136.302 152.208 126.209 149.281 116.858C143.876 99.5698 143.99 96.7127 144.153 96.2516C144.247 96.0366 144.351 95.8251 144.462 95.6171C146.404 96.373 149.375 97.3091 152.728 97.5865C152.96 97.6073 153.189 97.6142 153.421 97.6142C158.379 97.6142 163.303 93.2281 166.715 85.7111C167.921 83.0517 168.275 80.1114 168.074 77.1954C168.559 77.2405 169.107 77.348 169.614 77.563C169.957 77.7502 172.072 79.6503 180.14 98.6302C184.557 109.025 188.985 120.436 190.192 124.181C193.649 134.884 191.821 140.459 190.147 143.726C188.302 147.325 185.591 150.4 182.307 152.619C178.968 154.876 175.113 156.187 171.16 156.409C162.464 156.898 153.196 154.093 146.362 148.906L148.179 119.645H148.175Z" fill="black"/>
<path d="M73.7189 46.0767C71.3958 44.8388 68.882 44.8354 68.778 44.8354C68.2544 44.8354 67.8315 45.2653 67.835 45.7889C67.835 46.309 68.2615 46.732 68.7815 46.732H68.7849C68.7849 46.732 70.9207 46.732 72.8243 47.7479C72.9664 47.8242 73.1191 47.8588 73.2682 47.8588C73.608 47.8588 73.9339 47.6786 74.1038 47.3561C74.35 46.895 74.1766 46.3194 73.7155 46.0732L73.7189 46.0767Z" fill="black"/>
<path d="M121.054 47.8623C121.203 47.8623 121.356 47.8276 121.498 47.7513C123.384 46.7458 125.513 46.7354 125.541 46.7354C126.064 46.7354 126.487 46.3159 126.491 45.7923C126.491 45.2687 126.071 44.8423 125.547 44.8388C125.44 44.8388 122.926 44.8388 120.607 46.0801C120.145 46.3263 119.972 46.9018 120.218 47.363C120.388 47.6819 120.718 47.8657 121.054 47.8657V47.8623Z" fill="black"/>
<path d="M95.5109 45.3554C95.7328 45.3554 95.9548 45.2757 96.1351 45.1162C96.3536 44.9289 97.1302 44.3742 97.9346 45.0642C98.3334 45.404 98.9296 45.3589 99.2694 44.9636C99.6092 44.5649 99.5643 43.9685 99.169 43.6287C97.477 42.1759 95.6254 43.0393 94.8869 43.6946C94.4951 44.0413 94.4569 44.6446 94.8036 45.0364C94.9908 45.2479 95.251 45.3554 95.5145 45.3554H95.5109Z" fill="black"/>
<path d="M103.825 46.1876L90.2269 46.2258C89.7068 46.2258 89.2872 46.6453 89.2837 47.1654C89.2837 47.3595 89.2663 51.9502 92.002 54.7032C93.3195 56.0312 95.0291 56.7004 97.0886 56.7004H97.1162C99.3942 56.6934 101.222 55.9584 102.55 54.5126C105.129 51.7041 104.793 47.2451 104.779 47.0579C104.737 46.5656 104.328 46.1876 103.836 46.1876H103.825ZM101.138 53.2331C100.185 54.2698 98.8256 54.7969 97.1023 54.8038H97.0817C95.5283 54.8038 94.3079 54.3357 93.3474 53.3718C91.8218 51.8427 91.3676 49.4364 91.2323 48.1189L102.889 48.0842C102.848 49.3428 102.563 51.6902 101.142 53.2366L101.138 53.2331Z" fill="black"/>
<path d="M90.0669 41.5761C90.3928 41.9853 90.9891 42.0512 91.3983 41.7218C91.8074 41.3959 91.8732 40.7995 91.5438 40.3903C90.8989 39.5859 89.8379 39.1213 88.6278 39.1317C87.4073 39.1317 86.2667 39.6206 85.6495 40.3973C85.3236 40.8064 85.3929 41.4028 85.802 41.7287C85.9754 41.8674 86.1835 41.9333 86.3915 41.9333C86.6689 41.9333 86.9462 41.8119 87.1334 41.5761C87.39 41.2537 88.0073 41.0283 88.6314 41.0283C89.2485 41.0283 89.7859 41.2329 90.0633 41.5796L90.0669 41.5761Z" fill="black"/>
<path d="M87.4102 49.0104C88.4163 46.5813 87.2628 43.7965 84.8338 42.7904C82.4047 41.7842 79.6199 42.9377 78.6138 45.3668C77.6076 47.7958 78.7611 50.5806 81.1902 51.5867C83.6192 52.5929 86.404 51.4394 87.4102 49.0104Z" fill="white"/>
<path d="M115.967 46.9504C116.099 49.5752 114.078 51.8116 111.453 51.9433C108.828 52.0751 106.592 50.0536 106.46 47.4289C106.328 44.8042 108.35 42.5678 110.975 42.436C113.599 42.3043 115.836 44.3257 115.967 46.9504Z" fill="white"/>
<path d="M40.6099 25.9387L40.7833 26.6114C41.6466 29.9746 43.772 32.6964 46.5563 34.0209C43.7686 35.3454 41.6466 38.0672 40.7833 41.4305L40.6099 42.1032L40.4366 41.4305C39.5732 38.0672 37.4478 35.3454 34.6636 34.0209C37.4513 32.6964 39.5732 29.9746 40.4366 26.6114L40.6099 25.9387Z" fill="#55C3E9"/>
<path d="M168.344 25.9387L168.517 26.6114C169.381 29.9746 171.506 32.6964 174.29 34.0209C171.502 35.3454 169.381 38.0672 168.517 41.4305L168.344 42.1032L168.17 41.4305C167.307 38.0672 165.182 35.3454 162.397 34.0209C165.185 32.6964 167.307 29.9746 168.17 26.6114L168.344 25.9387Z" fill="#55C3E9"/>
<path d="M151.684 4.00818C150.765 6.08854 149.361 7.82218 147.621 9.02879C149.361 10.2354 150.765 11.969 151.684 14.0494C152.603 11.969 154.007 10.2354 155.748 9.02879C154.007 7.82218 152.607 6.08854 151.684 4.00818Z" fill="#55C3E9"/>
<path d="M158.037 8.17239C155.492 6.96231 153.571 4.49012 152.773 1.38344L152.6 0.710808C152.492 0.291268 152.115 0 151.681 0C151.248 0 150.87 0.291268 150.762 0.710808L150.589 1.38344C149.791 4.49012 147.871 6.96231 145.326 8.17239C144.996 8.32842 144.785 8.66127 144.785 9.0288C144.785 9.39633 144.996 9.72918 145.326 9.88521C147.871 11.0953 149.791 13.5675 150.589 16.6742L150.762 17.3468C150.87 17.7663 151.248 18.0576 151.681 18.0576C152.115 18.0576 152.492 17.7663 152.6 17.3468L152.773 16.6742C153.571 13.5675 155.492 11.0953 158.037 9.88521C158.366 9.72918 158.578 9.39633 158.578 9.0288C158.578 8.66127 158.366 8.32842 158.037 8.17239ZM151.685 14.0494C150.766 11.969 149.362 10.2354 147.621 9.0288C149.362 7.82219 150.766 6.08856 151.685 4.00819C152.604 6.08856 154.008 7.82219 155.748 9.0288C154.008 10.2354 152.604 11.969 151.685 14.0494Z" fill="#55C3E9"/>
</svg>
