<svg width="211" height="164" viewBox="0 0 211 164" fill="none" xmlns="http://www.w3.org/2000/svg">
<path d="M127.496 44.9105C132.034 38.2864 133.404 29.4258 131.164 21.2027C129.102 13.6274 124.363 7.76688 117.82 4.69857C110.364 1.2041 101.633 1.56211 95.623 2.47578C89.0534 3.47469 84.202 5.34294 84.1543 5.36339C84.0452 5.4043 83.9293 5.42473 83.8134 5.42473C83.7725 5.42473 81.4508 5.43499 78.8394 6.43731C75.4131 7.75327 73.1118 10.092 71.997 13.3853C70.5719 17.5957 72.6072 22.6618 74.0016 25.3926C74.7482 22.7539 76.0301 19.5288 78.2291 16.44C79.978 13.9819 81.4815 12.7716 81.5463 12.7205C81.7474 12.5603 82.0031 12.4921 82.2554 12.5296C82.5077 12.5671 82.7327 12.7035 82.8792 12.9149C87.3147 19.2288 95.49 21.9732 101.569 23.1664C108.247 24.4755 113.934 24.2471 113.992 24.2471C114.466 24.2267 114.882 24.571 114.947 25.0415L115.485 28.8019C116.106 28.4746 116.774 28.2359 117.466 28.0961C119.464 27.6904 121.56 28.1439 123.214 29.3303C124.895 30.5371 125.962 32.3339 126.221 34.3964C126.667 37.942 124.417 41.3683 120.984 42.3638C120.459 42.5172 119.924 42.6093 119.389 42.6434L120.118 52.5301C122.89 50.5187 125.488 47.839 127.493 44.9139L127.496 44.9105Z" fill="black"/>
<path d="M155.155 91.3681C155.663 91.4056 156.045 91.8522 156.007 92.3602L155.23 102.564C156.481 97.0581 157.654 92.2204 158.697 88.2657C160.845 80.1347 161.977 77.5505 162.604 76.613C161.019 74.8743 152.489 65.8466 143.482 62.5737C141.385 61.8135 133.564 59.4713 120.514 61.1214C120.486 61.1589 120.456 61.193 120.422 61.2271C116.344 65.0727 111.22 67.0637 105.469 67.0637C104.487 67.0637 103.485 67.0057 102.469 66.8898C97.249 66.2898 93.4819 64.3806 93.3217 64.3022C93.2432 64.2613 93.1716 64.2101 93.1068 64.1488C81.0518 60.0202 68.5195 56.0621 59.2089 56.7303C51.4392 57.2894 44.7639 60.5077 37.5602 67.1694C34.1646 70.3093 26.7632 78.4607 19.1469 87.4543C11.1489 96.8979 5.45209 104.252 4.27249 106.652C1.67806 111.933 1.13257 117.571 2.80992 121.734C4.78727 126.637 10.9409 133.834 20.6095 142.551C28.2769 149.461 36.9193 156.164 41.7058 159.464C43.1513 160.463 44.6242 160.296 46.6254 158.912C46.6799 158.874 46.7345 158.844 46.7924 158.82C44.706 155.465 44.8219 151.875 45.1628 149.1C45.7628 144.235 46.9152 140.396 48.6812 137.359C50.4778 134.273 52.9222 132.061 55.9701 130.755C55.9769 130.319 55.8576 129.436 55.053 128.096C54.2928 127.076 43.1309 116.631 36.4556 110.385L34.2703 108.339C33.8987 107.992 33.8782 107.405 34.226 107.03C34.5737 106.659 35.1601 106.638 35.5351 106.986L37.7204 109.031C39.8989 111.07 41.8797 112.925 43.6695 114.602C44.7094 113.317 54.7427 100.914 60.893 93.3728C61.2169 92.9773 61.7999 92.9193 62.1953 93.2398C62.5908 93.5637 62.6521 94.1466 62.3283 94.5421C59.3691 98.1695 55.5098 102.925 52.1858 107.027L55.203 125.58C56.0383 126.415 56.5087 126.923 56.628 127.121C57.3713 128.355 57.6849 129.35 57.7872 130.104C57.9713 130.049 58.1554 129.995 58.3429 129.947C58.5406 129.896 58.7315 129.858 58.9156 129.821C62.243 129.156 71.0798 129.18 74.4379 130.953C76.1016 131.832 76.971 133.527 76.7085 135.375C76.5653 136.38 76.1186 137.277 75.4743 137.952C75.7641 138.061 76.0266 138.177 76.2618 138.3C78.546 139.507 79.1222 142.023 78.696 143.85C78.3448 145.35 77.346 146.41 76.0743 146.707C76.9198 147.593 77.4414 148.681 77.5437 149.84C77.7346 151.991 76.5107 154.023 74.6936 154.565C74.1515 154.729 73.6129 154.77 73.0981 154.77C72.8321 154.77 72.5765 154.759 72.3276 154.746C72.6617 155.397 72.8424 156.178 72.8424 157.064C72.8424 159.031 72.6071 160.869 70.432 161.878H148.868L154.166 92.217C154.204 91.7091 154.65 91.3272 155.158 91.3647L155.155 91.3681Z" fill="#1CAB78"/>
<path d="M55.4962 161.861C56.3042 161.806 57.0951 161.605 57.8451 161.268C57.9031 161.24 58.0974 161.114 58.2405 161.026C59.0451 160.514 59.7406 160.071 60.3952 160.323C60.4123 160.33 62.5669 161.104 66.9273 160.784C70.9843 160.487 70.9843 159.127 70.9843 157.071C70.9843 156.287 70.7729 154.92 69.3649 154.609C69.2695 154.589 69.1808 154.552 69.099 154.507C67.4762 154.354 65.4136 154.204 63.0169 154.327C62.5089 154.354 62.0726 153.962 62.0453 153.45C62.018 152.939 62.41 152.506 62.9214 152.479C65.8704 152.329 68.4001 152.578 70.0774 152.745C70.7592 152.813 71.3457 152.871 71.7446 152.881C71.9389 152.884 72.1366 152.895 72.3344 152.905C72.9889 152.935 73.6094 152.966 74.1549 152.803C75.0106 152.547 75.8186 151.435 75.6925 150.014C75.5595 148.507 74.3628 147.603 73.8549 147.286C72.7332 146.584 70.0263 146.281 68.816 146.148C67.5103 146.045 65.9216 145.981 63.9101 146.001C63.3954 146.008 62.9794 145.595 62.976 145.084C62.9726 144.573 63.3817 144.153 63.8931 144.15C68.2194 144.106 70.674 144.45 72.4673 144.699C73.5719 144.852 74.4446 144.975 75.3685 144.951C76.4561 144.924 76.8073 143.785 76.8891 143.437C77.1619 142.282 76.8073 140.693 75.3924 139.946C73.3026 138.842 67.4489 138.344 63.9613 138.344C63.4499 138.344 63.0374 137.928 63.0374 137.42C63.0374 136.912 63.4533 136.496 63.9613 136.496C66.4364 136.496 70.1934 136.731 73.1014 137.321C74.0015 137.076 74.7242 136.193 74.8742 135.129C74.9458 134.614 74.9662 133.339 73.5719 132.603C72.3139 131.938 69.7297 131.474 66.4807 131.331C63.7704 131.212 60.8077 131.341 59.277 131.648C59.1065 131.682 58.9463 131.713 58.7963 131.754C52.1074 133.469 48.2481 139.22 46.9969 149.339C46.5332 153.096 46.997 155.789 48.497 158.07C50.188 160.637 52.8029 162.059 55.4962 161.875V161.861Z" fill="white"/>
<path d="M168.349 67.7285C168.359 70.6025 168.516 72.9446 168.85 75.0993L168.867 75.2152C169.088 76.6607 169.341 78.2972 170.155 79.3404C171.693 81.3143 175.409 84.3179 179.94 86.2543C186.308 88.9749 190.239 87.9725 192.411 86.6532C201.18 81.3314 208.458 66.6853 208.533 66.5387C208.55 66.5046 208.571 66.4705 208.591 66.4364C209.293 65.3728 209.051 63.9341 208.039 63.1602C207.016 62.3795 205.489 62.5772 204.637 63.6033C204.63 63.6136 204.619 63.6238 204.613 63.6306L197.968 71.0116C197.627 71.39 197.041 71.4207 196.662 71.0798C196.284 70.7389 196.253 70.1525 196.594 69.774L203.225 62.4067C203.338 62.2737 203.457 62.1476 203.583 62.0283L205.189 60.0646C205.629 59.4713 205.796 58.7179 205.652 57.9918C205.506 57.2622 205.056 56.6281 204.411 56.2496C203.348 55.6258 201.977 55.8337 201.149 56.7474L192.469 66.3103C192.285 66.5114 192.036 66.6137 191.784 66.6137C191.562 66.6137 191.34 66.5353 191.163 66.3751C190.785 66.0307 190.758 65.4478 191.102 65.0693L197.982 57.4906L199.386 55.9257C199.836 55.4212 200.048 54.7496 199.966 54.078C199.881 53.4063 199.512 52.8063 198.95 52.4313C197.992 51.7903 196.73 51.9369 195.946 52.7824L186.506 62.9386C186.325 63.1363 186.077 63.2352 185.828 63.2352C185.603 63.2352 185.378 63.1533 185.197 62.9863C184.822 62.6386 184.802 62.0521 185.149 61.6805L191.02 55.3633C191.02 55.3633 191.034 55.3428 191.04 55.3359L191.327 54.995C191.705 54.5484 191.862 53.8938 191.76 53.2018C191.606 52.1892 191.115 51.5824 190.25 51.3506C188.681 50.9312 187.191 52.2983 185.94 53.6893C185.364 54.3302 184.781 54.9882 184.208 55.6428C181.767 58.4281 179.405 61.1794 177.308 64.1693C177.325 64.2784 177.342 64.3875 177.359 64.4966C177.577 65.9216 177.707 67.3024 177.751 68.6013C177.768 69.1127 177.369 69.5388 176.858 69.5559C176.35 69.5729 175.921 69.174 175.903 68.6626C175.863 67.4353 175.736 66.1296 175.532 64.7761C175.205 62.6386 174.789 60.4328 173.612 58.9702C173.254 58.5236 172.729 58.2099 172.174 58.1111C171.103 57.9167 170.108 58.5543 169.535 59.2157C168.737 60.1327 168.55 61.476 168.427 62.7749C168.311 64.0057 168.328 65.2296 168.345 66.5251C168.352 66.9308 168.355 67.3365 168.359 67.7387L168.349 67.7285ZM180.687 77.9153C185.899 73.5549 193.652 74.339 193.979 74.3765C194.487 74.4311 194.855 74.8879 194.801 75.3959C194.746 75.9038 194.289 76.2686 193.781 76.2175C193.696 76.2073 186.469 75.4914 181.873 79.337C181.699 79.4802 181.488 79.5518 181.28 79.5518C181.014 79.5518 180.751 79.4393 180.571 79.2211C180.243 78.829 180.295 78.246 180.687 77.9187V77.9153Z" fill="white"/>
<path d="M196.618 113.463C200.385 90.8022 199.922 87.318 199.68 86.7896C199.069 85.8793 198.118 85.2725 197.59 84.9793C196.246 86.2271 194.835 87.3419 193.373 88.2283C191.47 89.384 189.394 89.8238 187.335 89.8238C184.406 89.8238 181.512 88.934 179.214 87.9521C174.356 85.8759 170.432 82.7019 168.696 80.4757C167.773 79.2893 167.408 77.721 167.169 76.313C166.825 76.296 165.744 76.3607 164.237 77.5267C164.067 77.6801 163.054 78.9893 160.436 88.9272C158.738 95.3706 156.703 104.143 154.548 114.302C154.511 114.483 154.419 114.636 154.299 114.759L151.238 155.012C155.99 158.738 163.702 160.811 168.696 160.872C185.456 161.077 189.523 151.023 191.122 143.437C191.828 140.09 194.412 126.712 196.615 113.467L196.618 113.463Z" fill="#1CAB78"/>
<path d="M118.475 40.7888C119.147 40.8433 119.818 40.7751 120.476 40.5842C123.043 39.841 124.728 37.2807 124.39 34.6283C124.196 33.0839 123.395 31.7372 122.14 30.8338C120.899 29.944 119.331 29.6065 117.837 29.9099C116.931 30.094 116.082 30.5031 115.379 31.0963C115.124 31.3145 114.769 31.3724 114.452 31.2531C114.138 31.1338 113.913 30.8542 113.866 30.5201L113.235 26.1188C111.38 26.1393 106.689 26.0575 101.255 24.9938C92.5274 23.2892 85.8998 19.7845 81.9963 14.8275C81.4371 15.3866 80.5985 16.3036 79.695 17.5821C78.2188 19.672 76.2517 23.1869 75.263 28.0689C75.2426 28.1746 75.2016 28.27 75.1505 28.3587C75.1471 28.8496 75.1402 29.3235 75.1402 29.7326C75.1368 30.3156 75.1334 30.7622 75.1266 30.9293C75.1266 31.069 75.1198 31.2054 75.1198 31.3452C75.0209 41.5286 77.3086 48.8414 81.9178 53.0756C86.0532 56.8735 92.0227 58.3497 100.167 57.5793C100.675 57.5315 101.129 57.9031 101.177 58.4145C101.224 58.9225 100.853 59.3759 100.341 59.4236C98.8889 59.56 97.498 59.6282 96.1718 59.6282C95.5513 59.6282 94.9411 59.6145 94.3479 59.5839L94.624 62.8704C95.7456 63.3715 98.8446 64.6227 102.741 65.0625C109.062 65.775 114.473 64.1318 118.833 60.1839L117.48 41.7877C117.459 41.5183 117.558 41.2524 117.752 41.0615C117.943 40.8706 118.209 40.7751 118.478 40.7956L118.475 40.7888ZM85.3918 33.8817C85.3202 34.3385 84.9282 34.6658 84.4782 34.6658C84.4305 34.6658 84.3827 34.6623 84.3349 34.6555C82.9985 34.4476 81.6383 34.2703 80.2882 34.1305C79.7802 34.0794 79.412 33.6226 79.4631 33.1146C79.5177 32.6066 79.9711 32.2384 80.4791 32.2895C81.8632 32.4327 83.2542 32.6134 84.6213 32.8282C85.1259 32.9066 85.4703 33.3805 85.3918 33.8851V33.8817ZM89.2375 36.8818C89.0534 37.1068 88.7874 37.2261 88.5181 37.2261C88.3135 37.2261 88.109 37.1579 87.9385 37.0216C87.5396 36.7011 87.4783 36.1181 87.8022 35.7192C89.1352 34.0691 91.0136 34.5567 91.8216 35.0442C92.258 35.3101 92.3978 35.876 92.1353 36.3158C91.8728 36.7522 91.3069 36.892 90.8705 36.6329C90.6387 36.4999 89.8477 36.1317 89.2409 36.8818H89.2375ZM97.3139 37.9011C96.0559 40.2603 93.4922 41.7808 90.8295 41.7808C90.683 41.7808 90.5363 41.7775 90.3897 41.7672C89.8784 41.7365 89.4931 41.2968 89.5238 40.7854C89.5579 40.274 89.9943 39.8887 90.5057 39.9194C92.5751 40.0524 94.7024 38.8626 95.6775 37.0318C95.9161 36.5818 96.4786 36.4113 96.9286 36.65C97.3787 36.8886 97.5492 37.4511 97.3105 37.9011H97.3139ZM96.8502 32.6134C95.674 32.7293 94.624 31.8736 94.5081 30.6974C94.3922 29.5212 95.2479 28.4712 96.4241 28.3553C97.6003 28.2394 98.6503 29.0951 98.7663 30.2713C98.8822 31.4474 98.0264 32.4975 96.8502 32.6134ZM117.21 36.5238C117.053 36.6261 116.879 36.6738 116.706 36.6738C116.406 36.6738 116.109 36.5272 115.932 36.2545C115.652 35.8283 115.771 35.2522 116.198 34.9726C118.274 33.6123 120.636 33.3975 120.739 33.3873C121.247 33.343 121.697 33.7214 121.738 34.2294C121.782 34.7374 121.404 35.184 120.896 35.2283C120.858 35.2283 118.881 35.4226 117.21 36.517V36.5238Z" fill="white"/>
<path d="M74.2058 39.7353C74.3524 42.2036 76.4695 44.0855 78.9378 43.9389C81.4061 43.7923 83.288 41.6752 83.1414 39.2069C82.9948 36.7386 80.8777 34.8567 78.4094 35.0033C75.9411 35.1499 74.0592 37.267 74.2058 39.7353Z" fill="white"/>
<path d="M105.845 39.3039C108.315 39.1818 110.217 37.0812 110.095 34.612C109.973 32.1428 107.873 30.2401 105.403 30.3621C102.934 30.4842 101.032 32.5848 101.154 35.054C101.276 37.5232 103.376 39.4259 105.845 39.3039Z" fill="white"/>
<path d="M209.161 61.6874C208.482 61.1692 207.695 60.8862 206.897 60.8282C207.476 59.8736 207.684 58.7315 207.463 57.6269C207.214 56.3792 206.443 55.2985 205.346 54.6541C204.255 54.0132 202.976 53.8904 201.817 54.228C201.814 54.0984 201.804 53.9723 201.786 53.8427C201.636 52.6392 200.972 51.562 199.963 50.8869C198.248 49.738 195.981 50.0039 194.573 51.5142L193.526 52.6392C193.202 51.0471 192.213 49.9528 190.717 49.5505C187.839 48.7766 185.535 51.3437 184.553 52.4415C183.973 53.0893 183.383 53.7507 182.804 54.4121C180.799 56.7031 178.709 59.1304 176.81 61.6771C176.452 60.2521 175.931 58.902 175.041 57.7974C174.407 57.0099 173.476 56.4542 172.488 56.2735C170.953 55.9973 169.279 56.6519 168.124 57.9849C166.968 59.3145 166.716 61.0567 166.572 62.584C166.446 63.9136 166.463 65.2466 166.48 66.5353C166.487 66.9342 166.491 67.333 166.494 67.7319C166.501 70.3025 166.627 72.4673 166.886 74.4652C166.238 74.4958 165.236 74.6936 164.022 75.4266C162.475 73.7083 153.733 64.3295 144.109 60.8316C135.818 57.8179 124.67 58.7554 120.613 59.2396L120.272 54.62C120.36 54.5927 120.449 54.5518 120.531 54.4973C123.722 52.3188 126.739 49.2846 129.02 45.9537C133.861 38.8898 135.33 29.4531 132.947 20.7118C131.894 16.8423 130.165 13.3615 127.81 10.3647C125.304 7.1771 122.205 4.70543 118.605 3.01786C110.716 -0.681156 101.576 -0.312983 95.2991 0.648421C89.1284 1.59278 84.5497 3.23265 83.6395 3.57357C82.9951 3.59062 80.7621 3.72358 78.2359 4.68157C74.2948 6.17822 71.5299 8.98063 70.2412 12.7887C68.1821 18.881 72.164 26.0779 73.2959 27.9394C73.2891 28.5667 73.2857 29.1906 73.2788 29.7054C73.2754 30.2747 73.272 30.7111 73.2686 30.8713C73.2652 31.0179 73.2618 31.1645 73.2618 31.3145C73.1595 42.0434 75.6448 49.8198 80.6564 54.4257C83.7042 57.2247 87.6044 58.8815 92.466 59.4202L92.6876 62.0419C80.7655 57.9815 68.4582 54.2007 59.0692 54.8757C50.8529 55.4655 43.8299 58.8373 36.2955 65.8023C28.8258 72.7094 5.34983 100.239 2.60539 105.827C-0.217452 111.571 -0.783369 117.776 1.0883 122.419C3.71682 128.941 12.4785 137.71 19.3652 143.918C27.0939 150.883 35.8148 157.647 40.6491 160.981C41.3616 161.472 42.057 161.752 42.7286 161.878C43.0253 161.932 43.3151 161.96 43.598 161.96C43.9014 161.96 44.1981 161.929 44.4879 161.878C45.722 161.656 46.8095 161.022 47.6686 160.429C47.7368 160.381 47.7948 160.327 47.8459 160.265C48.3743 160.879 48.9574 161.418 49.5812 161.878C51.1938 163.071 53.0723 163.726 55.019 163.726C55.2167 163.726 55.4144 163.719 55.6122 163.705C56.6417 163.634 57.6441 163.381 58.5986 162.952C58.7691 162.877 58.9703 162.747 59.226 162.584C59.4135 162.464 59.7714 162.236 59.9828 162.134C60.726 162.359 63.0409 162.918 67.0536 162.625C68.5093 162.519 69.5969 162.256 70.4151 161.878C72.5902 160.872 72.8254 159.035 72.8254 157.064C72.8254 156.178 72.6447 155.397 72.3106 154.746C72.5595 154.756 72.8151 154.77 73.0811 154.77C73.5959 154.77 74.1346 154.729 74.6767 154.565C76.4904 154.023 77.7176 151.991 77.5267 149.84C77.4244 148.681 76.9028 147.593 76.0573 146.707C77.3324 146.41 78.3279 145.35 78.6791 143.85C79.1087 142.023 78.529 139.507 76.2449 138.3C76.013 138.177 75.7471 138.061 75.4573 137.952C76.1016 137.277 76.5483 136.38 76.6915 135.375C76.954 133.527 76.0847 131.832 74.421 130.953C71.0629 129.18 62.2261 129.156 58.8987 129.821C58.7146 129.858 58.5236 129.896 58.3259 129.947C58.1384 129.995 57.9543 130.049 57.7702 130.104C57.6679 129.35 57.3577 128.355 56.611 127.121C56.4917 126.923 56.0213 126.415 55.186 125.58L52.1689 107.027C55.4929 102.925 59.3521 98.173 62.3114 94.5421C62.6352 94.1467 62.5738 93.5637 62.1783 93.2398C61.7829 92.916 61.1999 92.9773 60.876 93.3728C54.7257 100.914 44.6924 113.317 43.6526 114.602C41.8628 112.925 39.8819 111.07 37.7034 109.031L35.5182 106.986C35.1465 106.638 34.5601 106.655 34.209 107.03C33.8612 107.402 33.8783 107.988 34.2533 108.339L36.4386 110.385C43.1173 116.631 54.2792 127.076 55.036 128.096C55.8406 129.436 55.9599 130.315 55.9531 130.755C52.9052 132.061 50.4608 134.273 48.6642 137.359C46.8982 140.393 45.7458 144.235 45.1458 149.1C44.8015 151.872 44.6856 155.462 46.7754 158.82C46.7175 158.844 46.6629 158.874 46.6084 158.912C44.6072 160.296 43.1344 160.463 41.6889 159.464C36.9023 156.161 28.2599 149.462 20.5925 142.551C10.9239 133.837 4.77027 126.637 2.79292 121.734C1.11557 117.572 1.66107 111.933 4.25549 106.652C5.43168 104.255 11.1319 96.8979 19.1299 87.4543C26.7462 78.4608 34.1442 70.3093 37.5432 67.1694C44.7469 60.5077 51.4222 57.2894 59.1919 56.7303C68.5025 56.0621 81.0348 60.0202 93.0898 64.1488C93.1546 64.2102 93.2262 64.2613 93.3047 64.3023C93.4615 64.3841 97.2287 66.2898 102.452 66.8899C103.468 67.0058 104.47 67.0637 105.452 67.0637C111.203 67.0637 116.324 65.0727 120.405 61.2271C120.439 61.1964 120.469 61.1589 120.497 61.1214C133.547 59.4713 141.371 61.8135 143.465 62.5737C152.472 65.8466 161.002 74.8743 162.587 76.613C161.96 77.5505 160.828 80.1381 158.68 88.2657C157.637 92.2204 156.461 97.0582 155.213 102.564L155.99 92.3602C156.028 91.8522 155.646 91.4057 155.138 91.3682C154.63 91.3307 154.183 91.7125 154.146 92.2205L148.848 161.881H150.703L151.06 157.187C154.265 159.413 158.353 160.995 162.215 161.881C164.527 162.413 166.753 162.696 168.662 162.72C168.836 162.72 169.01 162.72 169.184 162.72C171.976 162.72 174.54 162.437 176.868 161.878C181.028 160.879 184.437 158.994 187.045 156.236C190.809 152.254 192.203 147.239 192.929 143.816C193.652 140.4 196.277 126.8 198.493 113.426C202.707 88.0135 201.667 86.4486 201.224 85.7804C200.566 84.7917 199.652 84.0826 198.953 83.6394C205.23 77.1789 209.73 68.2808 210.166 67.4012C211.363 65.533 210.927 63.034 209.157 61.6839L209.161 61.6874ZM45.0196 115.874C45.0844 115.792 47.4573 112.863 50.6211 108.956L52.9734 123.405C51.0813 121.584 48.4459 119.089 45.0196 115.874ZM47.0004 149.325C48.2516 139.206 52.1109 133.455 58.7998 131.74C58.9498 131.703 59.1066 131.669 59.2805 131.635C60.8078 131.331 63.7705 131.202 66.4843 131.318C69.7333 131.461 72.3174 131.924 73.5754 132.589C74.9698 133.326 74.9527 134.601 74.8777 135.115C74.7277 136.183 74.005 137.066 73.105 137.308C70.1969 136.718 66.4433 136.483 63.9648 136.483C63.4534 136.483 63.0409 136.898 63.0409 137.406C63.0409 137.914 63.4568 138.33 63.9648 138.33C67.4524 138.33 73.3061 138.828 75.396 139.933C76.8108 140.679 77.162 142.268 76.8927 143.424C76.8108 143.772 76.4596 144.91 75.3721 144.937C74.4482 144.961 73.5754 144.839 72.4708 144.685C70.6775 144.436 68.2229 144.092 63.8966 144.136C63.3852 144.14 62.9761 144.559 62.9795 145.07C62.983 145.582 63.3989 145.994 63.9137 145.987C65.9217 145.967 67.5138 146.035 68.8195 146.134C70.0298 146.267 72.7367 146.57 73.8584 147.273C74.3664 147.59 75.563 148.493 75.696 150C75.8222 151.422 75.0142 152.533 74.1584 152.789C73.613 152.953 72.9925 152.922 72.3379 152.891C72.1401 152.881 71.9424 152.874 71.7481 152.867C71.3526 152.857 70.7628 152.799 70.0809 152.731C68.407 152.564 65.8739 152.315 62.9249 152.465C62.4136 152.492 62.0216 152.925 62.0488 153.437C62.0761 153.948 62.509 154.34 63.0204 154.313C65.4171 154.19 67.4797 154.344 69.1025 154.494C69.1843 154.541 69.273 154.575 69.3684 154.596C70.7765 154.906 70.9878 156.273 70.9878 157.057C70.9878 159.113 70.9878 160.473 66.9308 160.77C62.5704 161.09 60.4158 160.316 60.3987 160.31C59.7442 160.061 59.0487 160.501 58.2441 161.012C58.1009 161.101 57.9066 161.227 57.8486 161.254C57.0986 161.595 56.3077 161.793 55.4997 161.847C52.8064 162.031 50.1915 160.61 48.5005 158.043C46.9971 155.762 46.5334 153.068 47.0004 149.311V149.325ZM117.476 41.7774L118.83 60.1737C114.469 64.1216 109.059 65.7648 102.738 65.0523C98.8412 64.6125 95.7423 63.3647 94.6207 62.8602L94.3445 59.5736C94.9411 59.6043 95.5479 59.618 96.1684 59.618C97.498 59.618 98.8855 59.5498 100.338 59.4134C100.846 59.3657 101.221 58.9156 101.173 58.4043C101.125 57.8963 100.675 57.5247 100.164 57.569C92.0193 58.3395 86.0499 56.8667 81.9144 53.0654C77.3052 48.8311 75.0175 41.5183 75.1164 31.3349C75.1164 31.1952 75.1198 31.0588 75.1232 30.919C75.1266 30.752 75.13 30.3054 75.1368 29.7224C75.1368 29.3133 75.1437 28.8394 75.1471 28.3484C75.1982 28.2598 75.2392 28.1644 75.2596 28.0587C76.2483 23.1766 78.2154 19.6617 79.6916 17.5719C80.5985 16.29 81.4337 15.3729 81.9929 14.8172C85.893 19.7742 92.524 23.2789 101.252 24.9835C106.686 26.0438 111.377 26.1256 113.232 26.1086L113.862 30.5099C113.91 30.844 114.135 31.1236 114.449 31.2429C114.762 31.3622 115.117 31.3009 115.376 31.0861C116.078 30.4929 116.927 30.0838 117.834 29.8997C119.331 29.5962 120.899 29.9337 122.137 30.8236C123.395 31.727 124.192 33.0737 124.387 34.618C124.721 37.2704 123.04 39.8308 120.473 40.574C119.815 40.7649 119.143 40.8331 118.472 40.7785C118.202 40.7581 117.936 40.8536 117.745 41.0445C117.555 41.2354 117.456 41.5013 117.473 41.7706L117.476 41.7774ZM119.396 42.64C119.931 42.6059 120.466 42.5104 120.991 42.3604C124.424 41.3649 126.674 37.9421 126.228 34.3931C125.969 32.3305 124.898 30.5338 123.221 29.3269C121.564 28.1371 119.47 27.6871 117.473 28.0928C116.781 28.2325 116.112 28.4712 115.492 28.7985L114.953 25.0381C114.885 24.5676 114.473 24.2233 113.999 24.2438C113.941 24.2438 108.254 24.4722 101.575 23.163C95.4968 21.9698 87.3214 19.2254 82.886 12.9115C82.7394 12.7035 82.5145 12.5637 82.2622 12.5262C82.0099 12.4887 81.7542 12.5603 81.553 12.7171C81.4883 12.7683 79.9848 13.9785 78.2359 16.4366C76.0369 19.5254 74.755 22.7505 74.0084 25.3893C72.614 22.6585 70.5787 17.5923 72.0038 13.3819C73.1186 10.0886 75.4199 7.74989 78.8461 6.43392C81.4576 5.43161 83.7792 5.42135 83.8202 5.42135C83.9361 5.42135 84.052 5.40092 84.1611 5.36001C84.2088 5.33955 89.0568 3.47471 95.6298 2.47239C101.64 1.55872 110.371 1.20071 117.827 4.69518C124.37 7.76349 129.108 13.624 131.171 21.1993C133.411 29.4224 132.037 38.2864 127.503 44.9071C125.498 47.8322 122.9 50.5119 120.128 52.5233L119.399 42.6366L119.396 42.64ZM199.68 86.7896C199.922 87.318 200.389 90.8022 196.618 113.463C194.416 126.708 191.831 140.086 191.126 143.434C189.527 151.016 185.46 161.073 168.7 160.869C163.705 160.807 155.994 158.738 151.241 155.008L154.303 114.756C154.422 114.633 154.514 114.479 154.552 114.299C156.706 104.143 158.741 95.3672 160.439 88.9237C163.058 78.9824 164.074 77.6767 164.241 77.5233C165.747 76.3573 166.828 76.2959 167.173 76.3096C167.411 77.7176 167.776 79.2892 168.7 80.4722C170.435 82.6985 174.359 85.8725 179.217 87.9487C181.515 88.9306 184.41 89.8204 187.338 89.8204C189.397 89.8204 191.474 89.3806 193.376 88.2248C194.835 87.3384 196.246 86.2236 197.593 84.9759C198.122 85.2656 199.073 85.8759 199.683 86.7861L199.68 86.7896ZM208.595 66.433C208.574 66.4671 208.554 66.4978 208.537 66.5353C208.465 66.6819 201.183 81.3245 192.414 86.6498C190.239 87.9691 186.312 88.9715 179.943 86.2509C175.413 84.3145 171.697 81.3109 170.159 79.337C169.348 78.2971 169.095 76.6573 168.87 75.2118L168.853 75.0959C168.519 72.9412 168.359 70.5991 168.352 67.7251C168.352 67.3194 168.345 66.9137 168.339 66.5114C168.321 65.2159 168.304 63.992 168.42 62.7613C168.543 61.4624 168.731 60.1191 169.528 59.202C170.101 58.5406 171.097 57.9031 172.167 58.0974C172.723 58.1963 173.248 58.5099 173.606 58.9566C174.782 60.4191 175.198 62.6283 175.525 64.7625C175.733 66.116 175.856 67.4217 175.897 68.649C175.914 69.1604 176.343 69.5593 176.851 69.5422C177.363 69.5252 177.762 69.099 177.745 68.5876C177.7 67.2887 177.571 65.908 177.353 64.483C177.335 64.3739 177.318 64.2647 177.301 64.1556C179.401 61.1657 181.764 58.4145 184.202 55.6291C184.774 54.9746 185.357 54.3166 185.934 53.6757C187.185 52.2813 188.671 50.9176 190.243 51.3369C191.105 51.5688 191.6 52.1756 191.753 53.1882C191.859 53.8802 191.699 54.5348 191.32 54.9814L191.034 55.3223C191.034 55.3223 191.02 55.3428 191.013 55.3496L185.143 61.6669C184.795 62.0419 184.815 62.6249 185.19 62.9726C185.368 63.1397 185.596 63.2215 185.821 63.2215C186.07 63.2215 186.315 63.1226 186.5 62.9249L195.94 52.7688C196.724 51.9267 197.989 51.7767 198.943 52.4177C199.506 52.7927 199.877 53.3927 199.959 54.0643C200.044 54.7359 199.833 55.4076 199.38 55.9121L197.975 57.477L191.095 65.0557C190.751 65.4341 190.781 66.0205 191.157 66.3614C191.334 66.5216 191.555 66.6001 191.777 66.6001C192.029 66.6001 192.278 66.4978 192.462 66.2966L201.142 56.7337C201.971 55.8201 203.344 55.6121 204.405 56.236C205.046 56.6144 205.499 57.2485 205.646 57.9781C205.789 58.7009 205.622 59.4577 205.182 60.0509L203.576 62.0146C203.454 62.134 203.334 62.2567 203.218 62.3931L196.587 69.7604C196.246 70.1389 196.277 70.7252 196.656 71.0662C197.034 71.4071 197.62 71.3764 197.961 70.998L204.606 63.617C204.606 63.617 204.623 63.5999 204.63 63.5897C205.482 62.5635 207.006 62.3624 208.032 63.1465C209.045 63.9204 209.29 65.3591 208.584 66.4228L208.595 66.433Z" fill="black"/>
<path d="M193.979 74.3765C193.652 74.3424 185.896 73.5583 180.687 77.9153C180.295 78.2426 180.244 78.8256 180.571 79.2176C180.755 79.4358 181.018 79.5483 181.28 79.5483C181.488 79.5483 181.699 79.4767 181.873 79.3335C186.469 75.4913 193.696 76.2073 193.782 76.2141C194.286 76.2686 194.746 75.9005 194.801 75.3925C194.856 74.8845 194.487 74.4276 193.979 74.3731V74.3765Z" fill="black"/>
<path d="M84.6186 32.8248C83.2515 32.61 81.8605 32.4293 80.4763 32.2861C79.9684 32.235 79.5149 32.6032 79.4604 33.1112C79.4058 33.6191 79.7775 34.076 80.2855 34.1271C81.6355 34.2669 82.9992 34.4442 84.3322 34.6521C84.3799 34.659 84.4277 34.6623 84.4754 34.6623C84.9221 34.6623 85.3175 34.3351 85.3891 33.8782C85.4675 33.3737 85.1232 32.8998 84.6186 32.8213V32.8248Z" fill="black"/>
<path d="M96.9324 36.65C96.4824 36.4113 95.9199 36.5818 95.6813 37.0318C94.7062 38.8626 92.5789 40.0524 90.5095 39.9194C89.9981 39.8853 89.5617 40.274 89.5276 40.7854C89.4969 41.2968 89.8822 41.7332 90.3936 41.7672C90.5401 41.7775 90.6868 41.7809 90.8334 41.7809C93.496 41.7809 96.0597 40.2637 97.3177 37.9011C97.5564 37.4511 97.3859 36.8886 96.9358 36.65H96.9324Z" fill="black"/>
<path d="M96.4241 28.3553C95.2479 28.4712 94.3888 29.5213 94.5081 30.6974C94.6241 31.8736 95.6741 32.7328 96.8502 32.6134C98.0264 32.4975 98.8856 31.4475 98.7663 30.2713C98.6504 29.0951 97.6003 28.236 96.4241 28.3553Z" fill="black"/>
<path d="M121.734 34.2362C121.69 33.7282 121.243 33.3498 120.736 33.3942C120.637 33.401 118.274 33.6158 116.194 34.9795C115.768 35.259 115.649 35.8318 115.929 36.2613C116.106 36.5307 116.402 36.6807 116.702 36.6807C116.876 36.6807 117.054 36.6329 117.207 36.5306C118.874 35.4363 120.855 35.2454 120.892 35.242C121.4 35.1977 121.779 34.751 121.734 34.243V34.2362Z" fill="black"/>
<path d="M90.867 36.6329C91.3034 36.892 91.8659 36.7522 92.1318 36.3158C92.3977 35.8795 92.2579 35.3101 91.8181 35.0442C91.0101 34.5567 89.1351 34.0692 87.7987 35.7192C87.4782 36.1181 87.5395 36.6977 87.935 37.0216C88.1055 37.1614 88.3134 37.2261 88.5146 37.2261C88.7839 37.2261 89.0533 37.1102 89.2339 36.8818C89.8408 36.1318 90.6317 36.5 90.8636 36.6329H90.867Z" fill="black"/>
</svg>
