<svg width="27" height="28" viewBox="0 0 27 28" fill="none" xmlns="http://www.w3.org/2000/svg">
<path d="M0 13.4999C0 6.04413 6.04413 0 13.4999 0C20.9558 0 26.9999 6.04413 26.9999 13.4999V14.5C26.9999 21.9559 20.9558 28 13.4999 28C6.04413 28 0 21.9559 0 14.5V13.4999Z" fill="white"/>
<path d="M21.2636 7.18252C21.2636 7.18252 18.9378 5.20742 15.4801 5.29773C12.0214 5.38706 7.19171 7.33206 6.71475 14.3041C6.71475 14.3041 6.65476 16.6978 7.87765 17.2066C7.87765 17.2066 8.2927 15.0431 9.7265 15.1421C10.6727 15.2072 9.90161 16.3928 9.72166 18.1058C9.6133 19.1302 9.47689 21.4898 10.9455 23.5086C10.9455 23.5086 4.44698 22.2259 4.01259 14.1206C3.57722 6.01532 14.5368 0.0531316 21.2656 7.18252H21.2636Z" fill="#FFD83B"/>
<path d="M8.85083 10.7647C8.85083 10.7647 10.9715 7.35342 14.5338 7.54471C18.096 7.73601 20.7605 10.3287 20.9781 13.739C21.1958 17.1493 19.4824 18.2145 19.4824 18.2145C19.4824 18.2145 19.2647 15.7588 17.443 15.5947C15.6212 15.4305 18.0951 17.0687 17.144 21.2714C17.144 21.2714 22.6093 20.9713 22.9895 14.1488C23.3697 7.32623 13.2016 2.8507 8.85083 10.7647Z" fill="#FFD83B"/>
<path d="M14.4738 14.6964C13.8527 14.2595 13.0294 14.2245 12.3908 14.6353C11.5849 15.1548 10.6445 16.3375 10.6445 19.0331C10.6445 21.7287 11.5675 22.9852 12.3589 23.5649C12.9839 24.0223 13.8266 24.0291 14.4767 23.6096C15.3552 23.0435 16.4852 21.8015 16.4349 19.17C16.3846 16.5424 15.302 15.28 14.4719 14.6964H14.4738Z" fill="#FFD83B"/>
<path d="M15.7026 24.0001C15.7026 24.0001 18.965 23.3728 20.5971 21.6531C20.5971 21.6531 17.9056 23.1271 16.4911 23.0446L15.7026 24.0001Z" fill="#FFD83B"/>
<path d="M9.53019 14.7488C10.0378 14.7488 10.4493 14.3358 10.4493 13.8263C10.4493 13.3168 10.0378 12.9038 9.53019 12.9038C9.02258 12.9038 8.61108 13.3168 8.61108 13.8263C8.61108 14.3358 9.02258 14.7488 9.53019 14.7488Z" fill="#FFD83B"/>
<path d="M13.434 13.5836C14.3605 13.5836 15.1116 12.8298 15.1116 11.8999C15.1116 10.9699 14.3605 10.2161 13.434 10.2161C12.5074 10.2161 11.7563 10.9699 11.7563 11.8999C11.7563 12.8298 12.5074 13.5836 13.434 13.5836Z" fill="#FFD83B"/>
<path d="M17.4983 14.7975C18.0593 14.7975 18.5141 14.341 18.5141 13.7779C18.5141 13.2148 18.0593 12.7583 17.4983 12.7583C16.9372 12.7583 16.4824 13.2148 16.4824 13.7779C16.4824 14.341 16.9372 14.7975 17.4983 14.7975Z" fill="#FFD83B"/>
</svg>
