<svg width="143" height="164" viewBox="0 0 143 164" fill="none" xmlns="http://www.w3.org/2000/svg">
<path d="M123.201 161.292L33.8769 163.573L28.4104 93.7613L123.232 96.0589L123.201 161.292Z" fill="#F07F47"/>
<path d="M40.221 115.367C34.876 115.905 31.492 117.939 31.1241 118.168C30.1731 118.761 29.583 119.705 29.5517 120.688C29.524 121.559 29.9197 122.336 30.6694 122.878C31.9397 123.794 34.8898 123.141 38.6244 122.315L38.8083 122.274C42.9073 120.247 48.7522 117.38 54.9996 114.374C53.705 103.969 45.1564 98.3289 45.0662 98.2734C45.0454 98.2595 45.0245 98.2456 45.0036 98.2317C40.3979 94.7123 31.9084 95.3336 31.8216 95.3371C31.7904 95.3371 31.7627 95.3371 31.7315 95.3371C27.1327 95.2607 21.2046 97.8083 21.097 100.783C21.0727 101.505 21.6071 102.928 23.8041 103.226C26.8063 101.609 31.2559 100.495 34.029 100.356C34.5462 100.328 34.987 100.727 35.0113 101.244C35.0356 101.761 34.6399 102.202 34.1227 102.227C29.5934 102.456 23.8215 104.781 22.6519 106.419C21.8467 107.551 22.1139 108.519 22.4783 109.133C23.0996 110.175 24.3873 110.824 25.55 110.695C25.6576 110.609 25.7652 110.522 25.8832 110.438C27.4207 109.317 32.5505 107.242 37.0937 106.544C37.6039 106.464 38.0829 106.815 38.1628 107.329C38.2426 107.839 37.8921 108.318 37.3784 108.398C32.856 109.092 28.1393 111.112 26.987 111.955C26.0186 112.663 25.4423 113.545 25.366 114.44C25.3 115.225 25.6158 115.985 26.3065 116.696C26.7786 117.182 27.8337 117.592 29.0103 117.505C29.3331 117.158 29.7079 116.845 30.1313 116.582C30.7942 116.169 34.3866 114.076 40.0336 113.507C40.5472 113.455 41.0088 113.829 41.0609 114.347C41.1129 114.86 40.7381 115.322 40.221 115.37V115.367Z" fill="white"/>
<path d="M75.9704 104.618C65.7836 102.785 55.4858 101.168 50.4185 100.529C50.6475 100.779 50.8767 101.043 51.1092 101.317C53.2819 103.892 55.9439 108.037 56.7769 113.524C63.3887 110.359 70.2991 107.117 75.9704 104.618Z" fill="#F07F47"/>
<path d="M105.073 96.9302C102.841 97.3883 99.0128 98.9814 96.4202 100.127C98.7109 100.509 100.852 101.22 102.831 102.261C105.656 103.743 107.648 105.649 108.974 107.27L109.689 97.3154C109.134 97.0586 107.464 96.4408 105.073 96.9336V96.9302Z" fill="white"/>
<path d="M68.9149 67.3557C74.0065 67.3869 78.4526 66.2728 80.6843 64.4263L80.6288 59.3382C78.7615 59.6332 76.7485 59.7894 74.5827 59.8137C74.5445 59.8137 74.5099 59.8137 74.4717 59.8067C74.0066 59.7581 73.6386 59.3659 73.6352 58.887C73.6282 58.3698 74.0447 57.9464 74.5618 57.9394C82.8431 57.8457 88.6983 55.7286 92.4572 51.463C96.6464 46.708 98.1702 39.1035 96.9867 28.8613C96.9693 28.7224 96.9518 28.5836 96.9345 28.4448C96.9136 28.2782 96.8616 27.8339 96.7957 27.2543C96.7471 26.8413 96.695 26.3588 96.636 25.8625C96.5735 25.7792 96.525 25.6855 96.4903 25.5849C94.2065 18.3344 90.0312 14.3673 88.3028 12.972C84.0476 19.7852 76.0405 23.9848 69.9388 26.3345C64.4932 28.4309 59.707 29.4409 57.8606 29.781L57.8882 32.1169C57.8917 32.4639 57.7008 32.7867 57.3954 32.9533C57.0865 33.1199 56.7151 33.0991 56.427 32.9013C55.6565 32.3806 54.7645 32.0544 53.824 31.9676C52.3419 31.8288 50.8947 32.2731 49.7493 33.2206C48.604 34.1681 47.8925 35.5078 47.7537 36.9898C47.4656 40.0476 49.7111 42.7722 52.7758 43.0602C53.2999 43.1088 53.8275 43.0845 54.3412 42.9873C54.6119 42.9353 54.893 43.0082 55.1082 43.1817C55.3234 43.3587 55.4483 43.619 55.4517 43.8967L55.6775 64.0376C58.7317 66.0853 63.6324 67.3175 68.9149 67.3487V67.3557ZM84.7486 31.2804C85.0783 30.8813 85.6685 30.8223 86.0676 31.152C87.0811 31.985 89.5245 31.9676 90.826 30.7633C91.2078 30.4127 91.7977 30.437 92.1482 30.8153C92.4988 31.1936 92.4745 31.7872 92.0962 32.1377C90.8988 33.2449 89.0419 33.7377 87.3759 33.5607C86.4249 33.4601 85.54 33.1407 84.8771 32.5958C84.4779 32.2661 84.4189 31.6761 84.7486 31.2769V31.2804ZM79.6673 36.3026C80.3719 35.6571 82.1387 34.7998 83.7908 36.1742C84.1899 36.5039 84.2418 37.094 83.9121 37.4931C83.5824 37.8922 82.9924 37.9443 82.5933 37.6146C81.8401 36.9898 81.1287 37.5139 80.9274 37.691C80.7226 37.8784 80.4552 37.9582 80.2019 37.9304C79.9832 37.9061 79.768 37.8055 79.6084 37.6285C79.2578 37.2467 79.2891 36.6497 79.6709 36.3026H79.6673ZM81.2744 40.4224C81.7395 40.1934 82.2983 40.3877 82.5273 40.8528C82.7564 41.3179 82.562 41.8767 82.0969 42.1058C80.3684 42.9526 78.824 43.1331 77.5329 42.9977C75.0512 42.734 73.5171 41.3005 73.4199 41.2103C73.0451 40.8528 73.0348 40.2593 73.3923 39.8845C73.7498 39.5131 74.3397 39.4992 74.7145 39.8532C74.8325 39.9608 77.4218 42.3106 81.2709 40.4224H81.2744ZM68.0507 32.4639C68.3631 32.0544 68.9531 31.9746 69.3626 32.2869C70.7718 33.3629 73.2083 33.1477 74.1385 32.2245C74.5064 31.86 75.0998 31.8635 75.4643 32.2279C75.8287 32.5958 75.8253 33.1893 75.4609 33.5538C74.4301 34.5776 72.7119 35.0115 71.0633 34.8379C70.0255 34.7269 69.0155 34.3763 68.2277 33.7759C67.8147 33.4635 67.7384 32.8735 68.0507 32.4639ZM56.4201 38.1595C56.2396 38.5135 55.8614 38.7009 55.49 38.6627C55.379 38.6523 55.2678 38.6176 55.1602 38.5655C53.3415 37.6319 51.3354 37.6597 51.3146 37.6597C50.8009 37.6701 50.3705 37.2605 50.3601 36.7434C50.3497 36.2262 50.7593 35.7993 51.2765 35.7889C51.3771 35.7889 53.7789 35.7508 56.014 36.8996C56.4756 37.1356 56.6561 37.7014 56.4201 38.1595Z" fill="white"/>
<path d="M15.4261 150.252C19.2822 155.708 24.398 159.421 30.222 160.994C35.987 162.549 42.3419 161.983 48.5997 159.362C58.4671 155.225 94.5528 123.211 108.526 109.796C107.44 108.172 105.371 105.711 101.963 103.92C97.9749 101.824 93.2374 101.189 87.882 102.029C86.688 102.216 83.8766 103.257 79.6701 105.052C79.5902 105.1 79.5036 105.138 79.4133 105.163C70.9932 108.765 57.1413 115.304 39.5375 124.006C39.5375 124.006 39.5306 124.006 39.5272 124.009C39.489 124.026 39.4543 124.044 39.4126 124.054C39.4091 124.054 39.4022 124.054 39.3987 124.058C39.3744 124.065 39.3501 124.072 39.3223 124.078L39.0274 124.144C36.0148 124.811 33.5817 125.349 31.7213 125.154C30.8918 125.068 30.1768 124.832 29.5729 124.398C28.32 123.495 27.6293 122.121 27.6779 120.629C27.6918 120.188 27.7751 119.754 27.914 119.337C26.7408 119.188 25.6545 118.713 24.9638 118.001C23.8948 116.897 23.3881 115.613 23.5026 114.284C23.5582 113.649 23.7525 113.028 24.0753 112.444C22.7737 112.118 21.5763 111.275 20.8787 110.105C19.9694 108.581 20.063 106.846 21.1355 105.343C21.3194 105.083 21.5555 104.83 21.8262 104.583C21.4618 104.417 21.1252 104.219 20.8267 103.99C19.7369 103.164 19.1849 102.036 19.2335 100.724C19.3064 98.6689 20.8959 96.7531 23.7038 95.3335C25.2032 94.5769 26.9455 94.0216 28.6913 93.7196C28.4241 92.9804 27.8653 91.4289 27.369 89.9607C27.2024 89.4714 27.4661 88.9404 27.9555 88.7738C28.4449 88.6072 28.976 88.8709 29.1426 89.3603C29.7847 91.2588 30.5344 93.3066 30.6038 93.494C30.9856 93.4697 31.3604 93.4593 31.7283 93.4663C32.0753 93.442 34.2098 93.3101 36.9066 93.5947C36.9171 93.5947 36.924 93.5947 36.9344 93.5947C40.8425 94.0077 43.9315 95.0594 46.1181 96.7184C46.3055 96.8433 47.1872 97.4403 48.3777 98.5024C48.5026 98.4572 48.6379 98.4399 48.7802 98.4538C53.0943 98.8876 66.5471 100.97 79.0627 103.275C83.0992 101.56 86.1917 100.394 87.5939 100.172C89.3605 99.8941 91.0647 99.7692 92.7063 99.7935C92.7653 99.7449 92.8279 99.7033 92.8973 99.672C93.2236 99.5158 100.894 95.875 104.698 95.094C106.989 94.6255 108.783 94.9969 109.831 95.3578L110.39 87.5694C110.428 87.0523 110.876 86.6635 111.393 86.7017C111.907 86.7364 112.299 87.1876 112.261 87.7013L110.661 110.004C110.661 110.004 110.661 110.018 110.661 110.025C110.661 110.036 110.661 110.05 110.657 110.06C110.657 110.07 110.657 110.077 110.654 110.088C110.654 110.098 110.65 110.109 110.647 110.119C110.647 110.129 110.643 110.14 110.64 110.154C110.64 110.161 110.636 110.171 110.633 110.178C110.633 110.188 110.626 110.199 110.623 110.209C110.623 110.22 110.616 110.23 110.612 110.241C110.612 110.247 110.605 110.258 110.605 110.265C110.602 110.275 110.598 110.286 110.595 110.296C110.591 110.306 110.588 110.313 110.581 110.324C110.577 110.331 110.574 110.341 110.57 110.348C110.567 110.359 110.56 110.369 110.557 110.379C110.553 110.39 110.546 110.397 110.543 110.404C110.539 110.411 110.532 110.421 110.529 110.428C110.522 110.438 110.518 110.445 110.512 110.456C110.508 110.463 110.501 110.47 110.498 110.48C110.491 110.49 110.484 110.497 110.477 110.508C110.47 110.515 110.463 110.525 110.456 110.532C110.449 110.539 110.446 110.546 110.439 110.553C110.432 110.56 110.425 110.57 110.418 110.577C110.411 110.584 110.4 110.595 110.393 110.601C110.39 110.605 110.386 110.612 110.379 110.615C104.587 116.207 93.4248 126.421 81.7595 136.466C86.5422 138.5 93.1159 140.766 97.739 142.324C108.307 145.889 123.399 149.957 132.405 144.206C136.82 141.387 139.454 136.327 140.235 129.16C141.176 120.563 139.798 109.73 136.549 100.186C133.745 91.9461 128.185 80.6035 117.613 73.3496C112.608 69.917 104.764 67.5083 94.9278 66.3873C88.4339 65.6445 83.0229 65.6896 81.6554 65.7174C79.0836 67.9248 74.2348 69.209 68.5636 69.1743C67.3731 69.1674 66.2001 69.1014 65.0582 68.9799C60.6989 68.5183 56.7873 67.2619 54.1356 65.4293C52.4697 65.5126 44.1536 66.0506 34.7374 68.6849C28.6045 70.4029 23.2145 72.6589 18.7129 75.3974C13.1353 78.7883 8.91829 82.9324 6.18332 87.7082C2.91385 93.4107 -0.182046 103.882 3.62193 121.375C6.44367 134.352 11.7436 145.042 15.4261 150.255V150.252Z" fill="#F07F47"/>
<path d="M52.2616 44.8719C52.2338 44.8719 52.206 44.865 52.1782 44.865C48.1348 44.4381 45.1674 40.8215 45.5492 36.7607C45.7366 34.7824 46.684 32.9915 48.2146 31.7246C49.7487 30.4578 51.6819 29.8608 53.6603 30.0482C54.3475 30.1107 55.0208 30.2738 55.656 30.5203L55.6387 28.9515C55.6317 28.4864 55.9718 28.0872 56.4299 28.0143C56.4889 28.0039 62.306 27.0842 68.9595 24.5158C75.0264 22.173 83.0542 17.9421 86.8652 11.0874C86.9901 10.8618 87.2054 10.6986 87.4552 10.6327C87.7051 10.5702 87.9724 10.6119 88.1875 10.7507C88.257 10.7958 89.8987 11.8544 91.9222 14.1417C93.4875 15.9117 95.5491 18.7439 97.1283 22.7006C98.239 19.799 99.7454 14.4783 97.8711 10.4036C94.3309 2.71238 85.22 3.63561 85.1298 3.64603C85.0118 3.65991 84.8938 3.64951 84.7793 3.61828C84.7376 3.60786 81.4439 2.7228 76.6577 2.21607C75.495 2.09459 74.2421 1.99394 72.9266 1.93146C66.7764 1.65033 57.9502 2.21952 50.8143 6.53369C44.553 10.3168 40.4055 16.7239 39.1352 24.5679C37.7573 33.0852 40.0792 41.8628 45.3548 48.0477C47.6247 50.7098 50.436 53.0768 53.3584 54.7983L53.2473 44.9032C52.9175 44.917 52.5878 44.9032 52.258 44.8754L52.2616 44.8719Z" fill="#0B0B0B"/>
<path d="M96.1676 41.0849C97.7694 39.161 97.5083 36.3028 95.5844 34.701C93.6605 33.0993 90.8024 33.3604 89.2006 35.2843C87.5988 37.2082 87.8599 40.0663 89.7838 41.6681C91.7077 43.2699 94.5658 43.0088 96.1676 41.0849Z" fill="white"/>
<path d="M70.8507 38.6801C70.9653 41.179 69.0321 43.2997 66.5331 43.4177C64.0342 43.5322 61.9134 41.599 61.7954 39.1001C61.6808 36.6011 63.6142 34.4804 66.1132 34.3624C68.6121 34.2479 70.7327 36.1811 70.8507 38.6801Z" fill="white"/>
<path d="M13.8956 151.331C18.005 157.148 23.4818 161.115 29.7327 162.802C31.0863 163.166 32.4711 163.423 33.8768 163.572C38.8712 164.1 44.1364 163.264 49.3217 161.087C55.1318 158.651 68.7165 147.593 79.0941 138.746C79.4551 138.437 79.8195 138.128 80.1804 137.819C80.2047 137.833 80.229 137.844 80.2533 137.854C85.1471 139.999 92.2344 142.446 97.1386 144.098C102.713 145.976 109.508 147.985 116.12 148.683C122.479 149.356 128.664 148.815 133.412 145.785C138.326 142.647 141.249 137.122 142.096 129.365C143.064 120.507 141.655 109.373 138.323 99.5818C135.428 91.0749 129.67 79.3506 118.671 71.8052C113.337 68.147 105.41 65.6966 95.1117 64.5235C89.2427 63.8536 84.2377 63.8154 82.2143 63.8363L82.1589 58.9321C86.9971 57.8735 90.7524 55.791 93.5221 52.6499C98.0758 47.4819 99.7557 39.3881 98.5096 28.594C98.4923 28.4447 98.4749 28.299 98.4541 28.1497C98.4332 27.9901 98.3846 27.5528 98.3186 26.987C98.2596 26.4664 98.1868 25.8312 98.1139 25.1996C99.058 23.2039 102.3 15.5369 99.5751 9.61924C97.8744 5.92286 94.7924 3.39616 90.6656 2.3098C88.0209 1.61218 85.758 1.71628 85.109 1.76834C84.158 1.52192 79.3717 0.359215 73.0584 0.0641985C66.6375 -0.234288 57.3982 0.366142 49.8493 4.93021C46.4028 7.01268 43.5465 9.83095 41.3633 13.3052C39.3121 16.5712 37.9412 20.2607 37.2921 24.2694C35.8275 33.3212 38.3089 42.6645 43.9351 49.2625C46.5867 52.3723 49.9431 55.1072 53.3895 56.9606L53.4624 63.5898C50.8593 63.7529 43.0292 64.4228 34.2725 66.8697C27.9695 68.6329 22.4129 70.9583 17.7621 73.7835C11.8999 77.3445 7.4573 81.7142 4.5592 86.7746C1.12661 92.7617 -2.136 103.695 1.79292 121.77C4.67367 135.022 10.1158 145.979 13.8989 151.335L13.8956 151.331ZM45.3581 48.0477C40.086 41.8628 37.7606 33.0852 39.1385 24.5679C40.4088 16.7205 44.5564 10.3169 50.8176 6.53371C57.9536 2.21953 66.7797 1.65035 72.9299 1.93148C74.2454 1.99048 75.4983 2.09114 76.661 2.21608C81.4472 2.72282 84.7444 3.60788 84.7826 3.61829C84.8971 3.64953 85.0152 3.65993 85.1332 3.64604C85.2235 3.63563 94.3343 2.71239 97.8745 10.4036C99.7522 14.4783 98.2458 19.799 97.1317 22.7006C95.549 18.7439 93.4874 15.9118 91.9255 14.1417C89.902 11.8544 88.2604 10.7958 88.191 10.7507C87.9724 10.6119 87.7086 10.5702 87.4587 10.6327C87.2088 10.6952 86.9936 10.8618 86.8686 11.0874C83.0612 17.9456 75.0299 22.173 68.963 24.5158C62.3095 27.0842 56.4924 28.0039 56.4334 28.0144C55.9718 28.0872 55.635 28.4829 55.642 28.9515L55.6594 30.5203C55.0208 30.2739 54.3475 30.1107 53.6637 30.0482C51.6854 29.8608 49.7487 30.4578 48.2181 31.7246C46.684 32.9915 45.7399 34.7824 45.5525 36.7607C45.1707 40.8215 48.1348 44.4381 52.1817 44.865C52.2095 44.865 52.2372 44.8719 52.2649 44.8719C52.5947 44.9032 52.9244 44.9136 53.2541 44.8997L53.3653 54.7949C50.4429 53.0768 47.6281 50.7063 45.3617 48.0442L45.3581 48.0477ZM55.1144 43.8446C55.1144 43.5669 54.9861 43.3066 54.7709 43.1296C54.5557 42.9526 54.2746 42.8832 54.0039 42.9352C53.4902 43.0324 52.966 43.0567 52.4385 43.0081C49.3738 42.7166 47.1248 39.9955 47.4163 36.9377C47.5552 35.4557 48.2667 34.116 49.412 33.1684C50.5574 32.2209 52.0081 31.7732 53.4866 31.9155C54.4272 32.0023 55.3192 32.3251 56.0897 32.8492C56.3778 33.0435 56.7527 33.0644 57.0581 32.9012C57.367 32.7346 57.5544 32.4153 57.5509 32.0648L57.5233 29.7289C59.3697 29.3853 64.1559 28.3788 69.6015 26.2824C75.6997 23.9327 83.7068 19.7331 87.9655 12.9199C89.6939 14.3152 93.8727 18.2823 96.153 25.5327C96.1842 25.6334 96.2362 25.7271 96.2987 25.8104C96.3577 26.3067 96.4098 26.7892 96.4584 27.2022C96.5243 27.7818 96.5763 28.2296 96.5972 28.3927C96.6145 28.5315 96.632 28.6703 96.6494 28.8092C97.8329 39.0514 96.3091 46.6559 92.1199 51.4109C88.361 55.6765 82.5093 57.7936 74.2245 57.8873C73.7074 57.8943 73.2909 58.3177 73.2979 58.8349C73.3048 59.3138 73.6693 59.706 74.1344 59.7546C74.1691 59.7581 74.2072 59.7616 74.2454 59.7616C76.4111 59.7373 78.4242 59.5776 80.2915 59.286L80.347 64.3742C78.1153 66.2207 73.6692 67.3348 68.5776 67.3036C63.2951 67.2689 58.3944 66.0367 55.3402 63.9924L55.1144 43.8515V43.8446ZM6.18003 87.7048C8.915 82.929 13.132 78.7883 18.7096 75.3939C23.2112 72.6555 28.6013 70.3995 34.7341 68.6815C44.1503 66.0437 52.4664 65.5092 54.1323 65.4259C56.784 67.2584 60.6955 68.5149 65.0548 68.9765C66.1967 69.0979 67.3733 69.1639 68.5603 69.1708C74.2315 69.2056 79.0803 67.9213 81.6521 65.7139C83.0196 65.6862 88.4305 65.6445 94.9243 66.3838C104.76 67.5083 112.604 69.917 117.609 73.3462C128.181 80.6001 133.745 91.9426 136.546 100.182C139.794 109.727 141.172 120.559 140.232 129.156C139.447 136.32 136.813 141.384 132.402 144.202C123.395 149.953 108.304 145.882 97.7357 142.321C93.1126 140.763 86.5389 138.496 81.7562 136.462C93.4215 126.418 104.583 116.203 110.376 110.612C110.38 110.608 110.383 110.602 110.39 110.598C110.397 110.591 110.407 110.581 110.414 110.574C110.421 110.567 110.428 110.556 110.435 110.549C110.442 110.542 110.446 110.536 110.453 110.529C110.46 110.522 110.466 110.511 110.473 110.504C110.48 110.494 110.487 110.487 110.494 110.477C110.501 110.47 110.505 110.463 110.508 110.452C110.515 110.442 110.519 110.435 110.526 110.424C110.529 110.418 110.536 110.407 110.539 110.4C110.543 110.393 110.55 110.383 110.553 110.376C110.557 110.365 110.564 110.355 110.567 110.345C110.571 110.338 110.574 110.327 110.578 110.32C110.581 110.31 110.584 110.303 110.591 110.293C110.595 110.282 110.598 110.272 110.602 110.261C110.602 110.254 110.609 110.244 110.609 110.237C110.609 110.227 110.616 110.216 110.619 110.206C110.619 110.195 110.626 110.185 110.63 110.175C110.63 110.168 110.633 110.157 110.637 110.15C110.637 110.14 110.64 110.129 110.643 110.116C110.643 110.105 110.647 110.095 110.65 110.084C110.65 110.074 110.65 110.067 110.654 110.057C110.654 110.046 110.654 110.032 110.657 110.022C110.657 110.015 110.657 110.008 110.657 110.001L112.257 87.6979C112.296 87.1807 111.903 86.733 111.39 86.6983C110.872 86.6601 110.425 87.0488 110.387 87.566L109.828 95.3544C108.78 94.9934 106.985 94.622 104.695 95.0906C100.887 95.8715 93.2166 99.5158 92.8939 99.6686C92.8244 99.7033 92.762 99.7449 92.703 99.79C91.0614 99.7657 89.3572 99.8907 87.5906 100.168C86.1884 100.387 83.0959 101.553 79.0594 103.271C66.5403 100.963 53.091 98.8807 48.7769 98.4503C48.6346 98.4364 48.4991 98.4538 48.3742 98.4989C47.1837 97.4369 46.3057 96.8399 46.1148 96.7149C43.9282 95.0559 40.8392 94.0042 36.9311 93.5912C36.9207 93.5912 36.9103 93.5912 36.9034 93.5912C34.2066 93.3101 32.0721 93.4385 31.725 93.4628C31.3571 93.4593 30.9787 93.4697 30.6004 93.4906C30.531 93.3031 29.7813 91.2554 29.1392 89.3569C28.9726 88.8675 28.4416 88.6037 27.9522 88.7703C27.4628 88.9369 27.1991 89.468 27.3657 89.9573C27.862 91.4255 28.4208 92.9769 28.6881 93.7162C26.9423 94.0147 25.1999 94.57 23.7005 95.3301C20.8926 96.7496 19.3031 98.662 19.2302 100.72C19.1816 102.032 19.7334 103.164 20.8232 103.986C21.1217 104.212 21.4618 104.413 21.8228 104.58C21.5486 104.826 21.3161 105.079 21.1322 105.34C20.0597 106.843 19.9659 108.578 20.8752 110.102C21.5763 111.271 22.7703 112.115 24.0718 112.441C23.749 113.024 23.5547 113.645 23.4992 114.281C23.3846 115.61 23.8914 116.897 24.9604 117.998C25.651 118.713 26.7374 119.185 27.9105 119.334C27.7717 119.75 27.692 120.184 27.6746 120.625C27.626 122.118 28.3167 123.492 29.5696 124.394C30.1736 124.828 30.8885 125.061 31.718 125.151C33.5784 125.349 36.0113 124.811 39.0239 124.141L39.319 124.075C39.3433 124.068 39.3711 124.061 39.3954 124.054C39.3989 124.054 39.4057 124.054 39.4092 124.051C39.4473 124.037 39.4855 124.023 39.5237 124.006C39.5237 124.006 39.5308 124.006 39.5342 124.002C57.138 115.297 70.9898 108.762 79.4099 105.159C79.5001 105.135 79.5869 105.097 79.6668 105.048C83.8734 103.254 86.6847 102.213 87.8787 102.025C93.2341 101.185 97.9716 101.824 101.96 103.917C105.368 105.708 107.437 108.168 108.523 109.793C94.5495 123.207 58.4638 155.218 48.5964 159.359C42.3386 161.983 35.9835 162.545 30.2185 160.99C24.3946 159.418 19.2787 155.704 15.4227 150.248C11.7402 145.035 6.44038 134.345 3.61864 121.368C-0.185334 103.875 2.91056 93.4038 6.18003 87.7013V87.7048ZM108.978 107.27C107.652 105.649 105.656 103.747 102.834 102.261C100.852 101.22 98.7109 100.508 96.4236 100.127C99.0163 98.9813 102.845 97.3883 105.076 96.9301C107.471 96.4407 109.137 97.0551 109.692 97.3119L108.978 107.266V107.27ZM41.0613 114.343C41.0093 113.829 40.5511 113.454 40.034 113.503C34.387 114.072 30.7947 116.165 30.1318 116.578C29.7083 116.842 29.337 117.154 29.0107 117.501C27.8341 117.588 26.779 117.182 26.307 116.693C25.6163 115.981 25.3005 115.221 25.3664 114.437C25.4428 113.541 26.0191 112.66 26.9874 111.952C28.1432 111.108 32.8565 109.088 37.3789 108.394C37.8891 108.314 38.2396 107.839 38.1632 107.325C38.0834 106.815 37.6044 106.464 37.0942 106.541C32.5509 107.238 27.4212 109.314 25.8836 110.435C25.7691 110.518 25.658 110.605 25.5505 110.692C24.3877 110.82 23.1001 110.171 22.4788 109.13C22.1109 108.516 21.8436 107.547 22.6523 106.416C23.822 104.778 29.5938 102.452 34.1232 102.223C34.6403 102.195 35.036 101.758 35.0117 101.241C34.9839 100.724 34.5466 100.328 34.0295 100.352C31.2563 100.491 26.8068 101.605 23.8046 103.223C21.611 102.924 21.0731 101.501 21.0974 100.779C21.205 97.8047 27.1332 95.2572 31.7319 95.3336C31.7632 95.3336 31.7909 95.3336 31.8221 95.3336C31.9089 95.3266 40.3949 94.7053 45.0041 98.2282C45.0249 98.2421 45.0458 98.2594 45.0666 98.2698C45.1534 98.3254 53.7054 103.965 55 114.371C48.7492 117.376 42.9042 120.247 38.8087 122.27L38.6248 122.312C34.8903 123.138 31.9436 123.79 30.6699 122.874C29.9202 122.333 29.521 121.555 29.5522 120.684C29.5834 119.702 30.1735 118.758 31.1245 118.164C31.4924 117.935 34.8764 115.901 40.2214 115.363C40.7351 115.311 41.1099 114.853 41.0613 114.34V114.343ZM51.1057 101.317C50.8732 101.043 50.6442 100.779 50.4151 100.529C55.4825 101.168 65.7801 102.785 75.9669 104.618C70.2956 107.117 63.3819 110.355 56.7735 113.524C55.9371 108.037 53.275 103.892 51.1057 101.317Z" fill="#0B0B0B"/>
<path d="M84.5398 32.5438C85.2027 33.0887 86.0912 33.408 87.0387 33.5086C88.7012 33.6856 90.5581 33.1928 91.759 32.0856C92.1373 31.735 92.1615 31.1416 91.811 30.7632C91.4604 30.3849 90.8671 30.3606 90.4888 30.7112C89.1838 31.9155 86.7404 31.9294 85.7304 31.0999C85.3312 30.7702 84.7411 30.8292 84.4114 31.2283C84.0816 31.6275 84.1407 32.2175 84.5398 32.5472V32.5438Z" fill="#0B0B0B"/>
<path d="M67.8905 33.7203C68.6783 34.3208 69.6883 34.6748 70.7261 34.7824C72.3712 34.9559 74.0929 34.5221 75.1237 33.4982C75.4916 33.1338 75.4915 32.5402 75.1271 32.1723C74.7626 31.8044 74.1692 31.8045 73.8013 32.1689C72.8711 33.0921 70.438 33.3073 69.0254 32.2314C68.6124 31.919 68.0259 31.9953 67.7135 32.4084C67.4012 32.8179 67.4774 33.408 67.8905 33.7203Z" fill="#0B0B0B"/>
<path d="M55.6797 36.8406C53.4446 35.6917 51.0426 35.7264 50.942 35.7299C50.4248 35.7403 50.0154 36.1672 50.0258 36.6843C50.0362 37.2015 50.4666 37.611 50.9803 37.6006C51.0011 37.6006 53.0073 37.5694 54.8259 38.5065C54.9335 38.562 55.0445 38.5933 55.1556 38.6037C55.5304 38.6419 55.9053 38.4545 56.0858 38.1004C56.3218 37.6388 56.1414 37.0766 55.6797 36.8406Z" fill="#0B0B0B"/>
<path d="M79.865 37.8748C80.1218 37.9026 80.3857 37.8228 80.5905 37.6354C80.7918 37.4584 81.5032 36.9342 82.2564 37.559C82.6555 37.8887 83.2455 37.8367 83.5752 37.4375C83.9049 37.0384 83.853 36.4483 83.4539 36.1186C81.8018 34.7442 80.035 35.6015 79.3305 36.2471C78.9487 36.5976 78.921 37.1911 79.2681 37.5729C79.4312 37.7499 79.6429 37.8505 79.8616 37.8748H79.865Z" fill="#0B0B0B"/>
<path d="M76.1885 44.3825C76.1885 43.9033 76.577 43.5148 77.0562 43.5148H84.6919C85.1711 43.5148 85.5596 43.9033 85.5596 44.3825C85.5596 44.8617 85.1711 45.2502 84.6919 45.2502H77.0562C76.577 45.2502 76.1885 44.8617 76.1885 44.3825Z" fill="#0B0B0B"/>
<rect x="72.8857" y="38.8727" width="10.7594" height="4.51201" fill="white"/>
</svg>
