<svg width="147" height="164" viewBox="0 0 147 164" fill="none" xmlns="http://www.w3.org/2000/svg">
<path d="M59.7036 57.6902C60.0335 56.6104 60.9533 55.234 62.9896 54.5674C60.6767 52.5211 59.0069 50.1682 58.0137 47.5553C57.4772 46.1455 57.1107 44.6991 56.8707 43.2327C55.271 44.3525 52.0348 46.9054 49.6986 50.6847C47.5523 54.1542 46.989 57.1437 46.8457 58.6434C52.6847 57.7702 57.8006 57.6869 59.7036 57.6902Z" fill="black"/>
<path d="M39.6735 106.515C33.7945 106.832 28.2421 107.132 24.586 107.389C24.566 107.389 24.5427 107.389 24.5227 107.389C24.0561 107.389 23.6596 107.025 23.6262 106.552C23.5929 106.055 23.9662 105.629 24.4594 105.592C25.6526 105.509 27.0456 105.419 28.5854 105.329L29.5152 82.4361C29.5352 81.9395 29.9551 81.5529 30.4483 81.5729C30.9449 81.5929 31.3315 82.0128 31.3082 82.5061L30.3884 105.219C33.1746 105.059 36.324 104.889 39.5734 104.712C45.5524 104.389 51.7182 104.056 56.3774 103.742C54.2178 98.1701 52.8545 94.1408 52.8545 92.961C52.8545 89.5849 54.661 87.6452 55.2609 87.0953C53.9844 84.6857 53.5478 81.9162 53.9977 78.96C54.2844 77.087 54.8575 75.5672 55.2374 74.7074C54.5309 74.1208 54.0011 73.2043 53.6912 72.0012C53.3745 70.7747 53.3245 69.3483 53.5611 68.2818C53.9311 66.6187 55.0242 65.2656 56.5972 64.4391C56.5839 64.3991 56.5706 64.3558 56.5606 64.3125C56.554 64.2758 55.9974 61.2396 58.537 59.4999C53.4445 59.5966 39.2469 60.3498 30.8916 65.6556C23.6928 70.2248 17.2373 81.3463 13.088 89.8682C8.31544 99.6698 4.68596 109.918 3.32952 115.294C0.293366 127.339 2.40303 135.114 3.93277 138.677C6.07575 143.672 10.535 147.252 17.1872 149.308C21.8798 150.761 31.7215 150.955 45.6391 149.865C56.2973 149.032 67.5421 147.588 74.9742 146.445C69.0085 133.981 61.6131 117.03 57.0672 105.502C52.3313 105.829 45.9025 106.175 39.6735 106.512V106.515Z" fill="#FCC253"/>
<path d="M118.634 111.571C118.707 111.401 118.68 110.998 118.357 110.418C117.494 108.858 115.081 106.895 110.862 105.462C110.762 105.462 110.658 105.442 110.562 105.406C110.485 105.376 110.415 105.339 110.352 105.292C108.772 104.789 106.959 104.362 104.893 104.052C104.213 103.949 103.51 103.876 102.8 103.826C103.456 105.032 104.103 106.225 104.733 107.385C104.903 107.342 105.086 107.345 105.266 107.412C107.069 108.072 108.729 109.065 110.332 110.028C110.535 110.148 110.735 110.271 110.935 110.388C111.488 110.718 112.335 111.261 113.245 111.994C113.261 112.001 113.281 112.004 113.298 112.011C114.045 112.268 117.807 113.461 118.634 111.568V111.571Z" fill="#FFE2DE"/>
<path d="M112.175 68.9883C104.739 66.1722 98.4869 64.7757 96.8205 64.4258C95.4208 65.6422 90.0851 69.7116 81.3965 69.7116C81.3665 69.7116 81.3333 69.7116 81.3033 69.7116C81.2533 70.6481 81.1966 71.5679 81.1332 72.4444C82.6596 72.0712 84.546 72.5611 85.5892 73.4143C85.8725 73.6476 86.5357 74.1908 97.6005 94.3241C99.0103 96.887 100.423 99.4732 101.8 101.999C101.866 101.986 101.933 101.979 102.003 101.983C103.073 102.026 104.133 102.126 105.152 102.276C107.075 102.563 108.799 102.953 110.335 103.409L113.388 95.1873C113.561 94.7207 114.078 94.4841 114.544 94.6574C115.011 94.8307 115.247 95.3472 115.074 95.8138L112.045 103.976C116.367 105.556 118.907 107.705 119.927 109.545C120.483 110.555 120.61 111.528 120.277 112.288C119.66 113.704 118.317 114.431 116.437 114.431C116.187 114.431 115.931 114.417 115.664 114.391C116.304 115.194 116.857 116.094 117.217 117.074C117.617 118.173 117.624 119.283 117.234 120.203C116.82 121.176 116.051 121.883 115.008 122.243C114.518 122.413 113.974 122.493 113.425 122.493C113.228 122.493 113.031 122.479 112.835 122.459C112.905 122.593 112.975 122.726 113.045 122.856C113.274 123.296 113.108 123.839 112.668 124.069C112.535 124.139 112.391 124.172 112.248 124.172C111.925 124.172 111.615 123.999 111.452 123.692C105.093 111.638 86.0157 76.6337 84.4193 74.774C83.6328 74.1575 81.9665 73.8475 81.1033 74.3608C81.0633 74.3841 81.0198 74.4041 80.9765 74.4208C80.9265 75.0107 80.8733 75.5639 80.82 76.0705C80.7 77.1803 79.9801 81.0597 75.6841 84.4324C69.6151 89.195 64.6927 90.3048 61.4199 90.3048C58.697 90.3048 57.1206 89.5382 56.984 89.4649C56.874 89.4082 56.7773 89.3316 56.7007 89.2383C56.5407 89.0483 56.3907 88.8517 56.244 88.655C55.7008 89.2349 54.6577 90.6547 54.6577 92.9643C54.6577 95.8072 66.7024 125.146 77.1173 146.745C77.1173 146.745 77.1172 146.752 77.1206 146.755C79.3535 151.384 82.4763 155.051 86.4056 157.66C90.0083 160.053 94.2944 161.496 98.8036 161.843C104.139 162.249 109.652 161.159 114.744 158.693C120.003 156.144 124.543 152.238 127.865 147.398C133.388 139.357 140.56 127.049 143.376 114.067C145.979 102.066 144.219 92.4277 138.144 85.4156C134.261 80.9363 126.602 74.4474 112.171 68.985L112.175 68.9883Z" fill="#FCC253"/>
<path d="M110.015 111.934C109.815 111.814 109.612 111.695 109.408 111.571C108.289 110.898 107.142 110.211 105.962 109.655C108.199 113.784 110.178 117.47 111.671 120.273C112.498 120.72 113.598 120.83 114.424 120.546C114.981 120.353 115.371 120.006 115.581 119.507C115.791 119.007 115.774 118.363 115.531 117.69C114.491 114.841 111.328 112.714 110.015 111.931V111.934Z" fill="#FFE2DE"/>
<path d="M60.7599 73.7609C60.5733 73.7609 60.3866 73.7042 60.2266 73.5842C60.1466 73.5243 60.0601 73.4643 59.9734 73.4043C59.8034 73.9442 59.4368 74.4308 58.9069 74.8007C58.347 75.1906 57.6871 75.3939 57.0538 75.3939C57.0072 75.3939 56.9571 75.3906 56.9105 75.3873C56.5772 76.1338 56.0306 77.5536 55.7707 79.2899C55.2808 82.5994 56.014 85.5022 57.9503 87.9318C58.4169 88.1185 59.9434 88.6284 62.2997 88.4684C64.9592 88.2884 69.2484 87.1986 74.5741 83.0226C78.4135 80.0098 78.9635 76.5471 79.0335 75.8839C79.6468 70.1415 80.0066 59.6333 79.5167 57.8036C78.7935 55.094 75.4907 50.7014 73.7043 50.6381C72.4212 50.5948 69.1818 52.9144 66.9389 54.8407C68.052 55.2073 69.3585 55.7739 70.8749 56.5438C70.8949 56.5538 70.9148 56.5638 70.9348 56.5738L71.1514 54.8441C71.2147 54.3508 71.6614 54.0009 72.1546 54.0642C72.6479 54.1275 72.9978 54.5741 72.9345 55.0674L72.6313 57.4736C74.2577 58.3701 75.4407 59.12 75.504 59.16C75.9239 59.4266 76.0473 59.9799 75.7807 60.3998C75.6107 60.6698 75.3175 60.8164 75.0209 60.8164C74.8575 60.8164 74.6909 60.7697 74.541 60.6764C74.521 60.6631 72.4413 59.35 70.0484 58.1368C65.8857 56.0305 64.4093 56.0472 63.9661 56.1505C61.6765 56.6938 61.3865 58.1968 61.3498 58.5334C63.2862 58.5334 66.4557 59.8099 70.7983 62.3428C71.2282 62.5928 71.3714 63.1427 71.1214 63.5726C70.8715 64.0025 70.3216 64.1458 69.8917 63.8959C64.7859 60.9197 61.9396 60.1198 60.9798 60.3665C58.2202 61.073 58.237 63.1893 58.3036 63.7992C58.3436 63.7892 58.3836 63.7759 58.4236 63.7692C60.5365 63.2893 64.6026 65.2123 67.6388 66.9087C68.0721 67.152 68.2252 67.6986 67.9853 68.1318C67.742 68.5651 67.1954 68.7184 66.7622 68.4784C63.0261 66.3921 59.9833 65.259 58.8201 65.5223C56.9704 65.9422 55.6607 67.1187 55.3175 68.6717C54.9742 70.2115 55.4307 73.001 56.7438 73.5443C57.0404 73.6676 57.5171 73.5742 57.8737 73.3243C58.0003 73.2343 58.2937 72.9943 58.2803 72.6777C58.277 72.5811 58.287 72.4911 58.3103 72.4044C57.5937 72.0178 57.0238 71.7479 57.0138 71.7446C56.5639 71.5346 56.3706 70.998 56.5806 70.5481C56.7906 70.0982 57.3272 69.9049 57.7738 70.1148C57.8604 70.1548 59.93 71.128 61.2898 72.1345C61.6897 72.4311 61.773 72.991 61.4764 73.3909C61.2998 73.6276 61.0299 73.7542 60.7532 73.7542L60.7599 73.7609Z" fill="white"/>
<path d="M72.2948 10.6149C72.5481 10.5049 72.8414 10.5182 73.0847 10.6515C73.328 10.7848 73.4946 11.0248 73.5379 11.2981C74.0778 14.6775 75.7209 17.6037 78.4271 19.99C80.6334 21.9363 83.5463 23.5427 87.089 24.7658C93.198 26.8721 99.1069 27.0888 99.1669 27.0921C99.4135 27.0988 99.6501 27.2121 99.8134 27.3987C99.9768 27.5853 100.057 27.832 100.033 28.0786L99.7669 30.8148C100.37 30.6915 100.99 30.6415 101.617 30.6748C103.576 30.7748 105.379 31.6313 106.696 33.0877C108.012 34.5442 108.682 36.4272 108.582 38.3868C108.382 42.3062 105.129 45.3623 101.247 45.3623C101.12 45.3623 100.997 45.3623 100.867 45.3523C100.537 45.3357 100.21 45.2957 99.8901 45.2357L97.5539 62.7494C99.7002 63.2127 105.739 64.6358 112.811 67.312C117.99 69.2716 122.71 71.5179 126.836 73.9809C132.018 77.0737 136.281 80.5297 139.504 84.2491C139.57 84.3258 139.633 84.4058 139.7 84.4857C142.743 75.4539 136.734 67.332 133.944 64.1992C133.155 63.3126 132.348 62.4295 131.565 61.5763C126.962 56.5471 122.616 51.8013 120.507 45.0157C119.567 41.9929 119.047 38.8501 118.544 35.8106C118.017 32.6112 117.471 29.305 116.431 26.2056C113.178 16.4739 105.653 9.09512 95.7842 5.95898C90.9317 4.41924 86.3359 4.0393 82.1299 4.83584C82.0166 4.85917 81.8966 4.85583 81.7833 4.83584C81.67 4.81251 70.4451 2.61287 64.3328 8.40523C61.3833 11.1981 60.0603 15.4407 60.3836 21.0364C64.5295 14.0409 71.9349 10.7782 72.2881 10.6249L72.2948 10.6149Z" fill="black"/>
<path d="M65.0661 53.9675C65.0928 53.9875 65.1162 54.0109 65.1395 54.0342C66.1593 53.1144 71.1517 48.7484 73.7679 48.8451C76.8608 48.9551 80.4735 54.4241 81.2533 57.3436C81.6166 58.6967 81.5933 63.2926 81.39 67.9185C86.1259 67.9185 89.7653 66.5821 92.0116 65.4423C93.9646 64.4491 95.2244 63.4326 95.7044 63.016L98.2438 43.9992C98.2471 43.9692 98.2539 43.9359 98.2606 43.9059C98.2872 43.7859 98.3405 43.6759 98.4104 43.5826C98.4171 43.5726 98.4238 43.566 98.4305 43.5593C98.4405 43.546 98.4538 43.5293 98.4638 43.516C98.4738 43.506 98.4805 43.4993 98.4905 43.4893C98.5005 43.476 98.5138 43.466 98.5271 43.4527C98.5338 43.446 98.5439 43.4393 98.5506 43.4327C98.5639 43.4193 98.5772 43.4093 98.5938 43.396C98.6005 43.3927 98.6038 43.3893 98.6104 43.3827C98.6271 43.3693 98.6471 43.356 98.6671 43.346C98.6671 43.346 98.6704 43.346 98.6737 43.3427C98.7937 43.2693 98.9304 43.226 99.077 43.216C99.1636 43.2094 99.2537 43.216 99.3437 43.2394C99.3737 43.246 99.4037 43.256 99.4337 43.266C99.9236 43.436 100.437 43.5326 100.963 43.5593C104.02 43.7159 106.632 41.3563 106.789 38.2969C106.866 36.8171 106.359 35.394 105.366 34.2942C104.373 33.1944 103.01 32.5445 101.53 32.4712C100.727 32.4312 99.9436 32.5578 99.2003 32.8544C98.9371 32.9577 98.6538 32.9311 98.4272 32.8011C98.0639 32.6578 97.8239 32.2879 97.8606 31.8779L98.1572 28.8351C96.1942 28.6885 91.495 28.1819 86.5492 26.4822C78.4672 23.706 73.4647 18.9801 72.0016 12.7678C69.5487 14.0709 63.2864 17.9303 60.6702 24.5292C60.3503 25.4757 60.0737 26.4522 59.8504 27.4354C58.4506 33.5843 57.3375 40.7065 59.6971 46.9221C60.7036 49.5783 62.5132 51.9479 65.0728 53.9709L65.0661 53.9675ZM98.6772 37.0437C101.027 36.2405 103.37 36.6171 103.47 36.6338C103.96 36.7171 104.289 37.1804 104.206 37.667C104.123 38.1569 103.663 38.4868 103.173 38.4068C103.153 38.4068 101.167 38.0902 99.257 38.7434C99.1603 38.7768 99.0638 38.7934 98.9671 38.7934C98.5939 38.7934 98.2438 38.5601 98.1172 38.1869C97.9572 37.7169 98.2072 37.207 98.6772 37.0471V37.0437ZM79.7869 29.7816C79.9136 28.6418 80.9435 27.8186 82.0833 27.9453C83.2231 28.0719 84.0462 29.1017 83.9196 30.2415C83.7929 31.3813 82.7632 32.2045 81.6234 32.0779C80.4836 31.9513 79.6603 30.9214 79.7869 29.7816ZM76.6342 36.1472C78.7638 36.2972 80.3902 37.8836 80.2636 39.6833C80.2003 40.5798 79.7003 41.413 78.8905 41.9729C78.2172 42.4362 77.3774 42.6861 76.5009 42.6861C76.3909 42.6861 76.2808 42.6828 76.1709 42.6728C74.0412 42.5228 72.4149 40.9364 72.5416 39.1367C72.6682 37.337 74.5013 35.9972 76.6309 36.1472H76.6342ZM70.1486 32.8011C71.8616 31.5713 73.5314 32.5345 74.1746 33.2144C74.5146 33.5743 74.5012 34.1442 74.1413 34.4842C73.9679 34.6475 73.7446 34.7308 73.5247 34.7308C73.288 34.7308 73.0548 34.6375 72.8781 34.4542C72.6882 34.2609 72.0049 33.681 71.1984 34.2609C70.7951 34.5508 70.2353 34.4575 69.9453 34.0542C69.6554 33.651 69.7486 33.0911 70.1519 32.8011H70.1486ZM64.293 28.6485C64.4196 27.5087 65.4493 26.6855 66.5891 26.8121C67.7289 26.9388 68.5522 27.9686 68.4256 29.1084C68.2989 30.2482 67.2691 31.0714 66.1293 30.9448C64.9894 30.8181 64.1663 29.7883 64.293 28.6485Z" fill="white"/>
<path d="M76.3005 40.8797C76.8804 40.9197 77.4537 40.7798 77.8703 40.4898C78.0802 40.3465 78.4369 40.0332 78.4703 39.5533C78.5269 38.7568 77.627 38.0169 76.5072 37.9369C76.4406 37.9336 76.3771 37.9302 76.3105 37.9302C75.274 37.9302 74.3908 38.5101 74.3375 39.26C74.2808 40.0565 75.1807 40.7964 76.3005 40.8764V40.8797Z" fill="#FA9B9E"/>
<path d="M82.4233 35.7073C82.1833 38.1769 83.9864 40.3731 86.456 40.6131C88.9256 40.8531 91.1218 39.05 91.3617 36.5805C91.6017 34.1109 89.7986 31.9146 87.329 31.6746C84.8594 31.4347 82.6632 33.2377 82.4233 35.7073Z" fill="white"/>
<path d="M83.1515 31.6562C84.0521 30.9434 84.2043 29.6355 83.4915 28.7349C82.7787 27.8343 81.4708 27.682 80.5702 28.3948C79.6696 29.1076 79.5173 30.4156 80.2301 31.3162C80.9429 32.2168 82.2509 32.369 83.1515 31.6562Z" fill="black"/>
<path d="M66.1257 30.9447C67.2655 31.0714 68.2952 30.2515 68.4219 29.1084C68.5485 27.9686 67.7287 26.9387 66.5856 26.8121C65.4458 26.6855 64.4159 27.5053 64.2893 28.6484C64.1626 29.7883 64.9826 30.8181 66.1257 30.9447Z" fill="black"/>
<path d="M140.98 86.1154C141.023 86.0554 141.06 85.9921 141.087 85.9221C143.933 78.69 141.82 70.3347 135.288 62.996C134.491 62.1028 133.678 61.2129 132.895 60.3564C128.432 55.4806 124.219 50.8747 122.23 44.4758C121.326 41.5696 120.817 38.4901 120.327 35.5106C119.787 32.2445 119.23 28.8651 118.147 25.6289C114.708 15.344 106.762 7.54866 96.3406 4.23921C91.2648 2.62615 86.4357 2.22289 81.9798 3.03275C81.2766 2.90277 78.597 2.46951 75.2643 2.62615C70.1485 2.86611 65.9458 4.40585 63.1162 7.0854C59.2336 10.7614 57.8205 16.4971 58.907 24.1359C58.5937 25.0824 58.3204 26.0555 58.0971 27.032C57.0872 31.468 56.2241 36.4038 56.6307 41.233C55.4242 41.9928 51.175 44.889 48.1722 49.7382C45.6059 53.8842 45.106 57.4003 45.0194 58.9367C39.7936 59.8498 34.2079 61.4262 29.9386 64.1391C15.9776 73.0043 4.11291 104.869 1.59666 114.854C-0.749607 124.162 -0.502955 132.874 2.28991 139.383C4.61951 144.809 9.58864 148.835 16.6641 151.024C19.7169 151.971 24.4994 152.348 30.1518 152.348C44.4227 152.348 64.2461 149.935 75.8075 148.135C78.1604 152.774 81.3866 156.484 85.4159 159.16C89.2752 161.719 93.8577 163.269 98.6736 163.636C99.4501 163.696 100.227 163.726 101.007 163.726C105.916 163.726 110.892 162.563 115.534 160.313C121.077 157.627 125.852 153.514 129.352 148.418C134.964 140.246 142.26 127.718 145.136 114.451C146.426 108.512 146.672 103.026 145.872 98.14C145.132 93.6208 143.489 89.5848 140.98 86.1121V86.1154ZM64.3428 8.39184C70.4551 2.59949 81.6798 4.79912 81.7931 4.82245C81.9064 4.84578 82.0264 4.84578 82.1397 4.82245C86.3457 4.02592 90.9417 4.40585 95.7942 5.94559C105.663 9.0784 113.188 16.4572 116.441 26.1922C117.477 29.295 118.024 32.6011 118.554 35.7972C119.057 38.8367 119.573 41.9795 120.517 45.0023C122.626 51.7879 126.972 56.5371 131.575 61.5629C132.358 62.4161 133.165 63.2993 133.954 64.1858C136.744 67.3186 142.753 75.4439 139.71 84.4724C139.643 84.3957 139.58 84.3157 139.513 84.2357C136.291 80.5164 132.028 77.0636 126.846 73.9675C122.72 71.5045 118 69.2616 112.821 67.2986C105.749 64.6224 99.71 63.1993 97.5637 62.736L99.9001 45.2223C100.223 45.2823 100.547 45.3223 100.877 45.339C101.003 45.3456 101.13 45.349 101.256 45.349C105.139 45.349 108.392 42.2928 108.592 38.3735C108.692 36.4138 108.022 34.5308 106.706 33.0743C105.389 31.6179 103.586 30.7614 101.627 30.6614C101 30.6281 100.38 30.6781 99.7767 30.8014L100.043 28.0652C100.067 27.8186 99.9868 27.572 99.8234 27.3853C99.6601 27.1987 99.4269 27.0887 99.1769 27.0787C99.1169 27.0787 93.2112 26.8587 87.0989 24.7524C83.5561 23.5326 80.6434 21.9262 78.4371 19.9766C75.7309 17.587 74.0845 14.6641 73.5479 11.2847C73.5046 11.0114 73.3378 10.7714 73.0946 10.6381C72.8513 10.5048 72.5614 10.4915 72.3048 10.6015C71.9515 10.7548 64.546 14.0142 60.4001 21.013C60.0801 15.4173 61.4033 11.1747 64.3494 8.38185L64.3428 8.39184ZM59.8468 27.432C60.0701 26.4521 60.3467 25.4756 60.6666 24.5258C63.2829 17.9269 69.5451 14.0676 71.9981 12.7644C73.4611 18.9767 78.4638 23.7026 86.5457 26.4788C91.4916 28.1785 96.1906 28.6851 98.1536 28.8317L97.8571 31.8746C97.8172 32.2845 98.057 32.6544 98.4236 32.7977C98.6536 32.9277 98.9336 32.9544 99.1969 32.8511C99.9368 32.5578 100.72 32.4278 101.526 32.4678C103.006 32.5444 104.369 33.191 105.363 34.2908C106.356 35.3906 106.862 36.8137 106.786 38.2935C106.629 41.3496 104.016 43.7126 100.96 43.5559C100.437 43.5293 99.9234 43.4293 99.4301 43.2626C99.4001 43.2526 99.3701 43.2426 99.3401 43.236C99.2501 43.216 99.1602 43.206 99.0736 43.2126C98.9269 43.2226 98.7903 43.266 98.6703 43.3393C98.6703 43.3393 98.667 43.3393 98.6637 43.3426C98.6437 43.3559 98.627 43.366 98.607 43.3793C98.6003 43.3826 98.5969 43.386 98.5903 43.3926C98.5769 43.4026 98.5603 43.4159 98.547 43.4293C98.5403 43.4359 98.5304 43.4426 98.5237 43.4493C98.5104 43.4593 98.5003 43.4726 98.4869 43.4859C98.4769 43.4959 98.4704 43.5026 98.4604 43.5126C98.4471 43.5259 98.437 43.5426 98.427 43.5559C98.4204 43.5626 98.4137 43.5726 98.407 43.5793C98.337 43.6726 98.287 43.7826 98.257 43.9025C98.2503 43.9325 98.2437 43.9659 98.2404 43.9958L95.7008 63.0126C95.2242 63.4292 93.961 64.4491 92.008 65.4389C89.7617 66.5787 86.1225 67.9118 81.3866 67.9151C81.5899 63.2893 81.6132 58.6967 81.2499 57.3403C80.47 54.4208 76.8573 48.9517 73.7645 48.8417C71.1483 48.745 66.1558 53.111 65.1359 54.0308C65.1126 54.0075 65.0892 53.9875 65.0625 53.9642C62.503 51.9445 60.6966 49.5749 59.6868 46.9154C57.3272 40.6997 58.4403 33.5776 59.8401 27.4286L59.8468 27.432ZM61.2966 72.1411C59.9368 71.1346 57.8672 70.1614 57.7806 70.1214C57.3306 69.9115 56.7974 70.1048 56.5874 70.5547C56.3774 71.0046 56.5707 71.5379 57.0206 71.7512C57.0306 71.7545 57.6039 72.0245 58.3171 72.4111C58.2938 72.4977 58.2805 72.591 58.2871 72.6843C58.3005 73.001 58.0071 73.2409 57.8805 73.3309C57.5239 73.5809 57.0472 73.6742 56.7506 73.5509C55.4408 73.0076 54.981 70.2181 55.3243 68.6784C55.6709 67.1253 56.9806 65.9488 58.8269 65.5289C59.9901 65.2656 63.0329 66.3954 66.769 68.485C67.2022 68.7283 67.7488 68.5717 67.9921 68.1385C68.2354 67.7052 68.0787 67.1586 67.6454 66.9153C64.6093 65.2189 60.5433 63.2959 58.4304 63.7758C58.3904 63.7858 58.3504 63.7958 58.3104 63.8058C58.2471 63.1993 58.227 61.0796 60.9866 60.3731C61.9464 60.1265 64.7927 60.9263 69.8985 63.9025C70.3284 64.1524 70.8783 64.0091 71.1283 63.5792C71.3782 63.1493 71.235 62.5994 70.8051 62.3494C66.4625 59.8165 63.293 58.5401 61.3566 58.5401C61.3933 58.2034 61.6833 56.7037 63.9729 56.1571C64.4161 56.0538 65.8926 56.0338 70.0552 58.1435C72.4481 59.3533 74.5278 60.6697 74.5478 60.683C74.6977 60.7763 74.8643 60.823 75.0277 60.823C75.3243 60.823 75.6175 60.6764 75.7875 60.4064C76.0541 59.9865 75.9274 59.4332 75.5108 59.1666C75.4442 59.1266 74.2645 58.3768 72.6381 57.4802L72.9413 55.074C73.0046 54.5807 72.6547 54.1308 72.1614 54.0708C71.6682 54.0075 71.2182 54.3574 71.1582 54.8507L70.9416 56.5804C70.9216 56.5704 70.9017 56.5604 70.8817 56.5504C69.3653 55.7805 68.0555 55.2173 66.9457 54.8474C69.1886 52.921 72.428 50.6014 73.7111 50.6447C75.4975 50.708 78.8003 55.1006 79.5235 57.8102C80.0134 59.6399 79.6536 70.1481 79.0403 75.8905C78.9703 76.5537 78.4203 80.0164 74.581 83.0293C69.2552 87.2086 64.966 88.2984 62.3065 88.475C59.9536 88.6316 58.427 88.1217 57.9571 87.9384C56.0208 85.5122 55.2876 82.606 55.7775 79.2966C56.0341 77.5569 56.5807 76.1404 56.9173 75.3939C56.9639 75.3939 57.0106 75.4006 57.0606 75.4006C57.6939 75.4006 58.3571 75.1973 58.9137 74.8073C59.4436 74.4374 59.8101 73.9508 59.9801 73.4109C60.0667 73.4709 60.1501 73.5309 60.2334 73.5909C60.3934 73.7108 60.5801 73.7675 60.7667 73.7675C61.0433 73.7675 61.3133 73.6409 61.4899 73.4042C61.7865 73.0043 61.6998 72.4411 61.3032 72.1478L61.2966 72.1411ZM49.6986 50.6847C52.0382 46.9054 55.271 44.3525 56.8707 43.2326C57.1073 44.6957 57.4772 46.1422 58.0138 47.5552C59.0069 50.1681 60.6767 52.5244 62.9896 54.5674C60.9533 55.234 60.0335 56.6071 59.7036 57.6902C57.8006 57.6869 52.6847 57.7702 46.8457 58.6434C46.989 57.147 47.5523 54.1541 49.6986 50.6847ZM45.6426 149.868C31.7216 150.958 21.8833 150.765 17.1907 149.311C10.5418 147.255 6.08258 143.676 3.93628 138.68C2.40654 135.117 0.296871 127.342 3.33303 115.297C4.68946 109.921 8.32211 99.6698 13.0913 89.8714C17.2406 81.3495 23.6963 70.2281 30.8951 65.6589C39.2504 60.3531 53.4479 59.5966 58.5404 59.5032C56.0008 61.2396 56.5573 64.2758 56.564 64.3158C56.574 64.3591 56.5874 64.4024 56.6007 64.4424C55.0277 65.2689 53.9344 66.622 53.5645 68.2851C53.3278 69.3549 53.3745 70.778 53.6945 72.0045C54.0044 73.2076 54.5344 74.1241 55.2409 74.7107C54.861 75.5705 54.2877 77.0903 54.0011 78.9633C53.5512 81.9228 53.9878 84.689 55.2642 87.0986C54.6643 87.6518 52.8581 89.5882 52.8581 92.9643C52.8581 94.1407 54.2211 98.1734 56.3807 103.746C51.7182 104.059 45.5559 104.392 39.5769 104.716C36.3275 104.892 33.178 105.062 30.3918 105.222L31.3117 82.5094C31.3317 82.0128 30.9451 81.5962 30.4518 81.5762C29.9552 81.5562 29.5386 81.9428 29.5186 82.4394L28.5887 105.332C27.049 105.425 25.6559 105.512 24.4628 105.595C23.9662 105.629 23.5929 106.059 23.6296 106.555C23.6629 107.029 24.0562 107.392 24.5261 107.392C24.5461 107.392 24.5694 107.392 24.5894 107.392C28.2454 107.135 33.7978 106.835 39.6768 106.519C45.9058 106.182 52.338 105.835 57.0706 105.509C61.6165 117.037 69.0119 133.987 74.9775 146.452C67.5421 147.592 56.3008 149.035 45.6426 149.871V149.868ZM143.379 114.071C140.563 127.052 133.391 139.363 127.869 147.402C124.546 152.241 120.01 156.147 114.748 158.697C109.655 161.166 104.143 162.256 98.8069 161.846C94.2976 161.503 90.0084 160.056 86.409 157.663C82.4797 155.054 79.3569 151.384 77.124 146.759C77.124 146.759 77.1239 146.752 77.1206 146.749C66.7057 125.149 54.661 95.8138 54.661 92.9676C54.661 90.658 55.7075 89.2382 56.2475 88.6583C56.3941 88.855 56.5441 89.0516 56.7041 89.2416C56.7841 89.3349 56.8806 89.4149 56.9872 89.4682C57.1239 89.5382 58.7003 90.308 61.4232 90.308C64.6926 90.308 69.6186 89.1982 75.6875 84.4357C79.9835 81.0629 80.7066 77.1836 80.8232 76.0738C80.8766 75.5672 80.9299 75.014 80.9799 74.424C81.0233 74.4074 81.0632 74.3874 81.1065 74.3641C81.9731 73.8475 83.6362 74.1608 84.4227 74.7773C86.0191 76.637 105.096 111.641 111.455 123.696C111.615 124.002 111.928 124.176 112.251 124.176C112.391 124.176 112.535 124.142 112.671 124.072C113.111 123.842 113.278 123.296 113.048 122.859C112.981 122.733 112.911 122.599 112.838 122.463C113.034 122.483 113.231 122.496 113.428 122.496C113.978 122.496 114.521 122.413 115.011 122.246C116.057 121.886 116.827 121.183 117.237 120.206C117.627 119.286 117.62 118.173 117.22 117.077C116.864 116.094 116.311 115.197 115.667 114.394C115.934 114.421 116.194 114.434 116.441 114.434C118.32 114.434 119.663 113.707 120.28 112.291C120.61 111.531 120.487 110.558 119.93 109.548C118.91 107.705 116.371 105.555 112.048 103.979L115.078 95.8171C115.251 95.3505 115.014 94.834 114.548 94.6607C114.081 94.4874 113.564 94.724 113.391 95.1906L110.338 103.412C108.802 102.956 107.079 102.566 105.156 102.279C104.136 102.126 103.076 102.026 102.006 101.986C101.936 101.986 101.866 101.989 101.803 102.003C100.427 99.4765 99.0135 96.8936 97.6038 94.3274C86.539 74.1908 85.8757 73.6475 85.5924 73.4176C84.5493 72.5644 82.6631 72.0778 81.1367 72.4477C81.2 71.5712 81.2566 70.6514 81.3065 69.7148C81.3365 69.7148 81.3698 69.7148 81.3998 69.7148C90.085 69.7148 95.4242 65.6455 96.824 64.4291C98.4903 64.7757 104.743 66.1754 112.178 68.9916C126.609 74.454 134.268 80.943 138.15 85.4222C144.226 92.431 145.986 102.073 143.383 114.074L143.379 114.071ZM113.298 112.011C113.281 112.004 113.261 112.001 113.245 111.994C112.335 111.265 111.488 110.718 110.935 110.388C110.735 110.268 110.535 110.148 110.332 110.028C108.729 109.065 107.069 108.068 105.266 107.412C105.089 107.348 104.903 107.342 104.733 107.385C104.103 106.222 103.456 105.032 102.8 103.826C103.51 103.876 104.213 103.952 104.893 104.052C106.959 104.362 108.772 104.789 110.352 105.292C110.415 105.339 110.485 105.376 110.562 105.406C110.662 105.442 110.762 105.459 110.862 105.462C115.081 106.895 117.494 108.858 118.357 110.418C118.68 110.998 118.707 111.404 118.634 111.571C117.81 113.461 114.044 112.271 113.298 112.014V112.011ZM115.531 117.693C115.774 118.363 115.794 119.01 115.581 119.51C115.371 120.006 114.981 120.356 114.424 120.55C113.598 120.833 112.498 120.723 111.671 120.276C110.178 117.477 108.199 113.791 105.962 109.658C107.139 110.215 108.289 110.901 109.408 111.574C109.612 111.698 109.815 111.818 110.015 111.938C111.328 112.718 114.491 114.844 115.531 117.697V117.693Z" fill="black"/>
<path d="M72.5445 39.1367C72.4179 40.9364 74.0443 42.5228 76.174 42.6728C76.2839 42.6794 76.3938 42.6861 76.5038 42.6861C77.3803 42.6861 78.2168 42.4361 78.8934 41.9729C79.7032 41.4163 80.2032 40.5798 80.2665 39.6833C80.3932 37.8836 78.7669 36.2972 76.6373 36.1472C74.5076 35.9972 72.6746 37.337 72.5479 39.1367H72.5445ZM76.3105 37.9302C76.3738 37.9302 76.4406 37.9302 76.5072 37.9369C77.627 38.0169 78.5269 38.7568 78.4703 39.5533C78.437 40.0299 78.0802 40.3432 77.8703 40.4898C77.4537 40.7764 76.8805 40.9197 76.3006 40.8797C75.1807 40.7998 74.2809 40.0599 74.3375 39.2633C74.3908 38.5135 75.274 37.9336 76.3105 37.9336V37.9302Z" fill="black"/>
<path d="M98.9671 38.7934C99.0638 38.7934 99.1603 38.7768 99.257 38.7434C101.163 38.0902 103.153 38.4035 103.173 38.4068C103.663 38.4868 104.123 38.1569 104.206 37.667C104.289 37.177 103.956 36.7138 103.47 36.6338C103.37 36.6171 101.027 36.2405 98.6771 37.0437C98.2072 37.2037 97.9572 37.717 98.1172 38.1835C98.2438 38.5568 98.5939 38.7901 98.9671 38.7901V38.7934Z" fill="black"/>
<path d="M71.1986 34.2608C72.0051 33.6809 72.685 34.2608 72.8783 34.4541C73.055 34.6374 73.2882 34.7307 73.5249 34.7307C73.7482 34.7307 73.9682 34.6508 74.1415 34.4841C74.5014 34.1442 74.5181 33.5743 74.1748 33.2143C73.5316 32.5344 71.8585 31.5713 70.1488 32.8011C69.7455 33.091 69.6522 33.6509 69.9421 34.0542C70.2321 34.4575 70.7921 34.5508 71.1953 34.2608H71.1986Z" fill="black"/>
<path d="M38.5908 18.5681C40.4038 18.1548 41.737 18.9913 42.1102 20.6444C42.4868 22.2974 41.6503 23.6272 39.8339 24.0405C38.0209 24.4537 36.6946 23.6439 36.3147 21.9641C35.9314 20.2844 36.7745 18.9813 38.5908 18.5681ZM35.5648 17.9182L35.1881 16.2651C34.7148 14.1788 34.7482 12.8324 36.0613 11.5926C37.0911 10.6161 37.9377 9.82619 38.391 9.18296C39.0775 8.1998 39.1607 7.55657 38.9508 6.6334C38.6675 5.38694 37.4878 4.83036 36.268 5.10698C35.0215 5.39027 34.055 6.26678 33.9817 7.44992C33.8984 8.83635 32.9286 9.82619 31.4122 10.0561C30.1491 10.2594 28.8459 9.67289 28.5193 7.97984C27.876 4.6504 30.8422 1.29763 35.1781 0.311127C39.674 -0.712034 43.4234 0.741055 44.4765 5.37361C44.8898 7.18664 44.7799 8.57973 44.0634 9.9395C43.4668 11.0726 42.3836 12.3158 41.2538 13.4856C40.6139 14.1721 40.6006 14.7454 40.7605 15.4486L41.0372 16.6684L35.568 17.9148L35.5648 17.9182Z" fill="#FCC253"/>
<path d="M30.073 39.7778C31.0995 38.9479 32.206 39.0646 32.9625 40.0011C33.719 40.9342 33.5991 42.0441 32.5726 42.8739C31.5461 43.7038 30.4495 43.6005 29.683 42.6506C28.9164 41.7008 29.0465 40.6076 30.073 39.7778ZM27.9466 40.311L27.19 39.3778C26.2369 38.198 25.8403 37.3315 26.2869 36.1317C26.6402 35.1886 26.9301 34.422 27.0167 33.8688C27.1467 33.0289 26.9968 32.5923 26.5769 32.0724C26.007 31.3692 25.0805 31.3825 24.394 31.9391C23.6908 32.509 23.3473 33.3689 23.6706 34.1454C24.0506 35.0552 23.7406 35.9884 22.8508 36.6083C22.1076 37.1316 21.0978 37.1649 20.3613 36.1917C18.9115 34.2754 19.7546 31.2125 22.2042 29.2329C24.7471 27.1766 27.5867 26.9333 29.703 29.5528C30.5328 30.5793 30.8962 31.4992 30.8662 32.589C30.8395 33.4955 30.5395 34.6253 30.1829 35.7218C29.9896 36.3583 30.1597 36.7283 30.4829 37.1249L31.0395 37.8148L27.9466 40.3144V40.311Z" fill="#FCC253"/>
</svg>
