<svg width="19" height="20" viewBox="0 0 19 20" fill="none" xmlns="http://www.w3.org/2000/svg">
<path d="M17.2636 3.18252C17.2636 3.18252 14.9378 1.20742 11.4801 1.29773C8.02135 1.38706 3.19171 3.33206 2.71475 10.3041C2.71475 10.3041 2.65476 12.6978 3.87765 13.2066C3.87765 13.2066 4.2927 11.0431 5.7265 11.1421C6.67269 11.2072 5.90161 12.3928 5.72166 14.1058C5.6133 15.1302 5.47689 17.4898 6.94551 19.5086C6.94551 19.5086 0.446983 18.2259 0.0125865 10.1206C-0.422777 2.01532 10.5368 -3.94687 17.2656 3.18252H17.2636Z" fill="#EB4335"/>
<path d="M4.85083 6.76469C4.85083 6.76469 6.97154 3.35342 10.5338 3.54471C14.096 3.73601 16.7605 6.32869 16.9781 9.73899C17.1958 13.1493 15.4824 14.2145 15.4824 14.2145C15.4824 14.2145 15.2647 11.7588 13.443 11.5947C11.6212 11.4305 14.0951 13.0687 13.144 17.2714C13.144 17.2714 18.6093 16.9713 18.9895 10.1488C19.3697 3.32623 9.20157 -1.1493 4.85083 6.76469Z" fill="#EB4335"/>
<path d="M10.4738 10.6964C9.85268 10.2595 9.02936 10.2245 8.39082 10.6353C7.58492 11.1548 6.64453 12.3375 6.64453 15.0331C6.64453 17.7287 7.56751 18.9852 8.3589 19.565C8.98389 20.0223 9.82656 20.0291 10.4767 19.6096C11.3552 19.0435 12.4852 17.8016 12.4349 15.17C12.3846 12.5424 11.302 11.28 10.4719 10.6964H10.4738Z" fill="#EB4335"/>
<path d="M11.7026 20C11.7026 20 14.965 19.3727 16.5971 17.653C16.5971 17.653 13.9056 19.127 12.4911 19.0445L11.7026 20Z" fill="#EB4335"/>
<path d="M5.53019 10.7489C6.03779 10.7489 6.44929 10.3359 6.44929 9.82639C6.44929 9.31691 6.03779 8.9039 5.53019 8.9039C5.02258 8.9039 4.61108 9.31691 4.61108 9.82639C4.61108 10.3359 5.02258 10.7489 5.53019 10.7489Z" fill="#EB4335"/>
<path d="M9.43395 9.58362C10.3605 9.58362 11.1116 8.82976 11.1116 7.89983C11.1116 6.96991 10.3605 6.21605 9.43395 6.21605C8.50744 6.21605 7.75635 6.96991 7.75635 7.89983C7.75635 8.82976 8.50744 9.58362 9.43395 9.58362Z" fill="#EB4335"/>
<path d="M13.4983 10.7974C14.0593 10.7974 14.5141 10.3409 14.5141 9.77783C14.5141 9.21473 14.0593 8.75824 13.4983 8.75824C12.9372 8.75824 12.4824 9.21473 12.4824 9.77783C12.4824 10.3409 12.9372 10.7974 13.4983 10.7974Z" fill="#EB4335"/>
</svg>
