<svg width="350" height="208" viewBox="0 0 350 208" fill="none" xmlns="http://www.w3.org/2000/svg">
<g clip-path="url(#clip0_818_10945)">
<path d="M37.8034 23.2256C36.0289 25.7526 37.0295 61.8703 38.5958 62.7314C40.1606 63.5925 84.8397 61.8946 85.8926 60.1526C86.9456 58.4106 86.6758 21.6951 84.1336 20.3183C81.5914 18.9414 38.7346 21.899 37.8034 23.2241V23.2256Z" fill="#3B3B4D"/>
<path d="M96.2682 39.62C96.4671 43.5589 92.004 47.0428 86.4493 47.3167C80.8932 47.5905 76.2296 44.6178 76.0292 40.6789C75.8303 36.74 80.8084 32.1211 86.3645 31.8488C91.9207 31.575 96.0693 35.6812 96.2682 39.6215V39.62Z" fill="#3B3B4D"/>
<path d="M36.9783 21.9522C35.2039 24.4792 36.9706 60.6851 38.5354 61.5462C40.1002 62.4073 84.0115 60.5588 85.0645 58.8184C86.1174 57.0764 85.4668 21.6312 82.9246 20.2544C80.3824 18.8775 37.908 20.6271 36.9783 21.9522Z" fill="#3A3B99"/>
<path d="M85.6329 46.0313C91.1884 45.7574 95.5304 42.3421 95.331 38.4029C95.1316 34.4637 90.4662 31.4925 84.9107 31.7663C79.3552 32.0402 75.0132 35.4556 75.2126 39.3947C75.4121 43.3339 80.0774 46.3052 85.6329 46.0313Z" fill="#3A3B99"/>
<path d="M187.875 84.4141C187.503 86.1865 187.952 90.8618 187.164 92.6905L182.568 92.1899C182.568 92.1899 178.114 91.6422 179.175 90.9576C180.596 90.0448 180.015 90.5301 180.68 89.8302C181.084 89.4058 181.569 88.5158 182.033 87.5345C182.281 87.005 182.527 86.4467 182.744 85.9249C183.077 85.1307 183.356 84.4111 183.523 83.9668C183.632 83.6808 183.694 83.5089 183.694 83.5089L183.737 83.1529L186.667 79.8956C186.667 79.8956 188.279 82.4713 187.873 84.4141H187.875Z" fill="#EFAEA6"/>
<path opacity="0.14" d="M182.76 85.9355C182.76 85.9355 182.751 85.9279 182.746 85.9233C183.079 85.1291 183.358 84.4095 183.525 83.9653L184.662 83.877C184.662 83.877 186.791 83.6914 187.018 84.2969C187.359 85.2082 184.783 87.5299 182.76 85.9355Z" fill="#050D2E"/>
<path d="M160.216 65.4334C160.185 60.8875 158.069 59.6551 159.231 57.3761C160.446 54.9936 163.212 56.016 163.801 57.224C164.289 58.2296 163.011 60.3322 164.22 60.5893C164.875 60.7292 165.523 59.1683 165.561 59.9381C165.6 60.7095 165.406 61.3271 164.951 62.2856C164.191 63.8861 164.117 66.8695 164.117 66.8695L160.216 65.4334Z" fill="#EFAEA6"/>
<path d="M199.689 178.694C197.956 178.11 193.818 176.08 193.818 176.08L195.79 171.439L201.974 174.545L202.569 178.475L199.689 178.694Z" fill="white"/>
<path d="M198.158 178.446C197.683 178.697 198.318 180.025 198.93 180.518C200.333 181.646 198.158 186.835 197.879 187.809C197.734 188.311 199.721 190.129 200.799 187.792C201.73 185.772 204.739 179.307 205.744 177.091C205.954 176.627 205.841 176.087 205.462 175.781C204.11 174.685 200.527 173 200.19 173.593C199.989 174.507 199.964 177.489 198.156 178.448L198.158 178.446Z" fill="#050D2E"/>
<path d="M185.898 194.1C185.821 192.294 186.233 187.753 186.233 187.753L191.331 187.882L190.645 194.696L187.152 196.669L185.898 194.101V194.1Z" fill="white"/>
<path d="M185.335 192.682C184.788 192.73 184.9 193.228 184.73 193.989C184.342 195.732 177.902 197.025 176.896 197.215C176.376 197.314 175.627 199.882 178.226 199.782C180.474 199.695 187.677 199.441 190.137 199.332C190.652 199.309 191.088 198.967 191.196 198.495C191.579 196.811 191.614 192.215 190.925 192.183C190.008 192.417 187.826 192.458 185.335 192.682Z" fill="#050D2E"/>
<path d="M197.112 135.23C196.993 136.038 196.85 136.914 196.668 137.874C195.99 141.472 194.254 153.643 193.964 161.427C193.677 169.172 191.707 189.746 191.645 190.418C191.583 191.09 184.157 191.465 184.233 190.182C184.308 188.9 184.629 174.547 184.819 161.44C184.971 150.798 184.743 151.851 183.641 138.215C183.615 138.279 183.04 139.563 182.196 141.541C180.392 145.764 177.342 151.594 177.175 157.2C177.095 159.899 198.632 170.19 199.421 170.69C200.211 171.191 196.602 177.716 195.863 177.781C195.125 177.848 167.982 164.53 167.04 160.235C166.181 156.316 174.559 126.035 176.144 118.397C176.144 118.397 197.624 115.263 197.806 122.359C197.83 123.33 197.799 124.183 197.733 124.994C197.644 126.088 197.639 127.107 197.625 128.225C197.604 130.051 197.564 132.134 197.112 135.231V135.23Z" fill="#3B3B4D"/>
<path opacity="0.46" d="M185.762 134.456C185.762 134.456 185.761 134.461 185.759 134.467C185.722 134.44 185.706 134.428 185.701 134.423C185.712 134.425 185.762 134.456 185.762 134.456Z" fill="#050D2E"/>
<path opacity="0.79" d="M183.64 138.213C183.614 138.277 182.513 140.772 181.67 142.75L183.044 134.641C183.044 134.641 182.982 135.128 183.642 138.213H183.64Z" fill="#050D2E"/>
<path opacity="0.35" d="M197.376 133.12C197.203 133.071 189.151 130.845 188.312 126.789C188.312 126.789 195.37 127.842 197.626 128.225C197.604 130.051 197.516 132.094 197.378 133.12H197.376Z" fill="#050D2E"/>
<path d="M187.626 87.5391C185.824 86.9351 185.447 89.8789 183.588 89.9033C182.606 89.9155 182.85 89.5138 182.418 89.0452C182.151 88.7562 181.906 88.4367 181.427 88.8566C171.691 97.4007 179.669 121.044 178.402 122.576C177.364 123.83 184.9 127.197 189.829 126.357C196.589 125.204 196.651 118.133 196.547 116.774C196.444 115.415 193.675 92.2629 193.675 92.2629C193.675 92.2629 190.419 90.3065 187.626 87.5391Z" fill="white"/>
<path d="M180.663 124.531C180.507 126.289 180.185 127.571 179.468 128.131C178.182 129.135 176.488 129.234 174.592 127.048C174.486 126.925 174.387 126.794 174.296 126.654C171.809 122.87 174.432 113.039 174.874 110.626C175.053 109.652 175.391 108.347 175.696 106.99C176.073 105.303 173.901 97.7642 173.493 96.7845C171.903 92.9764 164.836 88.1141 161.238 84.2817C158.654 81.5296 159.181 66.051 159.057 64.8385C158.881 63.1345 164.798 64.0443 164.809 64.5068C164.859 66.8558 164.505 76.6611 166.287 79.5928C167.776 82.0407 175.421 86.4801 181.455 88.6618C181.455 88.6618 181.479 88.9509 181.44 89.599C181.411 90.1345 181.337 90.9165 181.173 91.983C181.079 92.6067 180.953 93.3294 180.786 94.1555C179.74 99.3799 182.532 103.325 181.492 109.658C181.044 112.391 180.914 115.164 180.859 117.711C180.803 120.319 180.823 122.688 180.661 124.533L180.663 124.531Z" fill="#137192"/>
<path d="M192.319 130.79C192.12 131.101 191.573 131.066 191.832 131.302C192.091 131.537 195.333 133.187 195.333 133.187C195.333 133.187 195.632 133.549 196.061 133.012C196.489 132.475 196.526 131.912 196.526 131.912L192.318 130.79H192.319Z" fill="#E79E9C"/>
<path d="M197.906 101.965C197.884 103.092 197.857 103.997 197.823 104.763C197.75 106.324 197.649 107.294 197.525 108.359C197.476 108.782 197.425 109.222 197.371 109.716C197.32 110.192 197.265 110.722 197.209 111.34C197.209 111.343 197.209 111.347 197.209 111.349C197.2 111.455 197.189 111.565 197.18 111.676C197.087 112.756 197.297 114.46 197.607 116.394C197.655 116.704 197.707 117.019 197.761 117.338C198.614 122.417 199.899 128.581 198.276 129.43C195.248 131.017 191.374 130.819 188.988 128.026C187.01 125.707 189.344 123.024 188.112 117.837C187.426 114.959 186.41 109.814 186.353 106.282C186.234 98.7698 187.313 89.6355 187.623 87.5375C187.623 87.5375 192.237 87.9483 195.779 92.0499C197.268 93.7736 197.96 98.5249 197.905 101.965H197.906Z" fill="#137192"/>
<path d="M190.02 96.6567C199.139 113.625 200.545 111.446 200.622 114.131C200.699 116.817 192.038 130.859 192.038 130.859C192.038 130.859 196.683 133.71 197.196 133.039C197.71 132.368 207.661 117.819 207.121 113.789C206.358 108.079 196.939 93.5881 195.744 92.0454C194.549 90.5027 189.016 89.5138 188.902 92.1306C188.788 94.7458 190.021 96.6582 190.021 96.6582L190.02 96.6567Z" fill="#137192"/>
<path opacity="0.24" d="M197.419 108.983C197.361 109.543 197.294 110.176 197.23 110.942C197.219 111.067 197.211 111.2 197.21 111.341C197.21 111.344 197.21 111.349 197.21 111.35C197.2 111.457 197.189 111.566 197.18 111.677C197.088 112.757 197.297 114.461 197.607 116.395C194.209 112.697 194.49 104.545 194.49 104.545L197.419 108.984V108.983Z" fill="#050D2E"/>
<path opacity="0.24" d="M198.204 119.94C197.864 121.107 192.494 130.113 192.494 130.113L197.922 118.28L198.204 119.94Z" fill="#050D2E"/>
<path d="M185.085 76.7767C183.905 77.8721 180.525 78.9827 181.348 79.7008C182.172 80.4204 178.852 82.0118 179.7 82.8075C181.757 84.7366 185.381 85.5718 186.564 84.8172C187.746 84.0626 190.133 81.1522 190.133 81.1522L185.085 76.7767Z" fill="#EFAEA6"/>
<path d="M186.231 79.8302C185.494 79.3205 185.333 79.4559 185.066 78.8245C184.799 78.1931 186.181 78.2753 185.436 77.3686C184.691 76.4618 183.78 75.5672 184.576 74.516C185.727 72.9931 186.806 74.338 187.449 75.1945C187.862 75.7468 188.971 74.7807 189.947 75.7209C190.711 76.4588 190.204 76.83 190.858 77.5177C191.253 77.933 192.719 77.9817 192.93 79.0725C193.321 81.0975 191.239 81.3348 191.364 83.2396C191.51 85.4608 186.455 85.4867 186.404 84.9025C186.345 84.2209 188.001 83.5058 187.876 82.8866C187.688 81.954 187.18 82.3694 186.293 82.3876C185.345 82.4074 184.366 81.5995 185.812 81.2222C187.258 80.8449 186.897 80.2927 186.23 79.8302H186.231Z" fill="#191939"/>
<path d="M184.625 173.82L192.65 178.58L192.846 176.462L184.623 172.311L184.625 173.82Z" fill="#050D2E"/>
<path d="M184.766 163.012L193.602 167.754L193.649 166.995L184.82 161.512L184.766 163.012Z" fill="#050D2E"/>
<path opacity="0.12" d="M176.547 203.37C269.153 203.37 344.226 202.233 344.226 200.83C344.226 199.428 269.153 198.291 176.547 198.291C83.9398 198.291 8.86719 199.428 8.86719 200.83C8.86719 202.233 83.9398 203.37 176.547 203.37Z" fill="#32323F"/>
<path d="M109.803 148.437C110.893 153.741 111.318 158.321 110.372 162.499C109.425 166.677 103.052 192.02 103.502 192.76C103.952 193.499 105.71 196.631 106.078 197.421C106.446 198.211 97.6404 195.014 97.6759 193.417C97.7113 191.819 98.2047 192.645 99.1713 190.28C100.138 187.914 101.293 179.394 101.445 177.613C101.598 175.831 101.297 158.14 101.906 156.181C102.515 154.221 109.801 148.436 109.801 148.436L109.803 148.437Z" fill="#EFAEA6"/>
<path d="M98.5026 190.242C98.7107 190.105 98.9851 190.121 99.1717 190.28C100.066 191.039 100.454 191.927 100.542 192.283C100.71 192.965 100.713 194.101 102.31 195.329C103.906 196.558 105.662 196.52 106.189 197.099C106.717 197.677 109.707 199.877 108.662 200.862C107.56 201.695 103.874 200.64 102.691 199.525C101.507 198.41 98.5134 195.493 98.4332 195.679C98.0617 196.094 97.8535 195.932 97.8535 195.932C96.9301 195.048 95.5688 193.998 95.4824 193.613C95.3961 193.227 96.0374 192.029 96.688 191.506C97.1459 191.139 98.0216 190.555 98.5026 190.239V190.242Z" fill="#1F1E39"/>
<path d="M112.403 151.154C112.442 151.936 113.072 156.026 113.874 160.94C114.115 162.419 114.37 163.972 114.631 165.531C115.829 172.706 117.11 180.032 117.361 180.943C117.852 182.712 119.777 191.314 119.675 193.929C119.574 196.545 118.789 195.922 119.328 197.473C119.868 199.021 131.218 197.395 130.57 196.764C129.924 196.134 125.549 195.352 124.838 194.798C124.356 194.422 123.138 177.331 122.227 165.038C122.105 163.389 121.988 161.825 121.878 160.401C121.605 156.811 121.383 154.1 121.252 153.099C120.684 148.747 118.772 149.925 115.109 149.94C115.109 149.94 112.298 149.058 112.403 151.156V151.154Z" fill="#EFAEA6"/>
<path d="M118.871 195.799C118.941 195.553 119.167 195.381 119.425 195.376C120.656 195.355 121.578 195.776 121.896 195.991C122.5 196.402 123.293 197.273 125.403 197.14C127.514 197.006 128.949 196.198 129.766 196.286C130.583 196.374 134.098 197.021 133.956 198.488C133.664 199.872 130.441 200.675 128.736 200.617C127.03 200.56 122.523 199.834 122.59 200.03C122.584 200.601 122.308 200.617 122.308 200.617C120.966 200.563 119.166 200.675 118.83 200.436C118.494 200.198 118.168 198.842 118.319 198.001C118.426 197.409 118.711 196.368 118.873 195.799H118.871Z" fill="#1F1E39"/>
<path d="M125.413 164.158C118.187 160.28 115.23 163.292 112.219 164.068C109.874 164.67 104.178 163.823 100.845 162.925C99.8951 162.668 99.1366 162.409 98.7019 162.178C95.9824 160.731 88.6764 162.846 86.3516 160.027C86.5489 159.793 86.7401 159.558 86.9297 159.326C98.7897 144.659 93.3924 132.974 100.441 121.819C100.445 121.811 100.452 121.802 100.456 121.795C100.472 121.769 100.489 121.741 100.506 121.716C101.576 120.605 102.716 119.785 103.886 119.195C110.889 115.654 118.93 120.333 118.93 120.333C119.095 120.608 119.265 120.949 119.44 121.35C119.462 121.399 119.48 121.446 119.502 121.496C122.76 129.248 127.206 157.667 125.416 164.159L125.413 164.158Z" fill="#0267A5"/>
<path d="M127.107 117.022C128.75 118.656 131.969 118.686 133.34 117.824C134.883 116.853 135.429 114.265 133.759 114.974C131.152 116.082 132.401 114.239 131.792 114.165C130.778 114.04 129.011 115.513 128.488 115.201C128.163 115.006 127.105 117.022 127.105 117.022H127.107Z" fill="#EFAEA6"/>
<path d="M122.594 68.6056C123.772 63.5972 122.645 60.9591 123.691 59.3114C125.62 56.2763 129.685 58.5492 128.25 60.2014C126.815 61.8521 127.086 65.2464 126.967 65.6906C126.215 68.496 122.594 68.6056 122.594 68.6056Z" fill="#EFAEA6"/>
<path d="M128.76 118.773C128.491 118.548 124.06 117.147 118.841 115.358C119.387 117.771 119.819 120.056 119.646 121.089C119.618 121.261 119.569 121.398 119.496 121.495C119.484 121.509 119.473 121.521 119.463 121.534C118.735 122.315 111.589 122.835 106.192 122.659C105.521 122.636 104.88 122.604 104.277 122.56C102.469 122.426 101.047 122.186 100.437 121.819C100.141 121.642 100.034 121.436 100.166 121.195C100.182 121.169 100.199 121.139 100.218 121.113C101.313 119.649 102.15 117.733 102.655 115.563C102.83 114.819 102.964 114.045 103.056 113.249C103.178 112.207 103.363 110.745 103.385 109.156C102.31 108.531 101.622 107.97 101.493 107.512C100.007 102.268 98.7441 95.8733 100.031 94.2758C101.188 92.8427 105.551 89.6493 107.165 89.5443C108.78 89.4378 111.134 90.1529 112.109 89.9916C113.083 89.8304 120.536 84.3245 121.433 82.3969C122.498 80.1133 121.733 66.5273 121.889 65.4441C122.043 64.3594 127.578 65.3528 127.374 66.0207C127.169 66.6886 128.398 83.3584 126.915 85.8245C125.734 87.7887 119.399 91.37 116.84 95.6466C115.709 97.5392 119.248 100.218 119.171 101.591C118.957 105.327 117.295 105.851 117.19 107.597C117.165 107.996 117.329 108.87 117.579 109.998C119.762 110.716 121.803 111.306 122.78 111.658C123.431 111.892 129.325 113.257 129.761 113.753C130.185 114.233 128.998 118.972 128.762 118.776L128.76 118.773Z" fill="white"/>
<path d="M110.937 86.4057C110.274 89.2035 110.396 90.6625 110.841 91.4613C111.282 92.2509 111.759 94.1724 110.858 94.1206C110.413 94.0948 107.807 92.8776 106.864 92.1702C105.919 91.4628 105.373 90.1133 105.373 90.1133C105.373 90.1133 107.496 86.5822 108.967 83.6231C110.436 80.6655 110.938 86.4057 110.938 86.4057H110.937Z" fill="#F5B1B4"/>
<path opacity="0.16" d="M110.508 89.0454C110.534 88.6742 110.585 88.2619 110.664 87.8009C110.69 87.6396 110.903 86.5777 110.937 86.4043C110.784 86.2521 110.514 86.03 110.356 85.9981C110.138 85.9539 109.687 85.998 109.488 85.7425C109.156 85.321 108.469 86.5092 108.746 87.2197C108.854 87.4951 109.628 88.557 110.507 89.0454H110.508Z" fill="#050D2E"/>
<path opacity="0.14" d="M114.211 108.837C108.055 104.814 107.224 104.02 106.993 100.235C106.199 103.34 106.791 104.223 107.127 104.804C107.463 105.385 111.92 107.764 114.211 108.837Z" fill="#050D2E"/>
<path opacity="0.14" d="M117.178 114.862C117.255 114.83 103.396 109.424 103.388 109.164C103.362 109.768 103.362 110.241 103.326 110.614C103.75 110.526 116.927 114.967 117.18 114.863L117.178 114.862Z" fill="#050D2E"/>
<path d="M109.999 79.0894C111.729 80.9272 113.346 81.3502 112.66 81.9314C112.142 82.371 115.622 86.2095 113.114 86.7009C110.621 87.1908 108.217 86.9321 106.915 84.6242C105.612 82.3163 104.787 80.9957 104.787 80.9957L109.998 79.0879L109.999 79.0894Z" fill="#F5B1B4"/>
<path d="M110.569 79.3496C110.313 80.7903 109.404 81.7594 109.149 82.3756C109.006 82.724 108.311 82.8944 108.019 82.6555C107.693 82.3877 107.127 82.5262 106.721 83.0267C106.233 83.6277 107.133 84.1343 107.632 84.5207C108.004 84.8083 108.14 85.4305 108.032 85.8869C107.619 87.6289 110.833 90.4876 102.633 95.4184C100.565 96.6446 98.2622 97.5042 96.073 98.0413C91.6577 99.1245 87.7095 98.8902 87.1129 97.6868C86.6781 96.8089 88.1073 94.711 89.3437 93.7586C90.5801 92.8062 91.4111 93.5486 92.3468 92.7758C93.4183 91.8918 90.7635 89.5519 94.3186 88.0792C97.8737 86.6065 98.3994 87.3505 99.3475 86.3905C100.294 85.432 99.6574 78.493 104.059 77.1922C107.107 76.2916 108.897 77.1968 109.709 77.8388C110.05 78.1081 110.648 78.922 110.572 79.3511L110.569 79.3496Z" fill="#050D2E"/>
<path opacity="0.16" d="M100.845 162.925C99.8951 162.668 99.1366 162.409 98.7019 162.178C95.9824 160.731 88.6764 162.846 86.3516 160.027C86.5489 159.793 86.7401 159.558 86.9297 159.326C98.7897 144.659 93.3924 132.974 100.441 121.819C100.145 121.642 100.038 121.436 100.17 121.195C100.186 121.169 100.203 121.139 100.222 121.113C101.317 119.649 102.154 117.732 102.659 115.563C103.108 116.429 103.674 117.418 103.885 119.195C104.013 120.264 104.153 121.388 104.28 122.56C104.297 122.713 104.312 122.869 104.329 123.024C105.576 135.098 105.847 151.933 100.845 162.925Z" fill="#050D2E"/>
<path d="M55.084 196.175C55.4078 194.425 56.4808 190.13 56.4808 190.13L51.1142 189.499L50.1445 196.211L53.5609 198.509L55.084 196.175Z" fill="#EFAEA6"/>
<path d="M52.9831 195.426C53.6398 195.414 55.143 194.536 55.7396 194.964C57.3136 196.093 59.0526 198.687 63.1766 198.3C64.7075 198.156 65.6756 201.434 63.0008 201.268C60.6883 201.125 53.0756 201.173 50.5457 201.001C50.0169 200.964 49.502 200.109 49.4033 199.598C49.0534 197.774 49.4342 194.752 50.1433 194.734C51.0822 195.006 50.8309 195.466 52.9831 195.426Z" fill="#131A23"/>
<path d="M24.4982 191.586C25.5342 190.132 28.3323 186.674 28.3323 186.674L23.7273 183.882L19.998 189.577L22.1255 193.074L24.4997 191.585L24.4982 191.586Z" fill="#EFAEA6"/>
<path d="M23.5226 190.424C24.1161 190.699 25.1521 190.333 25.4959 190.976C26.404 192.676 27.2257 195.779 31.0983 197.228C32.5367 197.766 31.5454 201.034 29.2206 199.721C27.2102 198.585 20.3591 195.309 18.1668 194.053C17.709 193.789 17.6288 192.797 17.7706 192.297C18.2732 190.508 19.9675 187.962 20.6119 188.255C21.3319 188.907 21.577 189.522 23.5241 190.424H23.5226Z" fill="#131A23"/>
<path d="M70.1103 68.5537C70.5805 63.8739 73.2722 62.2978 74.0523 59.8559C74.7245 57.7534 69.5553 56.7493 69.455 57.9329C69.3579 59.0846 68.2957 61.922 67.6112 62.0756C66.9838 62.2156 66.3285 62.1806 66.2777 62.3282C65.7782 63.8054 67.6266 63.3916 67.269 64.3455C66.9128 65.2994 66.2777 67.1069 66.2777 67.1069L70.1087 68.5537H70.1103Z" fill="#EFAEA6"/>
<path d="M26.4391 121.863C28.8795 122.873 32.4577 127.635 31.5944 130.049C30.7311 132.464 30.1422 132.564 29.1 132.036C28.1349 131.548 29.063 128.443 27.9977 128.96C27.4196 129.24 27.2392 130.083 26.7443 129.526C26.2494 128.969 26.8754 128.574 26.6395 127.585C26.2464 125.933 23.752 124.607 23.752 124.607L26.4375 121.863H26.4391Z" fill="#EFAEA6"/>
<path d="M44.8294 88.96C44.8695 89.0269 44.9126 89.0939 44.9543 89.1608C45.6773 90.3155 45.5817 93.2609 45.5817 93.2609L47.3808 91.6102L38.0877 95.149C37.4926 93.7904 39.617 90.0706 39.2655 88.1962C39.0898 87.256 37.8688 85.864 37.636 85.5658C36.5491 84.1707 35.5362 83.5743 35.8029 81.9692C36.2207 79.4468 40.7517 77.0415 41.3776 77.7702C41.5826 78.0121 42.3797 79.0254 42.5631 79.2216C44.4409 81.2222 45.1038 80.9225 45.3983 81.4307C45.7205 81.989 44.2482 81.9038 45.3381 83.1818C46.6671 84.7366 47.2066 85.7681 44.3129 86.7038C44.2343 86.7281 44.1526 86.754 44.0678 86.7783C43.6593 87.256 44.2636 88.0365 44.8278 88.9585L44.8294 88.96Z" fill="#EFAEA6"/>
<path opacity="0.16" d="M44.9538 89.1624C42.1742 88.0685 42.703 86.8331 44.2925 86.6886C44.2925 86.6886 44.3002 86.6932 44.3141 86.7053C44.2354 86.7297 44.1537 86.7555 44.0689 86.7799C43.6604 87.2576 44.2647 88.0381 44.829 88.96C44.8691 89.027 44.9122 89.0939 44.9538 89.1608V89.1624Z" fill="#050D2E"/>
<path d="M40.3281 81.0321C41.1683 80.6137 41.3132 80.7795 41.6894 80.1603C42.064 79.5411 40.6256 79.4103 41.5367 78.5766C42.4479 77.7428 42.2228 75.9948 41.6709 75.3284C40.5886 74.02 40.0845 75.4714 39.5958 75.7544C38.9668 76.121 38.2931 75.3117 37.1384 76.1439C36.2319 76.7965 36.6974 77.2651 35.9158 77.8828C35.4441 78.2555 33.7267 78.394 33.3366 79.5046C32.6136 81.5646 32.9497 82.5702 33.426 84.1676C34.0997 86.4284 38.5336 87.3169 38.9067 86.8164C40.1169 85.19 37.957 85.2874 37.8629 84.6271C37.7026 83.4967 38.9483 83.5423 39.8609 83.7021C40.8368 83.871 41.9746 83.1787 40.5408 82.5565C39.1086 81.9358 39.5665 81.4124 40.3281 81.0336V81.0321Z" fill="#54271B"/>
<path d="M61.2549 162.383C61.1855 167.632 58.8483 190.426 57.1633 192.09C56.4973 192.747 49.3532 192.823 49.4457 191.906C49.7879 188.528 52.6508 169.116 52.2454 163.817C51.9586 160.085 45.9924 144.506 45.9924 144.506C45.9924 144.506 45.7164 149.406 45.4589 154.375C45.2277 158.822 45.4435 161.627 44.4183 165.574C43.3931 169.52 28.7658 188.461 28.1645 189.152C27.3706 190.062 21.0867 185.887 21.3519 185.365C22.28 183.543 34.4144 167.905 35.3949 163.55C36.5712 158.329 30.9118 139.821 32.3132 127.431C33.474 117.188 53.1318 124.679 53.1318 124.679C54.0183 128.761 61.3535 154.805 61.2549 162.383Z" fill="#4B4B5B"/>
<path d="M65.9592 85.5978C64.4607 89.1487 57.0668 96.6308 53.1988 99.6919C53.1541 99.7284 53.1094 99.7649 53.0662 99.8014C52.6006 100.189 52.2985 100.591 52.2013 101.003C52.1582 101.183 52.1196 101.394 52.0796 101.633C51.7111 103.926 51.2162 110.246 51.8298 115.181C51.8391 115.246 51.8468 115.315 51.856 115.382C52.4958 120.37 55.1043 127.433 54.7883 128.692C53.9373 132.084 40.8562 132.75 36.1865 132.653C33.228 132.59 31.7172 130.987 31.1206 129.026C28.6878 121.022 30.8508 103.174 30.8508 103.174C30.8508 103.174 20.0113 108.616 20.2996 110.698C20.6049 112.894 27.5177 121.277 28.3333 122.481C28.9083 123.333 25.0958 127.947 23.9441 126.669C22.1805 124.714 13.0476 113.112 12.9135 110.319C12.6252 104.355 31.025 92.552 35.132 91.1173C40.0314 89.4043 45.031 91.0306 48.1175 90.3338C53.3638 89.1502 59.626 84.2605 60.4107 82.6402C62.0603 79.2369 65.7094 67.1738 65.5583 65.8243C65.4088 64.4931 71.6556 65.3314 71.5046 66.5151C71.17 69.1577 67.4561 82.0484 65.9576 85.5993L65.9592 85.5978Z" fill="#3A3B99"/>
<path opacity="0.16" d="M53.0658 99.7998C52.6002 100.188 52.2981 100.589 52.201 101.002C52.1578 101.181 52.1192 101.393 52.0792 101.632C51.7107 103.924 51.2158 110.244 51.8294 115.179C47.3817 107.002 48.2697 101.695 53.0643 99.7998H53.0658Z" fill="#050D2E"/>
<path opacity="0.16" d="M30.8528 103.171C30.9962 101.75 31.212 97.9879 30.4196 99.1944C29.5501 100.523 24.051 104.649 23.4004 107.299L30.8528 103.173V103.171Z" fill="#050D2E"/>
<path opacity="0.28" d="M45.9924 144.506C45.9924 144.506 45.7164 149.406 45.459 154.375C44.2596 148.382 43.0725 141.776 42.8397 140.132C42.6516 138.807 45.9924 144.507 45.9924 144.507V144.506Z" fill="#050D2E"/>
<path opacity="0.77" d="M224.202 0.376024C229.415 0.742678 234.396 0.261923 239.511 -0.96279C240.296 -1.15144 241.128 -1.40247 241.658 -2.09926C242.463 -3.1551 242.221 -4.93208 241.353 -5.91794C240.485 -6.90379 239.176 -7.19894 237.968 -7.06202C237.194 -6.97378 236.401 -6.73188 235.655 -6.9829C234.723 -7.29631 234.106 -8.28825 233.48 -9.1524C232.856 -10.0165 232.009 -10.87 231.046 -10.7346C230.324 -10.6327 229.755 -10.0013 229.112 -9.60577C228.47 -9.21021 227.537 -9.16761 227.168 -9.89787C226.381 -11.4588 227.486 -15.7385 223.427 -15.7385C217.565 -15.7385 218.523 -11.4314 217.818 -10.5171C216.748 -9.1311 214.844 -9.43689 213.295 -9.90548C211.746 -10.3741 209.9 -10.8198 208.705 -9.57991C207.669 -8.50581 207.561 -6.53562 206.461 -5.55433C205.287 -4.50914 203.621 -5.06749 202.2 -5.53607C200.778 -6.00618 198.945 -6.17809 198.12 -4.75104C197.428 -3.55523 197.945 -1.81933 198.928 -0.943017C199.912 -0.0667 201.208 0.147818 202.445 0.234536C210.474 0.800491 217.763 -0.0788708 224.202 0.3745V0.376024Z" fill="white"/>
<path opacity="0.18" d="M182.65 90.8937C182.813 90.81 183.996 93.9365 185.946 95.143C186.484 95.4761 187.074 95.7317 187.708 95.8397C189.563 96.1531 197.087 96.3266 197.087 96.3266C197.087 96.3266 196.005 94.4355 195.097 93.6748C193.335 94.0141 189.092 94.2195 188.129 94.0034C187.415 93.8437 186.755 93.5668 186.154 93.2245C185.022 92.5825 184.096 91.7107 183.405 90.9668C183.054 90.5864 183.054 90.0691 182.587 89.9976C181.967 89.9018 182.442 90.9987 182.651 90.8922L182.65 90.8937Z" fill="#050D2E"/>
<path d="M181.776 90.1832C181.829 89.8941 182.091 89.4468 182.711 89.5411C183.178 89.6127 183.195 89.8043 183.546 90.1847C184.605 91.3257 186.215 92.7634 188.27 93.2229C190.325 93.6823 195.386 91.5235 198.388 92.5322C201.389 93.5408 202.009 96.3721 206.374 97.574C210.737 98.7759 215.732 97.4645 217.017 97.8357C218.303 98.2069 219.063 98.5797 218.971 99.0893C218.878 99.5975 218.126 100.372 217.164 100.63C216.2 100.889 208.023 100.515 205.914 99.9869C202.47 99.1274 199.826 95.6708 197.595 95.2189C195.365 94.7671 190.474 95.5034 187.85 95.0592C184.923 94.5632 182.92 90.9058 182.711 91.0123C182.501 91.1188 182.307 91.2223 181.94 91.0853C181.687 90.991 181.724 90.4738 181.776 90.1847V90.1832Z" fill="#F4AD00"/>
<path d="M142.271 20.8828C139.97 23.8358 141.741 60.3125 140.777 59.7192C142.27 60.6396 187.474 61.2253 188.594 59.5686C189.713 57.9118 189.472 21.7455 187.047 20.2728C184.622 18.8001 143.25 19.6277 142.271 20.8828Z" fill="#3B3B4D"/>
<path d="M188.777 46.8529C194.238 46.8529 198.665 43.7141 198.665 39.8423C198.665 35.9705 194.238 32.8318 188.777 32.8318C183.316 32.8318 178.889 35.9705 178.889 39.8423C178.889 43.7141 183.316 46.8529 188.777 46.8529Z" fill="#3B3B4D"/>
<path d="M150.915 39.4741C150.915 43.3461 146.488 46.4847 141.027 46.4847C135.566 46.4847 131.139 43.3461 131.139 39.4741C131.139 35.6022 136.323 33.241 141.784 33.241C147.244 33.241 150.915 35.6022 150.915 39.4741Z" fill="#3B3B4D"/>
<path d="M141.01 19.5425C140.621 23.5224 141.93 59.3951 140.967 58.8002C142.459 59.7207 186.605 60.2425 187.724 58.5857C188.843 56.929 188.707 21.5842 186.282 20.1115C183.857 18.6388 141.164 17.9648 141.01 19.541V19.5425Z" fill="#3A3B99"/>
<path d="M187.906 45.87C193.367 45.87 197.794 42.7313 197.794 38.8595C197.794 34.9877 193.367 31.8489 187.906 31.8489C182.445 31.8489 178.018 34.9877 178.018 38.8595C178.018 42.7313 182.445 45.87 187.906 45.87Z" fill="#3A3B99"/>
<path d="M150.046 38.4928C150.046 42.3647 146.084 45.409 140.622 45.409C135.16 45.409 131.084 42.5093 131.084 38.6358C131.084 34.7624 135.455 32.2597 140.915 32.2597C146.376 32.2597 150.046 34.6209 150.046 38.4928Z" fill="#3A3B99"/>
<path d="M128.717 39.2825C128.808 43.2016 133.853 47.9802 139.364 47.8966C139.281 54.5298 139.481 58.8414 139.065 59.4895C137.964 61.2026 90.8249 60.699 89.2832 59.7968C88.7051 59.456 89.2138 55.6237 88.907 49.1624C89.1475 49.17 89.3911 49.17 89.6362 49.1654C95.197 49.0406 100.382 44.4871 100.155 40.5498C99.8729 35.6388 95.103 31.3226 88.1686 31.3363C87.9311 31.3363 87.6953 31.353 87.4609 31.3698C87.4918 25.0636 87.7585 22.6492 88.4245 21.7516C89.3926 20.4523 135.636 18.1246 138.14 19.5684C139.04 20.0872 139.29 25.4303 139.554 31.5797H139.515C133.956 31.706 128.622 35.3406 128.713 39.2825H128.717Z" fill="#3B3B4D"/>
<path d="M127.427 38.2692C127.518 42.1883 132.796 47.962 138.308 47.8783C138.224 54.5115 138.433 57.3641 138.018 58.0122C136.917 59.7253 90.7287 59.2628 89.1871 58.3606C88.629 58.0305 88.8464 55.0531 88.538 48.9128C88.5211 48.5812 88.7862 48.3058 89.1223 48.2997C89.1609 48.2997 89.1994 48.2997 89.2379 48.2982C94.7987 48.1734 99.5779 42.9231 99.4869 38.9797C99.396 35.0378 93.7581 30.3748 88.1973 30.4995C87.9599 30.5056 87.724 30.5163 87.4897 30.533C87.5205 24.2269 86.7127 21.1704 87.3802 20.2728C88.3484 18.972 134.433 17.9618 136.937 19.4056C137.837 19.9244 138.246 23.9515 138.51 30.1009H138.471C132.912 30.2272 127.336 34.3258 127.427 38.2677V38.2692Z" fill="#3A3B99"/>
<path d="M232.608 39.3904C232.699 43.3095 238.159 48.0973 243.672 48.0151C243.589 54.6484 243.372 58.9493 242.957 59.5989C241.856 61.312 194.717 60.8084 193.175 59.9063C192.597 59.5655 193.036 54.9405 192.731 48.4792C192.972 48.4868 193.215 48.4868 193.46 48.4822C199.021 48.3574 204.275 44.5981 204.049 40.6592C203.766 35.7482 198.89 31.0548 191.956 31.0684C191.718 31.0684 191.482 31.0852 191.248 31.1019C191.279 24.7958 191.629 22.3464 192.296 21.4487C193.265 20.148 239.533 18.2341 242.037 19.6779C242.937 20.1966 243.187 25.5397 243.45 31.6892H243.412C237.853 31.8154 232.518 35.45 232.609 39.3919L232.608 39.3904Z" fill="#3B3B4D"/>
<path d="M231.317 38.3772C231.408 42.2963 237.103 48.079 242.616 47.9969C242.533 54.6301 242.325 57.4736 241.909 58.1217C240.808 59.8348 194.62 59.3723 193.078 58.4701C192.52 58.1399 192.668 54.3684 192.36 48.2297C192.343 47.898 192.608 47.6226 192.944 47.6165C192.982 47.6165 193.021 47.6165 193.059 47.615C198.62 47.4903 203.469 43.0341 203.378 39.0907C203.287 35.1488 197.541 30.1085 191.98 30.2332C191.743 30.2393 191.507 30.25 191.273 30.2667C191.303 23.9606 190.579 20.8691 191.246 19.9715C192.215 18.6722 238.323 18.0728 240.826 19.5166C241.727 20.0354 242.135 24.0625 242.399 30.2119H242.36C236.801 30.3382 231.225 34.4368 231.316 38.3787L231.317 38.3772Z" fill="#3A3B99"/>
<path d="M286.126 42.8927C286.295 47.6287 286.386 75.5142 288.137 74.7504C289.89 73.9867 326.008 42.7344 325.887 39.3509C325.662 33.0448 287.481 6.13758 286.287 7.58441C285.093 9.03125 286.126 42.8942 286.126 42.8942V42.8927Z" fill="#3B3B4D"/>
<path d="M246.765 21.0684C244.57 24.1005 247.728 61.1462 246.743 60.5863C248.268 61.4535 293.587 60.6137 294.646 58.9189C295.705 57.2241 293.968 20.2894 291.492 18.9019C289.016 17.5144 247.698 19.7798 246.765 21.0684Z" fill="#3B3B4D"/>
<path d="M256.068 39.3478C256.207 43.2182 251.895 46.509 246.437 46.6992C240.98 46.8893 236.443 43.9059 236.306 40.0355C236.167 36.1651 241.263 33.6259 246.721 33.4357C252.178 33.2456 255.931 35.4774 256.068 39.3478Z" fill="#3B3B4D"/>
<path d="M245.458 19.7737C245.213 23.7643 247.801 59.57 246.816 59.0086C248.341 59.8758 292.477 58.8626 293.536 57.1693C294.595 55.476 293.199 20.1571 290.723 18.7696C288.247 17.3821 245.555 18.1945 245.458 19.7737Z" fill="#3A3B99"/>
<path d="M255.164 38.397C255.302 42.2674 251.45 45.4471 245.992 45.6372C240.535 45.8274 236.357 43.0707 236.218 39.2003C236.079 35.3299 240.358 32.6751 245.815 32.4849C251.273 32.2947 255.025 34.5266 255.162 38.397H255.164Z" fill="#3A3B99"/>
<path d="M285.282 41.0746C285.451 45.8107 286.093 73.7159 287.846 72.9521C289.598 72.1884 325.088 41.6375 324.966 38.254C324.741 31.9478 286.589 2.54863 285.396 3.99546C284.201 5.4423 285.283 41.0746 285.283 41.0746H285.282Z" fill="#3A3B99"/>
<path d="M289.441 195.922C289.11 194.133 288.014 189.741 288.014 189.741L293.502 189.094L294.495 195.959L291.001 198.308L289.443 195.922H289.441Z" fill="white"/>
<path d="M290.826 195.14C290.156 195.128 288.924 194.784 288.314 195.221C286.702 196.376 284.979 198.402 280.762 198.007C279.198 197.859 278.61 201.301 281.345 201.132C283.71 200.986 291.494 201.034 294.081 200.858C294.622 200.821 295.148 199.946 295.248 199.425C295.606 197.559 295.217 194.469 294.491 194.45C293.531 194.728 293.025 195.181 290.826 195.142V195.14Z" fill="#54271B"/>
<path d="M316.269 194.573C315.454 192.942 313.18 189.014 313.18 189.014L318.278 186.91L321.138 193.243L318.429 196.447L316.269 194.575V194.573Z" fill="white"/>
<path d="M317.438 193.549C316.794 193.735 315.514 193.77 315.064 194.366C313.876 195.942 312.843 198.384 308.699 199.247C307.16 199.566 307.64 203.024 310.199 202.058C312.411 201.223 319.857 198.977 322.271 198.048C322.777 197.853 323.015 196.864 322.953 196.336C322.729 194.45 321.425 191.615 320.727 191.812C319.894 192.359 319.549 192.942 317.437 193.551L317.438 193.549Z" fill="#54271B"/>
<path d="M332.104 103.442C335.386 98.2923 337.849 98.303 338.713 95.9479C339.615 93.4863 337.21 92.4974 335.941 92.899C334.885 93.2322 334.566 96.2339 333.564 95.5569C333.021 95.1902 332.483 94.2819 331.9 94.7749C331.317 95.2678 332.497 96.2902 332.11 97.2563C331.465 98.872 329.359 100.936 329.359 100.936L332.102 103.442H332.104Z" fill="#EFAEA6"/>
<path d="M273.013 66.2398C271.713 60.1466 268.595 60.4859 268.829 57.9102C269.074 55.2174 273.237 55.9978 274.248 56.9198C275.088 57.6866 274.616 60.6867 275.853 60.4844C276.523 60.3748 276.187 60.4844 277.458 60.4844C278.25 60.4844 276.254 61.064 276.187 62.1351C276.076 63.9242 277.229 66.1576 277.229 66.1576L273.011 66.2398H273.013Z" fill="#EFAEA6"/>
<path d="M300.713 87.3657C300.688 87.4387 300.66 87.5117 300.633 87.5832C300.167 88.8353 299.584 90.0692 299.584 90.0692L298.784 90.4115L306.065 91.8644C306.366 90.4419 305.914 87.2318 305.506 85.5568C305.285 84.6424 306.79 83.0358 306.953 82.7042C307.721 81.1508 308.575 80.381 307.999 78.8885C307.094 76.5426 302.819 76.0268 302.054 76.5836C301.763 76.7966 301.447 77.358 301.309 77.5817C299.902 79.8713 299.125 79.882 298.944 80.4282C298.747 81.0276 300.087 80.5758 299.294 82.0165C298.326 83.7707 297.785 84.758 300.757 85.0958C300.838 85.1034 300.921 85.1125 301.007 85.1201C301.496 85.5005 301.07 86.3677 300.711 87.3642L300.713 87.3657Z" fill="#EFAEA6"/>
<path opacity="0.16" d="M300.633 87.5833C303.089 85.9904 303.073 84.615 300.776 85.0745C300.776 85.0745 300.77 85.0806 300.759 85.0958C300.839 85.1034 300.923 85.1125 301.009 85.1202C301.498 85.5005 301.072 86.3677 300.713 87.3642C300.688 87.4372 300.661 87.5103 300.633 87.5818V87.5833Z" fill="#050D2E"/>
<path d="M306.641 84.7276C306.196 85.3438 305.417 85.7773 304.856 85.1551C304.41 84.6606 304.253 83.7752 304.304 83.3492C304.42 82.374 305.701 81.5403 305.764 80.9561C305.858 80.0843 304.472 80.2775 303.84 80.8313C303.273 81.3288 303.083 80.4586 303.336 79.9915C303.516 79.6568 303.741 79.0528 303.683 78.8718C303.462 78.1872 302.923 78.6968 302.607 78.0731C302.291 77.4493 302.838 77.2941 301.981 76.6338C301.171 76.0101 301.239 73.8634 302.177 72.552C302.934 71.4931 303.152 73.6474 303.897 73.8314C304.523 73.9851 305.066 73.5302 305.931 74.0277C306.78 74.5145 306.837 75.1337 307.531 75.6312C308.433 76.2793 309.211 75.9112 309.664 77.2104C310.782 80.4175 309.842 81.627 309.055 82.7787C308.36 83.798 307.235 83.9106 306.641 84.7291V84.7276Z" fill="#3C3C4C"/>
<path d="M313.158 161.096C313.223 166.246 320.261 187.535 320.847 189.539C321.133 190.512 314.444 193.429 313.786 192.382C313.36 191.705 305.095 169.204 303.999 164.043C303.669 162.495 303.512 160.047 303.141 157.438C302.288 151.458 301.18 144.497 301.18 144.497C301.18 144.497 296.602 159.014 296.313 162.831C295.896 168.247 294.928 188.961 295.4 192.403C295.603 193.869 287.747 193.468 287.491 192.553C286.87 190.347 288.319 166.397 288.251 161.031C288.149 153.281 290.624 125.965 291.532 121.792C291.532 121.792 311.541 115.152 312.727 125.625C314.16 138.295 313.084 154.932 313.16 161.096H313.158Z" fill="#414154"/>
<path d="M334.99 101.42C334.914 102.549 326.576 112.847 322.994 112.92C321.53 112.952 320.005 111.677 318.639 110.002C316.404 107.261 314.594 103.444 314.173 102.526C314.113 102.394 314.082 102.321 314.082 102.321C314.082 102.321 316.017 118.723 314.244 125.715C313.729 127.746 310.837 128.466 307.857 129.318C303.27 130.628 291.654 127.921 290.781 126.328C289.628 124.224 292.133 115.093 292.57 109.97C292.896 106.137 293.399 102.695 292.243 100.118C291.524 98.5129 282.729 88.3927 278.249 83.3751C275.61 80.4191 273.675 69.4971 272.17 65.8564C271.674 64.6561 277.199 63.1164 277.706 63.9973C278.547 65.4563 281.892 77.9666 283.09 79.1244C285.33 81.2909 290.137 85.6694 295.659 87.81C299.749 89.3953 306.238 86.9839 312.482 89.7665C316.544 91.5754 320.178 101.492 323.835 105.704C324.292 106.229 328.817 100.676 330.32 98.449C331.082 97.3201 335.07 100.291 334.995 101.42H334.99Z" fill="#0069A8"/>
<path d="M299.643 81.3259C300.511 81.656 301.7 82.6601 302.252 81.9466C302.804 81.233 302.462 80.9318 302.767 80.7995C303.072 80.6686 303.186 80.3674 303.282 80.1985C303.377 80.0296 303.948 80.6869 303.663 80.9501C303.377 81.2133 303.619 82.0318 303.377 82.0972C302.673 82.2858 302.768 85.6116 301.683 85.461C301.06 85.3742 298.332 84.9346 298.045 84.4279C297.76 83.9198 298.464 82.8868 298.845 83.3006C299.226 83.7144 300.3 84.1937 300.673 84.3154C301.016 84.4279 302.178 83.8453 301.779 83.15C301.45 82.5795 299.522 82.3513 299.298 82.0181C299.075 81.6849 299.15 81.1387 299.647 81.3274L299.643 81.3259Z" fill="#3C3C4C"/>
<path opacity="0.19" d="M318.638 110.002C316.402 107.259 314.592 103.444 314.17 102.526C314.11 102.392 314.079 102.321 314.079 102.321L313.395 96.5336C313.395 96.5336 318.345 106.888 318.638 110.004V110.002Z" fill="#050D2E"/>
<path opacity="0.28" d="M303.139 157.438C302.286 151.458 301.178 144.497 301.178 144.497C301.178 144.497 303.109 136.928 303.618 137.73C303.951 138.256 303.614 148.936 303.14 157.438H303.139Z" fill="black"/>
<path d="M163.717 60.7979C164.23 59.1289 164.332 57.5604 165.152 57.9651C165.972 58.3698 165.408 61.1524 165.408 61.1524L163.717 60.7979Z" fill="#EFAEA6"/>
<path d="M125.025 61.3516C125.691 59.8317 126.591 58.6329 125.745 58.4305C124.898 58.2282 123.728 59.5837 123.779 61.2527C123.814 62.4196 125.025 61.3516 125.025 61.3516Z" fill="#F5B1B4"/>
<g opacity="0.76">
<path d="M35.8619 17.7504C35.8496 17.834 35.7957 17.9101 35.7124 17.9481C32.7 19.3448 30.7498 21.5188 29.7523 24.5936C29.7076 24.732 29.5581 24.8081 29.4178 24.764C29.2775 24.7198 29.2004 24.5723 29.2451 24.4338C30.2904 21.2115 32.3315 18.9355 35.4842 17.472C35.6168 17.4111 35.7756 17.4674 35.8373 17.5982C35.8604 17.6469 35.8666 17.7002 35.8589 17.7504H35.8619Z" fill="#603A3E"/>
<path d="M31.152 18.4045C31.1427 18.4639 31.1135 18.5202 31.0626 18.5628C29.7398 19.6932 28.8071 20.8068 28.1257 22.068C27.4628 23.2958 27.0373 24.6711 26.7845 26.3994C26.7845 26.3994 26.7845 26.4009 26.7845 26.4025C26.7629 26.5439 26.6287 26.6428 26.4838 26.6215C26.3389 26.6002 26.2372 26.4679 26.2587 26.3249C26.7737 22.7937 28.064 20.4295 30.7142 18.1657C30.8252 18.0714 30.9932 18.082 31.0888 18.1916C31.1412 18.2524 31.1628 18.33 31.1505 18.403L31.152 18.4045Z" fill="#603A3E"/>
</g>
<g opacity="0.76">
<path d="M181.203 66.1393C181.239 66.0815 181.302 66.042 181.376 66.0374C184.04 65.905 186.155 64.8781 187.84 62.8973C187.916 62.809 188.05 62.7968 188.141 62.8714C188.23 62.9459 188.243 63.0783 188.167 63.1681C186.4 65.2432 184.186 66.3204 181.398 66.4588C181.28 66.4649 181.18 66.3751 181.174 66.2595C181.172 66.2154 181.183 66.1758 181.205 66.1408L181.203 66.1393Z" fill="#603A3E"/>
<path d="M184.898 67.0674C184.922 67.0263 184.963 66.9928 185.012 66.9761C186.341 66.5349 187.375 65.9887 188.268 65.2569C189.137 64.5449 189.876 63.6534 190.596 62.4484C190.596 62.4484 190.596 62.4484 190.596 62.4469C190.656 62.348 190.785 62.3161 190.886 62.3739C190.987 62.4332 191.021 62.561 190.961 62.6614C189.492 65.1246 187.807 66.4908 185.146 67.3747C185.035 67.4112 184.913 67.3519 184.876 67.2423C184.856 67.1815 184.864 67.1176 184.896 67.0674H184.898Z" fill="#603A3E"/>
</g>
<path d="M179.97 39.1044C172.999 37.9771 172.043 35.0028 170.878 25.8091C169.848 34.5038 168.645 37.7884 161.527 38.683C167.688 41.2526 169.852 42.1837 170.814 52.2614C172.487 42.0909 173.861 41.2085 179.97 39.1044Z" fill="white"/>
<path d="M328.442 60.3261C324.102 59.6247 323.507 57.7732 322.783 52.0497C322.141 57.4613 321.394 59.506 316.963 60.0629C320.797 61.6618 322.144 62.2415 322.743 68.5142C323.783 62.1837 324.639 61.6345 328.442 60.3245V60.3261Z" fill="white"/>
<path d="M63.3593 14.8033C58.0375 13.9437 57.3068 11.6723 56.4172 4.65411C55.631 11.2904 54.7137 13.7991 49.2793 14.4807C53.9829 16.4418 55.6356 17.1523 56.3679 24.8459C57.6444 17.0823 58.6927 16.4083 63.3578 14.8033H63.3593Z" fill="white"/>
<path d="M261.146 111.031C260.33 113.368 255.562 116.342 251.58 118.486C251.399 118.58 251.22 118.677 251.04 118.773C248.226 120.258 245.932 121.277 245.932 121.277C245.932 121.277 244.563 115.373 247.878 114.516C249.031 114.221 250.248 113.742 251.342 113.173C251.63 113.025 251.91 112.869 252.178 112.707C253.817 111.726 255.018 110.567 255.018 109.61C255.018 109.315 254.839 108.899 254.546 108.419C254.063 107.626 253.263 106.651 252.426 105.718C250.874 103.985 249.199 102.401 249.199 102.401L247.735 90.9713C253.861 93.9593 262.584 106.908 261.144 111.034L261.146 111.031Z" fill="#3A3B99"/>
<path d="M221.531 67.3717C221.052 64.8066 219.733 61.5524 220 59.2536C220.387 55.902 224.01 56.4725 224.425 58.1825C224.702 59.3327 223.944 60.4357 223.805 61.878C223.716 62.803 224.161 64.8355 224.731 65.4045C225.302 65.9735 221.531 67.3732 221.531 67.3732V67.3717Z" fill="#F5B1B4"/>
<path d="M239.348 87.5452C241.685 88.2618 241.172 91.3791 240.928 92.3163C240.688 93.2443 241.842 93.6216 242.763 93.3249C243.218 93.1789 244.465 92.94 245.251 91.9603C246.037 90.9805 246.235 89.4515 246.235 89.4515C246.235 89.4515 243.063 86.4163 240.728 83.7904C238.392 81.1645 239.348 87.5437 239.348 87.5437V87.5452Z" fill="#F5B1B4"/>
<path d="M239.561 82.1929C239.302 82.8106 238.699 83.1499 238.215 82.9521C237.731 82.7543 237.551 82.0925 237.81 81.4748C238.069 80.8572 238.671 80.5179 239.156 80.7157C239.64 80.9134 239.82 81.5752 239.561 82.1929Z" stroke="#050D2E" stroke-width="2.15" stroke-miterlimit="10"/>
<path d="M240.564 79.1182C239.163 81.131 236.94 82.4835 237.664 82.981C238.995 83.8923 235.241 86.9488 237.946 87.609C240.37 88.2009 242.746 88.0259 243.649 84.7093C244.323 82.234 245.164 80.9256 245.164 80.9256L240.563 79.1167L240.564 79.1182Z" fill="#F5B1B4"/>
<path d="M240.323 82.5641C240.064 83.1818 239.461 83.5211 238.977 83.3233C238.493 83.1255 238.312 82.4637 238.571 81.846C238.83 81.2284 239.433 80.8891 239.917 81.0869C240.401 81.2847 240.582 81.9465 240.323 82.5641Z" stroke="#050D2E" stroke-width="2.15" stroke-miterlimit="10"/>
<path d="M240.341 82.1503L243.132 83.2289L243.021 83.5256L240.178 82.6478L240.341 82.1503Z" fill="#050D2E"/>
<path d="M238.51 81.7137C238.331 81.7517 238.229 81.8384 238.258 81.6239C238.274 81.5128 238.018 81.6543 238.02 81.8506C238.02 81.9327 238.104 82.0697 238.511 81.9434C238.75 81.8704 238.511 81.7137 238.511 81.7137H238.51Z" fill="#050D2E"/>
<path d="M255.504 193.545C255.626 195.049 246.988 198.527 247.304 197.754C247.619 196.983 249.285 194.786 249.802 193.342C250.506 191.375 242.627 169.154 241.48 165.277C240.775 162.898 240.567 160.34 240.689 157.544C240.709 157.048 240.741 156.543 240.781 156.032C240.889 154.728 241.057 153.374 241.27 151.964C241.27 151.964 251.601 151.802 250.932 153.619C250.579 154.579 250.246 155.554 249.945 156.516C249.709 157.264 249.49 158.005 249.301 158.72H249.299C248.533 161.577 248.151 164.027 248.482 165.049C252.375 177.048 250.115 181.553 254.152 190.611C255.134 192.816 255.384 192.035 255.506 193.54L255.504 193.545Z" fill="#F5B1B4"/>
<path d="M254.856 191.126C254.204 190.917 253.205 192.081 252.933 192.834C252.707 193.462 252.694 194.477 251.15 195.681C249.605 196.884 247.929 196.59 247.42 197.152C246.911 197.713 243.978 200.173 245.006 201.078C246.088 201.836 249.768 200.835 250.815 199.659C253.126 197.063 256.089 196.205 256.766 194.883C257.086 194.258 257.128 193.468 256.513 192.629C256.183 192.178 255.505 191.335 254.853 191.127L254.856 191.126Z" fill="white"/>
<path d="M239.215 154.104C239.178 154.831 236.594 164.157 236.816 167.909C237.268 175.551 233.414 179.755 232.384 194.923C232.216 197.394 232.987 196.753 232.461 198.218C231.935 199.683 220.874 198.145 221.504 197.547C222.135 196.951 225.718 196.931 227.09 195.69C229.022 193.94 228.636 178.997 229.307 167.509C229.398 165.947 229.947 155.27 230.076 154.323C230.631 150.208 233.004 153.252 236.573 153.266C236.573 153.266 239.315 152.119 239.215 154.103V154.104Z" fill="#F5B1B4"/>
<path d="M250.644 157.037C250.595 157.17 250.26 157.252 249.707 157.293C248.057 157.421 244.459 157.191 240.729 156.809C240.105 156.747 239.478 156.678 238.856 156.608C234.988 156.167 231.302 155.603 229.842 155.149C229.505 155.043 229.286 154.947 229.212 154.856C227.562 152.866 230.556 134.745 232.599 128.034C232.67 127.795 232.748 127.559 232.827 127.323C234.068 123.62 234.732 116.455 234.241 113.885C233.914 112.178 231.91 109.888 231.808 107.897C231.706 105.905 234.328 101.528 233.118 97.5483C232.451 95.3545 225.555 83.5181 223.438 79.6371C221.969 76.9442 220.161 65.4076 220.009 64.6119C219.858 63.8162 224.497 63.2183 224.547 63.8162C224.597 64.4126 227.016 75.5902 228.227 77.7795C229.062 79.2917 233.695 88.2359 239.774 89.9369C240.185 90.0525 240.716 90.5713 241.149 90.4587C242.766 90.0418 244.519 89.8136 246.078 90.2001C246.744 90.3628 247.373 90.6397 247.943 91.0612C247.961 91.0749 247.977 91.0855 247.994 91.0992C248.584 91.5495 249.11 92.1566 249.539 92.9614C250.814 95.3515 251.729 97.7978 252.135 100.644C252.349 102.134 252.421 103.731 252.332 105.49C252.332 105.528 252.331 105.564 252.326 105.603C252.315 105.843 252.3 106.088 252.28 106.336C252.125 108.329 251.685 110.609 251.376 113.155C251.167 114.903 251.019 116.774 251.073 118.758C251.136 121.125 251.484 123.654 252.352 126.328C256.223 138.256 251.369 155.092 250.645 157.037H250.644Z" fill="#3A3B99"/>
<path d="M243.189 76.2125C244.287 76.2353 245.92 76.9321 246.979 77.6273C248.744 78.7866 250.125 81.5905 250.256 83.6916C250.394 85.8824 249.681 87.9012 249.13 89.3511C248.516 90.9623 247.628 91.0018 247.879 94.5969C248.058 97.1634 250.042 100.36 248.817 102.849C247.495 105.531 240.209 106.357 240.322 101.682C240.405 98.2406 245.443 99.0545 240.986 94.466C236.825 90.1818 241.762 87.282 242.44 85.9447C243.852 83.1591 241.931 81.2224 239.773 79.3389C238.823 78.5097 241.446 76.1759 243.191 76.2125H243.189Z" fill="#6D3522"/>
<path d="M232.757 196.532C232.384 195.967 230.864 196.251 230.173 196.668C229.596 197.016 228.94 197.798 226.972 197.775C225.005 197.753 224.725 196.593 223.972 196.714C223.22 196.834 218.522 197.613 218.746 198.954C219.105 200.214 222.617 200.926 224.18 200.661C227.631 200.077 230.483 201.249 231.85 200.642C232.498 200.354 233.034 199.765 233.091 198.731C233.122 198.176 233.131 197.1 232.758 196.532H232.757Z" fill="white"/>
<path opacity="0.18" d="M254.549 108.417C254.065 107.623 253.266 106.648 252.429 105.715C252.364 105.569 252.327 105.482 252.327 105.482L252.039 100.407C252.039 100.407 254.671 106.69 254.549 108.417Z" fill="#050D2E"/>
<path opacity="0.18" d="M251.598 118.374C251.592 118.408 251.584 118.444 251.578 118.486C251.398 118.58 251.219 118.677 251.039 118.773C250.817 117.337 251.301 113.203 251.301 113.203C251.301 113.203 251.315 113.193 251.341 113.173C251.464 113.083 251.828 112.934 251.82 112.966C251.29 115.021 251.702 117.869 251.598 118.376V118.374Z" fill="#050D2E"/>
</g>
<defs>
<clipPath id="clip0_818_10945">
<rect width="350" height="208" fill="white"/>
</clipPath>
</defs>
</svg>
