<svg width="216" height="137" viewBox="0 0 216 137" fill="none" xmlns="http://www.w3.org/2000/svg">
<path d="M-7.19016 136.63H34.2798C44.116 136.63 52.0898 128.656 52.0898 118.82V118.81C52.0898 108.974 44.116 101 34.2798 101H-7.19016C-17.0263 101 -25.0002 108.974 -25.0002 118.81V118.82C-25.0002 128.656 -17.0263 136.63 -7.19016 136.63Z" fill="#0B8B62"/>
<path d="M115.92 135.62C125.817 135.62 133.84 127.646 133.84 117.81C133.84 107.974 125.817 100 115.92 100C106.023 100 98 107.974 98 117.81C98 127.646 106.023 135.62 115.92 135.62Z" fill="#F07F47"/>
<path d="M74.92 136.29C84.8169 136.29 92.84 128.316 92.84 118.48C92.84 108.644 84.8169 100.67 74.92 100.67C65.023 100.67 57 108.644 57 118.48C57 128.316 65.023 136.29 74.92 136.29Z" fill="#FCC253"/>
<path d="M5.92001 85.62C15.817 85.62 23.84 77.6462 23.84 67.81C23.84 57.9738 15.817 50 5.92001 50C-3.97693 50 -12 57.9738 -12 67.81C-12 77.6462 -3.97693 85.62 5.92001 85.62Z" fill="#57C3E8"/>
<path d="M64 75.9832V40.0168C64 31.171 56.8366 24 48 24C39.1634 24 32 31.171 32 40.0168V75.9832C32 84.829 39.1634 92 48 92C56.8366 92 64 84.829 64 75.9832Z" fill="#FCC253"/>
<path d="M197.16 101H156.92C147.023 101 139 109.021 139 118.915C139 128.809 147.023 136.83 156.92 136.83H197.16C207.057 136.83 215.08 128.809 215.08 118.915C215.08 109.021 207.057 101 197.16 101Z" fill="#55C3E9"/>
<path d="M89.92 93.62C99.8169 93.62 107.84 85.6462 107.84 75.81C107.84 65.9738 99.8169 58 89.92 58C80.023 58 72 65.9738 72 75.81C72 85.6462 80.023 93.62 89.92 93.62Z" fill="#0B8B62"/>
<path d="M5.91998 35.62C15.8169 35.62 23.84 27.6462 23.84 17.81C23.84 7.97381 15.8169 0 5.91998 0C-3.97696 0 -12 7.97381 -12 17.81C-12 27.6462 -3.97696 35.62 5.91998 35.62Z" fill="#F07F47"/>
</svg>
