<svg width="590" height="590" viewBox="0 0 590 590" fill="none" xmlns="http://www.w3.org/2000/svg">
<path d="M589.398 294.699C589.398 255.999 581.776 217.677 566.966 181.923C552.156 146.168 530.448 113.681 503.083 86.3154C475.718 58.95 443.23 37.2427 407.476 22.4326C371.721 7.62262 333.4 -1.69165e-06 294.699 0V294.699H589.398Z" fill="#EB4335"/>
<path d="M589.398 294.699C589.398 333.4 581.776 371.721 566.966 407.476C552.156 443.23 530.448 475.718 503.083 503.083C475.718 530.448 443.23 552.156 407.476 566.966C371.721 581.776 333.4 589.398 294.699 589.398V294.699H589.398Z" fill="#FFD83B"/>
<path d="M294.699 589.398C255.999 589.398 217.677 581.776 181.923 566.966C146.168 552.156 113.681 530.448 86.3154 503.083C58.95 475.718 37.2426 443.23 22.4326 407.476C7.6226 371.721 -1.26102e-05 333.4 0 294.699L294.699 294.699V589.398Z" fill="#45CA24"/>
<path d="M0 294.699C3.3833e-06 255.999 7.62263 217.677 22.4327 181.923C37.2427 146.168 58.9501 113.681 86.3155 86.3153C113.681 58.95 146.168 37.2426 181.923 22.4326C217.677 7.62259 255.999 -1.89153e-05 294.699 0L294.699 294.699L0 294.699Z" fill="#476EF6"/>
<path d="M395.883 215.993C393.667 215.993 391.954 215.422 390.745 214.28C389.603 213.071 389.032 211.359 389.032 209.142V151.814C389.032 149.598 389.603 147.918 390.745 146.777C391.954 145.568 393.667 144.963 395.883 144.963H415.429C427.318 144.963 436.486 148.019 442.935 154.132C449.45 160.244 452.707 169.009 452.707 180.428C452.707 186.137 451.868 191.208 450.189 195.641C448.577 200.007 446.159 203.701 442.935 206.724C439.778 209.747 435.882 212.064 431.247 213.676C426.68 215.221 421.407 215.993 415.429 215.993H395.883ZM401.929 205.313H414.623C418.788 205.313 422.381 204.81 425.404 203.802C428.493 202.728 431.046 201.183 433.061 199.168C435.143 197.085 436.688 194.499 437.695 191.41C438.703 188.253 439.207 184.592 439.207 180.428C439.207 172.099 437.158 165.886 433.061 161.789C428.964 157.691 422.818 155.643 414.623 155.643H401.929V205.313Z" fill="#FDFDFD" fill-opacity="0.5"/>
<path d="M419.66 455.15C417.578 455.15 415.966 454.579 414.824 453.437C413.749 452.228 413.212 450.582 413.212 448.5V389.157C413.212 387.008 413.749 385.362 414.824 384.22C415.966 383.079 417.578 382.508 419.66 382.508C421.742 382.508 423.321 383.079 424.395 384.22C425.537 385.362 426.108 387.008 426.108 389.157V448.5C426.108 450.582 425.571 452.228 424.496 453.437C423.422 454.579 421.809 455.15 419.66 455.15Z" fill="#FDFDFD" fill-opacity="0.5"/>
<path d="M175.02 455.351C172.065 455.351 169.109 455.116 166.154 454.646C163.198 454.243 160.411 453.605 157.791 452.732C155.172 451.791 152.821 450.65 150.739 449.306C149.53 448.5 148.69 447.526 148.22 446.384C147.75 445.242 147.582 444.134 147.716 443.06C147.918 441.918 148.354 440.944 149.026 440.138C149.765 439.265 150.672 438.727 151.746 438.526C152.821 438.324 153.996 438.626 155.273 439.432C158.228 441.179 161.351 442.455 164.642 443.261C167.934 444.067 171.393 444.47 175.02 444.47C180.326 444.47 184.188 443.597 186.606 441.851C189.024 440.037 190.233 437.72 190.233 434.899C190.233 432.548 189.36 430.701 187.614 429.357C185.935 428.014 183.013 426.906 178.848 426.032L167.766 423.715C161.385 422.372 156.616 420.122 153.459 416.965C150.369 413.741 148.824 409.509 148.824 404.27C148.824 400.979 149.496 397.99 150.839 395.303C152.183 392.616 154.064 390.299 156.482 388.351C158.967 386.403 161.889 384.926 165.247 383.918C168.673 382.844 172.434 382.306 176.531 382.306C180.561 382.306 184.39 382.81 188.017 383.817C191.644 384.825 194.902 386.303 197.79 388.251C198.865 388.989 199.57 389.896 199.906 390.971C200.309 392.046 200.409 393.12 200.208 394.195C200.006 395.202 199.536 396.076 198.797 396.814C198.058 397.553 197.118 397.99 195.976 398.124C194.902 398.259 193.659 397.923 192.248 397.117C189.763 395.706 187.244 394.699 184.692 394.094C182.14 393.49 179.386 393.187 176.43 393.187C173.341 393.187 170.688 393.624 168.471 394.497C166.254 395.37 164.542 396.613 163.333 398.225C162.191 399.77 161.62 401.617 161.62 403.766C161.62 406.184 162.426 408.132 164.038 409.61C165.65 411.02 168.404 412.129 172.3 412.935L183.282 415.252C189.931 416.663 194.868 418.879 198.092 421.902C201.383 424.924 203.029 428.954 203.029 433.992C203.029 437.216 202.357 440.138 201.014 442.757C199.738 445.377 197.857 447.627 195.372 449.508C192.954 451.388 190.032 452.832 186.606 453.84C183.181 454.848 179.319 455.351 175.02 455.351Z" fill="#FDFDFD" fill-opacity="0.5"/>
<path d="M183.584 217.001C176.195 217.001 169.848 215.523 164.542 212.568C159.303 209.545 155.273 205.314 152.451 199.873C149.63 194.365 148.22 187.884 148.22 180.428C148.22 174.853 149.026 169.849 150.638 165.416C152.25 160.916 154.567 157.087 157.59 153.93C160.612 150.706 164.307 148.255 168.673 146.575C173.106 144.829 178.076 143.956 183.584 143.956C187.278 143.956 190.905 144.426 194.465 145.366C198.025 146.307 201.148 147.65 203.835 149.396C205.245 150.27 206.186 151.344 206.656 152.62C207.126 153.829 207.227 155.038 206.958 156.247C206.69 157.389 206.119 158.363 205.245 159.169C204.439 159.975 203.398 160.445 202.122 160.58C200.913 160.647 199.57 160.21 198.092 159.27C196.01 157.927 193.76 156.953 191.342 156.348C188.924 155.744 186.472 155.441 183.987 155.441C179.218 155.441 175.188 156.415 171.897 158.363C168.605 160.311 166.12 163.132 164.441 166.826C162.762 170.521 161.922 175.055 161.922 180.428C161.922 185.734 162.762 190.268 164.441 194.029C166.12 197.791 168.605 200.645 171.897 202.593C175.188 204.541 179.218 205.515 183.987 205.515C186.539 205.515 189.058 205.213 191.543 204.608C194.028 203.937 196.379 202.929 198.596 201.586C200.074 200.713 201.383 200.343 202.525 200.478C203.734 200.545 204.742 200.948 205.548 201.687C206.354 202.425 206.891 203.366 207.16 204.508C207.428 205.582 207.361 206.724 206.958 207.933C206.555 209.075 205.749 210.083 204.54 210.956C201.853 212.904 198.629 214.415 194.868 215.49C191.174 216.497 187.412 217.001 183.584 217.001Z" fill="#FDFDFD" fill-opacity="0.5"/>
</svg>
