<svg xmlns="http://www.w3.org/2000/svg" id="Calque_1" data-name="Calque 1" viewBox="234.78 323.67 1057.3 291.25">
  <defs>
    <style>
      .cls-1 {
        fill: #3e8865;
      }

      .cls-2 {
        fill: #f3c466;
      }

      .cls-3 {
        fill: #74c1e4;
      }

      .cls-4 {
        fill: #262958;
      }

      .cls-5 {
        fill: #e18554;
      }
    </style>
  </defs>
  <g>
    <path class="cls-4" d="M309.99,377.58h-55.99c-12.54,0-19.22-5.85-19.22-17.55v-2.09c0-11.7,6.69-17.55,19.22-17.55h153.35c12.54,0,19.22,5.85,19.22,17.55v2.09c0,11.7-6.69,17.55-19.22,17.55h-55.99v215.61c0,12.12-6.27,19.22-18.39,19.22h-5.85c-11.28,0-17.13-7.1-17.13-19.22v-215.61Z"/>
    <path class="cls-4" d="M616.26,483.71v109.89c0,13.79-5.85,18.8-16.71,18.8h-5.43c-11.28,0-17.55-5.01-17.55-18.8v-107.8c0-26.74-10.03-46.8-36.35-46.8-21.31,0-38.86,13.79-43.87,38.44v116.16c0,13.79-5.85,18.8-16.3,18.8h-5.01c-11.7,0-17.97-5.01-17.97-18.8v-264.5c0-1.67,7.1-5.01,15.46-5.01,12.12,0,23.82,6.69,23.82,32.17v83.99c10.03-20.06,28.41-35.1,56.41-35.1,45.13,0,63.51,35.1,63.51,78.55Z"/>
    <path class="cls-4" d="M871.33,594.02v-264.92c0-1.67,6.69-5.43,14.62-5.43,12.54,0,24.65,7.52,24.65,33.01v237.34c0,13.37-5.85,18.39-16.71,18.39h-5.43c-11.28,0-17.13-5.01-17.13-18.39Z"/>
    <path class="cls-4" d="M968.26,329.11c0-1.67,7.1-5.43,15.04-5.43,12.12,0,24.24,7.1,24.24,33.43v144.16l59.33-78.14c6.69-10.45,15.46-15.46,23.82-15.46,12.95,0,22.98,12.12,22.15,14.62l-65.18,82.73,72.71,91.93c.42,3.34-8.36,15.46-22.98,15.46-10.45,0-17.13-6.27-22.98-15.46l-66.44-86.08-.42,82.32c0,14.21-6.69,19.22-17.13,19.22h-4.18c-10.86,0-17.97-5.01-17.97-19.22v-264.08Z"/>
    <path class="cls-4" d="M1246.96,492.07h5.01v-7.1c0-30.5-11.28-48.47-38.86-48.47-22.98,0-37.61,15.46-43.46,33.85-5.43.84-28.41,1.25-28.41-18.8,0-7.1,4.18-16.71,11.7-23.82,12.12-12.54,33.85-22.56,61.84-22.56,55.57,0,77.3,30.92,77.3,81.48v122.01c0,2.51-7.52,5.01-14.62,5.01-10.45,0-17.13-5.43-19.64-15.88-1.67-6.69-2.51-16.71-2.92-23.4-10.45,25.49-32.59,40.53-61.84,40.53-35.93,0-59.33-22.15-59.33-56.41,0-44.71,35.93-66.02,113.24-66.44ZM1252.81,515.05l-5.85.42c-52.65.42-73.54,13.37-73.54,40.53,0,19.64,12.95,30.08,32.17,30.08,25.07,0,47.22-22.98,47.22-51.39v-19.64Z"/>
  </g>
  <g>
    <path class="cls-3" d="M824.62,438.01s-24.04-20.34-59.78-19.41c-35.75.92-85.67,20.95-90.6,92.75,0,0-.62,24.65,12.02,29.89,0,0,4.29-22.28,19.11-21.26,9.78.67,1.81,12.88-.05,30.52-1.12,10.55-2.53,34.85,12.65,55.64,0,0-67.17-13.21-71.66-96.68-4.5-83.47,108.78-144.87,178.33-71.45Z"/>
    <path class="cls-5" d="M696.32,474.9s21.92-35.13,58.74-33.16c36.82,1.97,64.36,28.67,66.61,63.79s-15.46,46.09-15.46,46.09c0,0-2.25-25.29-21.08-26.98-18.83-1.69,6.74,15.18-3.09,58.46,0,0,56.49-3.09,60.42-73.35,3.93-70.26-101.17-116.35-146.14-34.85Z"/>
    <path class="cls-1" d="M754.44,515.39c-6.42-4.5-14.93-4.86-21.53-.63-8.33,5.35-18.05,17.53-18.05,45.29s9.54,40.7,17.72,46.67c6.46,4.71,15.17,4.78,21.89.46,9.08-5.83,20.76-18.62,20.24-45.72-.52-27.06-11.71-40.06-20.29-46.07Z"/>
    <path class="cls-2" d="M767.14,611.2s33.72-6.46,50.59-24.17c0,0-27.82,15.18-42.44,14.33l-8.15,9.84Z"/>
    <circle class="cls-3" cx="703.34" cy="506.43" r="9.5"/>
    <circle class="cls-1" cx="743.69" cy="486.59" r="17.34"/>
    <circle class="cls-5" cx="785.7" cy="505.93" r="10.5"/>
  </g>
</svg>